<svg xmlns="http://www.w3.org/2000/svg" xmlns:xlink="http://www.w3.org/1999/xlink" width="169.33" height="62.79" viewBox="0 0 169.33 62.79">
  <defs>
    <mask id="mask" x="0" y="15.79" width="169.33" height="47" maskUnits="userSpaceOnUse">
      <g id="mask-2">
        <rect id="path-1" x="23" y="16.79" width="123" height="41" fill="#fff"/>
      </g>
    </mask>
  </defs>
  <title>banner_graphic2</title>
  <g id="Layer_2" data-name="Layer 2">
    <g id="Layer_1-2" data-name="Layer 1">
      <g id="Page-1">
        <g id="Mobile">
          <g id="Group-5-Copy-13">
            <g id="Group-2">
              <g mask="url(#mask)">
                <g>
                  <path id="Path-2" d="M22,61.79l23.33-45Z" fill="none" stroke="#fff" stroke-linecap="round" stroke-linejoin="round" stroke-width="2"/>
                  <path id="Path-2-Copy-45" d="M19,61.79l23.33-45Z" fill="none" stroke="#fff" stroke-linecap="round" stroke-linejoin="round" stroke-width="2"/>
                  <path id="Path-2-Copy-46" d="M16,61.79l23.33-45Z" fill="none" stroke="#fff" stroke-linecap="round" stroke-linejoin="round" stroke-width="2"/>
                  <path id="Path-2-Copy-47" d="M13,61.79l23.33-45Z" fill="none" stroke="#fff" stroke-linecap="round" stroke-linejoin="round" stroke-width="2"/>
                  <path id="Path-2-Copy-48" d="M10,61.79l23.33-45Z" fill="none" stroke="#fff" stroke-linecap="round" stroke-linejoin="round" stroke-width="2"/>
                  <path id="Path-2-Copy-49" d="M7,61.79l23.33-45Z" fill="none" stroke="#fff" stroke-linecap="round" stroke-linejoin="round" stroke-width="2"/>
                  <path id="Path-2-Copy-50" d="M4,61.79l23.33-45Z" fill="none" stroke="#fff" stroke-linecap="round" stroke-linejoin="round" stroke-width="2"/>
                  <path id="Path-2-Copy-51" d="M1,61.79l23.33-45Z" fill="none" stroke="#fff" stroke-linecap="round" stroke-linejoin="round" stroke-width="2"/>
                  <path id="Path-2-Copy" d="M25,61.79l23.33-45Z" fill="none" stroke="#fff" stroke-linecap="round" stroke-linejoin="round" stroke-width="2"/>
                  <path id="Path-2-Copy-2" d="M28,61.79l23.33-45Z" fill="none" stroke="#fff" stroke-linecap="round" stroke-linejoin="round" stroke-width="2"/>
                  <path id="Path-2-Copy-3" d="M31,61.79l23.33-45Z" fill="none" stroke="#fff" stroke-linecap="round" stroke-linejoin="round" stroke-width="2"/>
                  <path id="Path-2-Copy-4" d="M34,61.79l23.33-45Z" fill="none" stroke="#fff" stroke-linecap="round" stroke-linejoin="round" stroke-width="2"/>
                  <path id="Path-2-Copy-5" d="M37,61.79l23.33-45Z" fill="none" stroke="#fff" stroke-linecap="round" stroke-linejoin="round" stroke-width="2"/>
                  <path id="Path-2-Copy-6" d="M40,61.79l23.33-45Z" fill="none" stroke="#fff" stroke-linecap="round" stroke-linejoin="round" stroke-width="2"/>
                  <path id="Path-2-Copy-7" d="M43,61.79l23.33-45Z" fill="none" stroke="#fff" stroke-linecap="round" stroke-linejoin="round" stroke-width="2"/>
                  <path id="Path-2-Copy-8" d="M46,61.79l23.33-45Z" fill="none" stroke="#fff" stroke-linecap="round" stroke-linejoin="round" stroke-width="2"/>
                  <path id="Path-2-Copy-9" d="M49,61.79l23.33-45Z" fill="none" stroke="#fff" stroke-linecap="round" stroke-linejoin="round" stroke-width="2"/>
                  <path id="Path-2-Copy-10" d="M52,61.79l23.33-45Z" fill="none" stroke="#fff" stroke-linecap="round" stroke-linejoin="round" stroke-width="2"/>
                  <path id="Path-2-Copy-11" d="M55,61.79l23.33-45Z" fill="none" stroke="#fff" stroke-linecap="round" stroke-linejoin="round" stroke-width="2"/>
                  <path id="Path-2-Copy-12" d="M58,61.79l23.33-45Z" fill="none" stroke="#fff" stroke-linecap="round" stroke-linejoin="round" stroke-width="2"/>
                  <path id="Path-2-Copy-13" d="M61,61.79l23.33-45Z" fill="none" stroke="#fff" stroke-linecap="round" stroke-linejoin="round" stroke-width="2"/>
                  <path id="Path-2-Copy-14" d="M64,61.79l23.33-45Z" fill="none" stroke="#fff" stroke-linecap="round" stroke-linejoin="round" stroke-width="2"/>
                  <path id="Path-2-Copy-15" d="M67,61.79l23.33-45Z" fill="none" stroke="#fff" stroke-linecap="round" stroke-linejoin="round" stroke-width="2"/>
                  <path id="Path-2-Copy-16" d="M70,61.79l23.33-45Z" fill="none" stroke="#fff" stroke-linecap="round" stroke-linejoin="round" stroke-width="2"/>
                  <path id="Path-2-Copy-17" d="M73,61.79l23.33-45Z" fill="none" stroke="#fff" stroke-linecap="round" stroke-linejoin="round" stroke-width="2"/>
                  <path id="Path-2-Copy-18" d="M76,61.79l23.33-45Z" fill="none" stroke="#fff" stroke-linecap="round" stroke-linejoin="round" stroke-width="2"/>
                  <path id="Path-2-Copy-19" d="M79,61.79l23.33-45Z" fill="none" stroke="#fff" stroke-linecap="round" stroke-linejoin="round" stroke-width="2"/>
                  <path id="Path-2-Copy-20" d="M82,61.79l23.33-45Z" fill="none" stroke="#fff" stroke-linecap="round" stroke-linejoin="round" stroke-width="2"/>
                  <path id="Path-2-Copy-21" d="M85,61.79l23.33-45Z" fill="none" stroke="#fff" stroke-linecap="round" stroke-linejoin="round" stroke-width="2"/>
                  <path id="Path-2-Copy-22" d="M88,61.79l23.33-45Z" fill="none" stroke="#fff" stroke-linecap="round" stroke-linejoin="round" stroke-width="2"/>
                  <path id="Path-2-Copy-23" d="M91,61.79l23.33-45Z" fill="none" stroke="#fff" stroke-linecap="round" stroke-linejoin="round" stroke-width="2"/>
                  <path id="Path-2-Copy-24" d="M94,61.79l23.33-45Z" fill="none" stroke="#fff" stroke-linecap="round" stroke-linejoin="round" stroke-width="2"/>
                  <path id="Path-2-Copy-25" d="M97,61.79l23.33-45Z" fill="none" stroke="#fff" stroke-linecap="round" stroke-linejoin="round" stroke-width="2"/>
                  <path id="Path-2-Copy-26" d="M100,61.79l23.33-45Z" fill="none" stroke="#fff" stroke-linecap="round" stroke-linejoin="round" stroke-width="2"/>
                  <path id="Path-2-Copy-27" d="M103,61.79l23.33-45Z" fill="none" stroke="#fff" stroke-linecap="round" stroke-linejoin="round" stroke-width="2"/>
                  <path id="Path-2-Copy-28" d="M106,61.79l23.33-45Z" fill="none" stroke="#fff" stroke-linecap="round" stroke-linejoin="round" stroke-width="2"/>
                  <path id="Path-2-Copy-29" d="M109,61.79l23.33-45Z" fill="none" stroke="#fff" stroke-linecap="round" stroke-linejoin="round" stroke-width="2"/>
                  <path id="Path-2-Copy-30" d="M112,61.79l23.33-45Z" fill="none" stroke="#fff" stroke-linecap="round" stroke-linejoin="round" stroke-width="2"/>
                  <path id="Path-2-Copy-31" d="M115,61.79l23.33-45Z" fill="none" stroke="#fff" stroke-linecap="round" stroke-linejoin="round" stroke-width="2"/>
                  <path id="Path-2-Copy-32" d="M118,61.79l23.33-45Z" fill="none" stroke="#fff" stroke-linecap="round" stroke-linejoin="round" stroke-width="2"/>
                  <path id="Path-2-Copy-33" d="M121,61.79l23.33-45Z" fill="none" stroke="#fff" stroke-linecap="round" stroke-linejoin="round" stroke-width="2"/>
                  <path id="Path-2-Copy-34" d="M124,61.79l23.33-45Z" fill="none" stroke="#fff" stroke-linecap="round" stroke-linejoin="round" stroke-width="2"/>
                  <path id="Path-2-Copy-35" d="M127,61.79l23.33-45Z" fill="none" stroke="#fff" stroke-linecap="round" stroke-linejoin="round" stroke-width="2"/>
                  <path id="Path-2-Copy-36" d="M130,61.79l23.33-45Z" fill="none" stroke="#fff" stroke-linecap="round" stroke-linejoin="round" stroke-width="2"/>
                  <path id="Path-2-Copy-37" d="M133,61.79l23.33-45Z" fill="none" stroke="#fff" stroke-linecap="round" stroke-linejoin="round" stroke-width="2"/>
                  <path id="Path-2-Copy-38" d="M136,61.79l23.33-45Z" fill="none" stroke="#fff" stroke-linecap="round" stroke-linejoin="round" stroke-width="2"/>
                  <path id="Path-2-Copy-39" d="M139,61.79l23.33-45Z" fill="none" stroke="#fff" stroke-linecap="round" stroke-linejoin="round" stroke-width="2"/>
                  <path id="Path-2-Copy-40" d="M142,61.79l23.33-45Z" fill="none" stroke="#fff" stroke-linecap="round" stroke-linejoin="round" stroke-width="2"/>
                  <path id="Path-2-Copy-41" d="M145,61.79l23.33-45Z" fill="none" stroke="#fff" stroke-linecap="round" stroke-linejoin="round" stroke-width="2"/>
                </g>
              </g>
            </g>
            <g id="_APOLLO_" data-name="“APOLLO”" style="isolation: isolate">
              <g style="isolation: isolate">
                <path d="M75.27,6.34a4.61,4.61,0,0,1,.4-1.1.19.19,0,0,1,.18-.12.31.31,0,0,1,.18.06.19.19,0,0,1,.09.16.2.2,0,0,1,0,.09l-.19.47a.43.43,0,0,1,.28.43.46.46,0,0,1-.13.33.47.47,0,0,1-.79-.33Zm1.45,0a4.33,4.33,0,0,1,.4-1.1.2.2,0,0,1,.19-.12.29.29,0,0,1,.18.06.2.2,0,0,1,.08.16.2.2,0,0,1,0,.09l-.19.47a.43.43,0,0,1,.29.43.45.45,0,0,1-.13.33.47.47,0,0,1-.66,0A.46.46,0,0,1,76.72,6.34Z" fill="#fff"/>
                <path d="M78.1,11.48a.29.29,0,0,1,0-.07l1.84-6q.08-.26.46-.26t.46.26l1.85,6a.12.12,0,0,0,0,0v0a.26.26,0,0,1-.15.21.6.6,0,0,1-.32.09.25.25,0,0,1-.27-.17l-.4-1.33H79.22l-.39,1.33a.25.25,0,0,1-.27.17.58.58,0,0,1-.31-.09A.26.26,0,0,1,78.1,11.48Zm1.31-1.82h2l-1-3.39Z" fill="#fff"/>
                <path d="M83.86,11.52v-6A.24.24,0,0,1,84,5.29a.32.32,0,0,1,.22-.08h1.7a2,2,0,0,1,1.39.47,1.89,1.89,0,0,1,.52,1.48v.08a1.88,1.88,0,0,1-.53,1.48,2,2,0,0,1-1.41.47H84.62v2.33a.22.22,0,0,1-.11.2.52.52,0,0,1-.53,0A.22.22,0,0,1,83.86,11.52Zm.76-3h1.22a1.17,1.17,0,0,0,.88-.32,1.32,1.32,0,0,0,.31-1V7.17a1.32,1.32,0,0,0-.31-1,1.17,1.17,0,0,0-.88-.32H84.62Z" fill="#fff"/>
                <path d="M88.94,9.88V7.17a1.91,1.91,0,0,1,.53-1.49,2.34,2.34,0,0,1,2.82,0,1.9,1.9,0,0,1,.53,1.49V9.88a1.9,1.9,0,0,1-.53,1.49,2.34,2.34,0,0,1-2.82,0A1.91,1.91,0,0,1,88.94,9.88Zm.76,0q0,1.28,1.18,1.28a1.17,1.17,0,0,0,.88-.32,1.32,1.32,0,0,0,.31-1V7.17a1.32,1.32,0,0,0-.31-1,1.17,1.17,0,0,0-.88-.32q-1.18,0-1.18,1.28Z" fill="#fff"/>
                <path d="M94.36,11.52v-6a.21.21,0,0,1,.11-.19.51.51,0,0,1,.27-.07.5.5,0,0,1,.27.07.21.21,0,0,1,.11.19v5.63h2.46a.2.2,0,0,1,.18.1.49.49,0,0,1,0,.48.2.2,0,0,1-.18.1H94.7a.4.4,0,0,1-.24-.07A.22.22,0,0,1,94.36,11.52Z" fill="#fff"/>
                <path d="M98.89,11.52v-6A.21.21,0,0,1,99,5.28a.56.56,0,0,1,.53,0,.21.21,0,0,1,.11.19v5.63h2.46a.2.2,0,0,1,.18.1.48.48,0,0,1,0,.48.2.2,0,0,1-.18.1H99.24a.4.4,0,0,1-.24-.07A.23.23,0,0,1,98.89,11.52Z" fill="#fff"/>
                <path d="M103.24,9.88V7.17a1.91,1.91,0,0,1,.53-1.49,2.34,2.34,0,0,1,2.82,0,1.9,1.9,0,0,1,.53,1.49V9.88a1.9,1.9,0,0,1-.53,1.49,2.34,2.34,0,0,1-2.82,0A1.91,1.91,0,0,1,103.24,9.88Zm.76,0q0,1.28,1.18,1.28a1.17,1.17,0,0,0,.88-.32,1.32,1.32,0,0,0,.31-1V7.17a1.32,1.32,0,0,0-.31-1,1.17,1.17,0,0,0-.88-.32Q104,5.9,104,7.17Z" fill="#fff"/>
                <path d="M108.33,5.59a.46.46,0,0,1,.13-.33.44.44,0,0,1,.33-.14.44.44,0,0,1,.33.14.45.45,0,0,1,.14.33,4.1,4.1,0,0,1-.41,1.1.19.19,0,0,1-.18.12.32.32,0,0,1-.18-.06.18.18,0,0,1-.09-.16.15.15,0,0,1,0-.09l.18-.47A.44.44,0,0,1,108.33,5.59Zm1.45,0a.46.46,0,0,1,.13-.33.45.45,0,0,1,.33-.14.44.44,0,0,1,.32.14.45.45,0,0,1,.14.33,4.36,4.36,0,0,1-.4,1.1.19.19,0,0,1-.19.12.3.3,0,0,1-.18-.06.18.18,0,0,1-.08-.16.16.16,0,0,1,0-.09l.19-.47A.44.44,0,0,1,109.78,5.59Z" fill="#fff"/>
              </g>
            </g>
            <g id="M65-A" style="isolation: isolate">
              <g style="isolation: isolate">
                <path d="M24.14,11.31V.75A.59.59,0,0,1,24.81.1q.64,0,1.07.85l2.51,4.82L30.92.94Q31.38.1,32,.1a.59.59,0,0,1,.67.66V11.31a.4.4,0,0,1-.2.35.93.93,0,0,1-.94,0,.4.4,0,0,1-.2-.35V2.91L28.9,7.46a.58.58,0,0,1-.53.37.57.57,0,0,1-.5-.37l-2.4-4.61v8.46a.4.4,0,0,1-.2.35.93.93,0,0,1-.94,0A.4.4,0,0,1,24.14,11.31Z" fill="#fff"/>
                <path d="M35,8.4V3.58A3.36,3.36,0,0,1,36,.94,3.72,3.72,0,0,1,38.5.1,3.53,3.53,0,0,1,41,.93a2.59,2.59,0,0,1,.9,2q0,.59-.62.59t-.7-.53A1.41,1.41,0,0,0,40,1.76a2.44,2.44,0,0,0-1.5-.45q-2.13,0-2.13,2.27V5.82a2.77,2.77,0,0,1,2.34-1q3.22,0,3.22,3.23V8.4A3.39,3.39,0,0,1,41,11a4.16,4.16,0,0,1-5,0A3.37,3.37,0,0,1,35,8.4Zm1.34.08q0,2.29,2.11,2.29t2.1-2.29V8.14Q40.55,6,38.46,6a1.84,1.84,0,0,0-2.11,2Z" fill="#fff"/>
                <path d="M43.26,9.12q0-.64.67-.64T44.6,9a1.42,1.42,0,0,0,.59,1.21,2.46,2.46,0,0,0,1.5.44,2.09,2.09,0,0,0,1.56-.56,2.3,2.3,0,0,0,.55-1.68v-.3a2.22,2.22,0,0,0-.55-1.64,2.09,2.09,0,0,0-1.54-.55H44.44c-.42,0-.62-.17-.62-.53a1.17,1.17,0,0,1,.06-.35L44.18.58q0-.48.35-.48h4.61a.35.35,0,0,1,.32.18.8.8,0,0,1,.11.42.8.8,0,0,1-.11.42.35.35,0,0,1-.32.18H45.35l-.24,3.5h1.6a3.72,3.72,0,0,1,2.5.8,3.13,3.13,0,0,1,.94,2.51v.3A3.33,3.33,0,0,1,49.21,11a3.61,3.61,0,0,1-2.5.84,3.71,3.71,0,0,1-2.53-.81A2.51,2.51,0,0,1,43.26,9.12Z" fill="#fff"/>
                <path d="M51.69,8a.64.64,0,0,1,.13-.4.41.41,0,0,1,.34-.17h4.16a.43.43,0,0,1,.34.17.59.59,0,0,1,.14.4.56.56,0,0,1-.14.39.44.44,0,0,1-.34.16H52.15Q51.69,8.51,51.69,8Z" fill="#fff"/>
                <path d="M58.14,11.23a.53.53,0,0,1,0-.13L61.44.47q.14-.47.82-.47t.82.47l3.29,10.68a.23.23,0,0,0,0,.06v0a.46.46,0,0,1-.26.38,1.05,1.05,0,0,1-.57.17.44.44,0,0,1-.48-.3l-.7-2.37H60.13l-.7,2.36a.45.45,0,0,1-.49.31,1,1,0,0,1-.54-.16A.47.47,0,0,1,58.14,11.23ZM60.46,8H64L62.25,2Z" fill="#fff"/>
              </g>
            </g>
          </g>
        </g>
      </g>
    </g>
  </g>
</svg>
