<svg xmlns="http://www.w3.org/2000/svg" width="287.27" height="349.12" viewBox="0 0 287.27 349.12">
  <title>banner</title>
  <g id="Layer_2" data-name="Layer 2">
    <g id="Layer_1-2" data-name="Layer 1">
      <g id="Page-1">
        <g id="Mobile">
          <g id="Group-Copy-2">
            <g id="R" style="isolation: isolate">
              <g style="isolation: isolate">
                <path d="M11.38,51.12H1.29V.7H21.47a19.67,19.67,0,0,1,5.34.72,20.07,20.07,0,0,1,4.8,2,20.46,20.46,0,0,1,4.08,3.16,20.28,20.28,0,0,1,5.2,8.91A20.1,20.1,0,0,1,41,25.95a20.74,20.74,0,0,1-1.86,4.68,19.74,19.74,0,0,1-3,4.08,20.13,20.13,0,0,1-3.94,3.23l5.59,13.18H27.06L22.66,41,11.38,41Zm0-40.32V31H21.47a9.72,9.72,0,0,0,3.9-.79,10.12,10.12,0,0,0,5.36-5.38,10.11,10.11,0,0,0,0-7.84,10.12,10.12,0,0,0-5.36-5.38,9.72,9.72,0,0,0-3.9-.79Z" fill="#fff"/>
              </g>
            </g>
            <g id="A" style="isolation: isolate">
              <g style="isolation: isolate">
                <path d="M41.26,200.12H31.17V190H11v10.09H.93V169.88A19.65,19.65,0,0,1,2.52,162a20.52,20.52,0,0,1,4.31-6.42,20.16,20.16,0,0,1,6.4-4.32,19.65,19.65,0,0,1,7.86-1.58,19.65,19.65,0,0,1,7.86,1.58A20.24,20.24,0,0,1,39.68,162a19.65,19.65,0,0,1,1.58,7.86ZM31.17,180V169.88a9.85,9.85,0,0,0-.79-3.92A10.07,10.07,0,0,0,25,160.58a10.11,10.11,0,0,0-7.84,0A10.07,10.07,0,0,0,11.78,166a9.85,9.85,0,0,0-.79,3.92V180Z" fill="#fff"/>
              </g>
            </g>
            <g id="A-2" data-name="A" style="isolation: isolate">
              <g style="isolation: isolate">
                <path d="M159.26,51.12H149.17V41H129V51.12H118.93V20.88A19.65,19.65,0,0,1,120.52,13a20.52,20.52,0,0,1,4.31-6.42,20.16,20.16,0,0,1,6.4-4.32,20.3,20.3,0,0,1,15.71,0A20.24,20.24,0,0,1,157.68,13a19.65,19.65,0,0,1,1.58,7.86ZM149.17,31V20.88a9.85,9.85,0,0,0-.79-3.92A10.07,10.07,0,0,0,143,11.58a10.11,10.11,0,0,0-7.84,0A10.07,10.07,0,0,0,129.78,17a9.85,9.85,0,0,0-.79,3.92V31Z" fill="#fff"/>
              </g>
            </g>
            <g id="M" style="isolation: isolate">
              <g style="isolation: isolate">
                <path d="M169.27,200.12H159.21v-36a4.83,4.83,0,0,0-.4-2,5.23,5.23,0,0,0-1.09-1.6,5,5,0,0,0-8.6,3.57v36H139v-36a5,5,0,1,0-10.05,0v36H118.89v-36a14.84,14.84,0,0,1,1.18-5.89,15,15,0,0,1,8.05-8.05,15.22,15.22,0,0,1,11.3-.18,14.69,14.69,0,0,1,4.68,2.9A15,15,0,0,1,160,150.18a15,15,0,0,1,8.05,8.05,14.84,14.84,0,0,1,1.18,5.89Z" fill="#fff"/>
              </g>
            </g>
            <g id="M-2" data-name="M" style="isolation: isolate">
              <g style="isolation: isolate">
                <path d="M287.27,51.12H277.21v-36a4.83,4.83,0,0,0-.4-2,5.23,5.23,0,0,0-1.09-1.6,5,5,0,0,0-8.6,3.57v36H257v-36a5,5,0,1,0-10.05,0v36H236.89v-36a14.83,14.83,0,0,1,1.18-5.89,15,15,0,0,1,8.05-8.05,15,15,0,0,1,16,2.72A15,15,0,0,1,278,1.18a15,15,0,0,1,8.05,8.05,14.84,14.84,0,0,1,1.18,5.89Z" fill="#fff"/>
              </g>
            </g>
            <g id="_6" data-name="6" style="isolation: isolate">
              <g style="isolation: isolate">
                <path d="M274.27,181.63a20.42,20.42,0,0,1-1.46,7.7,20.14,20.14,0,0,1-4,6.35,18.88,18.88,0,0,1-6.1,4.31,18.49,18.49,0,0,1-7.65,1.58,19.23,19.23,0,0,1-7.75-1.58,20.17,20.17,0,0,1-10.62-10.65,19.2,19.2,0,0,1-1.56-7.7,47,47,0,0,1,.95-9.47,42.86,42.86,0,0,1,2.78-8.75,38,38,0,0,1,4.46-7.61,32.64,32.64,0,0,1,6-6.08h13.61a41.5,41.5,0,0,0-4.11,3.06,44.43,44.43,0,0,0-3.81,3.62,41.23,41.23,0,0,0-3.36,4.08,34.88,34.88,0,0,0-2.74,4.46,17.87,17.87,0,0,1,3.29-1.74,9.58,9.58,0,0,1,3.64-.72,19.85,19.85,0,0,1,7.68,1.42,16.59,16.59,0,0,1,5.82,4,17.75,17.75,0,0,1,3.69,6.06A22.05,22.05,0,0,1,274.27,181.63Zm-10.09,0a10.9,10.9,0,0,0-.65-3.78,9.77,9.77,0,0,0-1.85-3.13,8.55,8.55,0,0,0-2.88-2.13,9.53,9.53,0,0,0-7.52,0,8.37,8.37,0,0,0-2.87,2.13,9.63,9.63,0,0,0-1.81,3.13,11.17,11.17,0,0,0-.63,3.78,10.67,10.67,0,0,0,.65,3.71,10,10,0,0,0,1.85,3.15,8.9,8.9,0,0,0,2.87,2.18,8.4,8.4,0,0,0,3.71.81,8.92,8.92,0,0,0,3.76-.77,8.55,8.55,0,0,0,2.88-2.13,9.73,9.73,0,0,0,1.85-3.15A11,11,0,0,0,264.18,181.63Z" fill="#fff"/>
              </g>
            </g>
            <g id="_5" data-name="5" style="isolation: isolate">
              <g style="isolation: isolate">
                <path d="M36.14,333.26a16.33,16.33,0,0,1-1.3,6.64,15,15,0,0,1-3.48,5,15.24,15.24,0,0,1-5,3.13,16.72,16.72,0,0,1-6,1.09H0V339H20.32a7,7,0,0,0,2.06-.32,5.11,5.11,0,0,0,3.2-2.81,6.2,6.2,0,0,0,.51-2.64,5.72,5.72,0,0,0-.51-2.48A5.45,5.45,0,0,0,24.24,329a5.74,5.74,0,0,0-1.86-1.09,6.1,6.1,0,0,0-2.06-.37H0L3,298.7H34.07v10.09H12l-.91,8.65h9.21a16.72,16.72,0,0,1,6,1.09,15.09,15.09,0,0,1,5,3.15,15.28,15.28,0,0,1,3.48,5A16.11,16.11,0,0,1,36.14,333.26Z" fill="#fff"/>
              </g>
            </g>
            <g id="_-" data-name="-" style="isolation: isolate">
              <g style="isolation: isolate">
                <path d="M148.33,318.88v9.56H118.79v-9.56Z" fill="#fff"/>
              </g>
            </g>
            <g id="A-3" data-name="A" style="isolation: isolate">
              <g style="isolation: isolate">
                <path d="M277.26,349.12H267.17V339H247v10.09H236.93V318.88a19.65,19.65,0,0,1,1.58-7.86,20.52,20.52,0,0,1,4.31-6.42,20.15,20.15,0,0,1,6.4-4.32,20.3,20.3,0,0,1,15.71,0A20.24,20.24,0,0,1,275.68,311a19.65,19.65,0,0,1,1.58,7.86ZM267.17,329V318.88a9.85,9.85,0,0,0-.79-3.92,10.07,10.07,0,0,0-5.38-5.38,10.11,10.11,0,0,0-7.84,0,10.07,10.07,0,0,0-5.38,5.38,9.85,9.85,0,0,0-.79,3.92V329Z" fill="#fff"/>
              </g>
            </g>
          </g>
        </g>
      </g>
    </g>
  </g>
</svg>
