<svg xmlns="http://www.w3.org/2000/svg" width="67.52" height="38.4" viewBox="0 0 67.52 38.4">
  <title>banner_graphic1</title>
  <g id="Layer_2" data-name="Layer 2">
    <g id="Layer_1-2" data-name="Layer 1">
      <g id="Page-1">
        <g id="Mobile">
          <g id="Group-Copy-2">
            <g id="x_" data-name="x/" style="isolation: isolate">
              <g style="isolation: isolate">
                <path d="M0,35.38a1.51,1.51,0,0,1,.24-.82l6.19-9.12-6-8.74a1.28,1.28,0,0,1-.29-.77,1.77,1.77,0,0,1,.86-1.37,2.81,2.81,0,0,1,1.68-.65,1.21,1.21,0,0,1,1.06.58l5.28,8.26,5.38-8.26a1.13,1.13,0,0,1,1.06-.58,2.72,2.72,0,0,1,1.63.67A1.82,1.82,0,0,1,18,15.94a1.44,1.44,0,0,1-.24.77l-6,8.74L18,34.56a1.37,1.37,0,0,1,.24.82,1.81,1.81,0,0,1-.82,1.3,2.57,2.57,0,0,1-1.63.67,1.18,1.18,0,0,1-1.1-.58l-5.57-8.5-5.52,8.5a1.25,1.25,0,0,1-1.1.58A2.72,2.72,0,0,1,.86,36.7,1.75,1.75,0,0,1,0,35.38Z" fill="#fff"/>
                <path d="M20.69,37a1.05,1.05,0,0,1,.14-.62L38.83.72A1.17,1.17,0,0,1,40,0a1.73,1.73,0,0,1,1.15.46,1.43,1.43,0,0,1,.53,1.13,1.33,1.33,0,0,1-.19.67L23.57,37.63a1.32,1.32,0,0,1-1.34.77,1.49,1.49,0,0,1-1.1-.43A1.38,1.38,0,0,1,20.69,37Z" fill="#fff"/>
              </g>
            </g>
            <g id="x" style="isolation: isolate">
              <g style="isolation: isolate">
                <path d="M44.42,14.17a.76.76,0,0,1,.12-.41l3.1-4.56-3-4.37a.64.64,0,0,1-.14-.38A.89.89,0,0,1,45,3.76a1.41,1.41,0,0,1,.84-.32.61.61,0,0,1,.53.29L49,7.86l2.69-4.13a.57.57,0,0,1,.53-.29,1.36,1.36,0,0,1,.82.34.91.91,0,0,1,.43.67.73.73,0,0,1-.12.38l-3,4.37,3.12,4.56a.68.68,0,0,1,.12.41.91.91,0,0,1-.41.65,1.29,1.29,0,0,1-.82.34.59.59,0,0,1-.55-.29L49,10.62,46.2,14.86a.62.62,0,0,1-.55.29,1.37,1.37,0,0,1-.79-.32A.88.88,0,0,1,44.42,14.17Z" fill="#fff"/>
              </g>
            </g>
            <g id="x-copy" style="isolation: isolate">
              <g style="isolation: isolate">
                <path d="M58.42,14.17a.76.76,0,0,1,.12-.41l3.1-4.56-3-4.37a.64.64,0,0,1-.14-.38A.89.89,0,0,1,59,3.76a1.41,1.41,0,0,1,.84-.32.61.61,0,0,1,.53.29L63,7.86l2.69-4.13a.57.57,0,0,1,.53-.29,1.36,1.36,0,0,1,.82.34.91.91,0,0,1,.43.67.73.73,0,0,1-.12.38l-3,4.37,3.12,4.56a.68.68,0,0,1,.12.41.91.91,0,0,1-.41.65,1.29,1.29,0,0,1-.82.34.59.59,0,0,1-.55-.29L63,10.62,60.2,14.86a.62.62,0,0,1-.55.29,1.37,1.37,0,0,1-.79-.32A.88.88,0,0,1,58.42,14.17Z" fill="#fff"/>
              </g>
            </g>
          </g>
        </g>
      </g>
    </g>
  </g>
</svg>
