<svg xmlns="http://www.w3.org/2000/svg" width="540" height="51" viewBox="0 0 540 51">
  <title>create_btn</title>
  <g id="Layer_2" data-name="Layer 2">
    <g id="Layer_1-2" data-name="Layer 1">
      <g id="Page-1">
        <g id="Desktop">
          <g id="Group-14">
            <rect id="Rectangle-9" width="540" height="51" rx="4" ry="4" fill="#ffcd00"/>
            <g id="CREATE-YOURS" style="isolation: isolate">
              <g style="isolation: isolate">
                <path d="M213.79,30.56a1.06,1.06,0,0,1,.89.46,1,1,0,0,1,.15,1,4.47,4.47,0,0,1-4.2,3h-.07a4.44,4.44,0,0,1-4.44-4.44V22.17a4.44,4.44,0,0,1,4.44-4.43h.07a4.42,4.42,0,0,1,4.2,3,1,1,0,0,1-.15,1,1.07,1.07,0,0,1-.89.45,1,1,0,0,1-1-.71,2.15,2.15,0,0,0-.81-1.1,2.19,2.19,0,0,0-1.31-.42h-.07a2.24,2.24,0,0,0-2.25,2.24v8.39a2.24,2.24,0,0,0,2.25,2.25h.07a2.27,2.27,0,0,0,2.12-1.52A1,1,0,0,1,213.79,30.56Z"/>
                <path d="M226.32,22.43a4.22,4.22,0,0,1-1.54,3.34,4.25,4.25,0,0,1,1.54,3.34V33.9a1.07,1.07,0,0,1-.33.79,1.1,1.1,0,0,1-1.55,0,1.09,1.09,0,0,1-.32-.79V29.11a2.26,2.26,0,0,0-2.25-2.24h-2.5v7a1.09,1.09,0,0,1-.32.79,1.08,1.08,0,0,1-.77.32,1.08,1.08,0,0,1-1.1-1.1V19a1.05,1.05,0,0,1,.32-.77,1.09,1.09,0,0,1,.79-.32h3.59a4.44,4.44,0,0,1,4.44,4.43Zm-6.94,2.25h2.5a2.26,2.26,0,0,0,2.25-2.25v-.07a2.26,2.26,0,0,0-2.25-2.24h-2.5Z"/>
                <path d="M235.74,32.81a1.1,1.1,0,0,1,1.1,1.09,1.07,1.07,0,0,1-.33.79,1.05,1.05,0,0,1-.77.32H230a1.08,1.08,0,0,1-1.1-1.1V19.24a1.08,1.08,0,0,1,.32-.77,1.09,1.09,0,0,1,.79-.32h5.78a1.1,1.1,0,0,1,1.1,1.09,1.12,1.12,0,0,1-1.1,1.1h-4.69v4.55h4a1.09,1.09,0,0,1,.79.32,1.1,1.1,0,0,1,0,1.55,1.07,1.07,0,0,1-.79.33h-4v5.73Z"/>
                <path d="M248.1,20.81a4.27,4.27,0,0,1,.22,1.36V33.9a1.07,1.07,0,0,1-.33.79,1.1,1.1,0,0,1-1.55,0,1.09,1.09,0,0,1-.32-.79v-7h-4.56v7a1.09,1.09,0,0,1-.32.79,1.08,1.08,0,0,1-.77.32,1.08,1.08,0,0,1-1.1-1.1V22.17a4.49,4.49,0,0,1,.21-1.36q0-.12,0-.06a4.2,4.2,0,0,1,2.88-2.81h0l.36-.09H243l.34-.06h1.09l.34.06h.08l.36.09h0a4.2,4.2,0,0,1,2.88,2.81,0,0,0,0,1,0,0Zm-2,3.87V22.17a2.15,2.15,0,0,0-.18-.86v0a2.37,2.37,0,0,0-.33-.54l0,0-.23-.23-.07-.06-.14-.11-.15-.09-.16-.08-.16-.07-.11,0-.27-.07h-.09l-.29,0h-.11l-.29,0h-.09l-.27.07-.12,0-.15.07-.16.08-.15.09-.14.11-.07.06-.23.23v0h0a2.08,2.08,0,0,0-.32.54v0a2.15,2.15,0,0,0-.18.86v2.51Z"/>
                <path d="M257.86,17.89a1.05,1.05,0,0,1,.77.32,1.08,1.08,0,0,1,.32.77,1.05,1.05,0,0,1-.32.77,1,1,0,0,1-.77.33h-2.93V33.9a1.09,1.09,0,0,1-.32.79,1.08,1.08,0,0,1-.77.32,1.05,1.05,0,0,1-.77-.32,1.07,1.07,0,0,1-.33-.79V20.08h-2.92a1.07,1.07,0,0,1-.79-.33,1.05,1.05,0,0,1-.32-.77,1.08,1.08,0,0,1,.32-.77,1.09,1.09,0,0,1,.79-.32Zm0,0a1.05,1.05,0,0,1,.77.32,1.08,1.08,0,0,1,.32.77,1.05,1.05,0,0,1-.32.77,1,1,0,0,1-.77.33h-2.93V33.9a1.09,1.09,0,0,1-.32.79,1.08,1.08,0,0,1-.77.32,1.05,1.05,0,0,1-.77-.32,1.07,1.07,0,0,1-.33-.79V20.08h-2.92a1.07,1.07,0,0,1-.79-.33,1.05,1.05,0,0,1-.32-.77,1.08,1.08,0,0,1,.32-.77,1.09,1.09,0,0,1,.79-.32Z"/>
                <path d="M267.9,32.81A1.1,1.1,0,0,1,269,33.9a1.07,1.07,0,0,1-.33.79,1.05,1.05,0,0,1-.77.32h-5.78a1.08,1.08,0,0,1-1.1-1.1V19.24a1.08,1.08,0,0,1,.32-.77,1.09,1.09,0,0,1,.79-.32h5.78a1.1,1.1,0,0,1,1.1,1.09,1.12,1.12,0,0,1-1.1,1.1h-4.69v4.55h4a1.09,1.09,0,0,1,.79.32,1.1,1.1,0,0,1,0,1.55,1.07,1.07,0,0,1-.79.33h-4v5.73Z"/>
                <path d="M286.86,17.86a1.1,1.1,0,0,1,.47,1.48l-3.77,7.23V33.9a1.08,1.08,0,0,1-1.1,1.1,1.08,1.08,0,0,1-.77-.32,1.09,1.09,0,0,1-.32-.79V26.56l-3.77-7.23a1.09,1.09,0,0,1,1.3-1.55,1.08,1.08,0,0,1,.64.54l2.92,5.6,2.93-5.6a1.08,1.08,0,0,1,.64-.54A1,1,0,0,1,286.86,17.86Z"/>
                <path d="M290.36,33.54A4.77,4.77,0,0,1,288.89,30V22.71a5,5,0,0,1,10,0V30a5,5,0,0,1-8.5,3.52Zm1.55-12.8a2.69,2.69,0,0,0-.82,2V30a2.79,2.79,0,0,0,5.58,0V22.71a2.79,2.79,0,0,0-4.76-2Z"/>
                <path d="M302.4,33.38A5,5,0,0,1,301,29.87v-11a1.08,1.08,0,0,1,1.1-1.1,1.08,1.08,0,0,1,.77.32,1.09,1.09,0,0,1,.32.79V29.91a2.86,2.86,0,0,0,.69,1.9,2.59,2.59,0,0,0,1.75,1,2.71,2.71,0,0,0,2.2-.68,2.67,2.67,0,0,0,.94-2.09V18.83a1.09,1.09,0,0,1,.32-.79,1.1,1.1,0,0,1,1.55,0,1.07,1.07,0,0,1,.33.79V30a5,5,0,0,1-5.21,5A4.73,4.73,0,0,1,302.4,33.38Z"/>
                <path d="M322.67,22.43a4.22,4.22,0,0,1-1.54,3.34,4.25,4.25,0,0,1,1.54,3.34V33.9a1.07,1.07,0,0,1-.33.79,1.1,1.1,0,0,1-1.55,0,1.09,1.09,0,0,1-.32-.79V29.11a2.26,2.26,0,0,0-2.25-2.24h-2.5v7a1.09,1.09,0,0,1-.32.79,1.08,1.08,0,0,1-.77.32,1.08,1.08,0,0,1-1.1-1.1V19a1.05,1.05,0,0,1,.32-.77,1.09,1.09,0,0,1,.79-.32h3.59a4.44,4.44,0,0,1,4.44,4.43Zm-6.94,2.25h2.5a2.26,2.26,0,0,0,2.25-2.25v-.07a2.26,2.26,0,0,0-2.25-2.24h-2.5Z"/>
                <path d="M329.43,24.9a4.74,4.74,0,0,1,3.83,1.85,4.9,4.9,0,0,1,1,4.27,4.78,4.78,0,0,1-1.76,2.87A5,5,0,0,1,329.33,35h0a4.82,4.82,0,0,1-3-1,4.93,4.93,0,0,1-1.77-2.57,1.1,1.1,0,0,1,.16-1,1,1,0,0,1,.89-.46,1,1,0,0,1,1.05.79,2.76,2.76,0,0,0,1,1.44,2.66,2.66,0,0,0,1.68.57h0a2.76,2.76,0,0,0,1.7-.56,2.69,2.69,0,0,0,1-1.48,2.74,2.74,0,0,0-.48-2.46,2.64,2.64,0,0,0-2.13-1.1,4.53,4.53,0,0,1-3.22-1.35,4.31,4.31,0,0,1-1.34-3.2v-.33a4.41,4.41,0,0,1,1.32-3.22,4.31,4.31,0,0,1,3.18-1.32h.07a4.32,4.32,0,0,1,2.64.87,4.46,4.46,0,0,1,1.62,2.21,1.07,1.07,0,0,1-.16,1,1,1,0,0,1-.89.46h0a1,1,0,0,1-1-.74,2.28,2.28,0,0,0-.82-1.12,2.18,2.18,0,0,0-1.34-.45h-.07a2.15,2.15,0,0,0-1.61.68,2.22,2.22,0,0,0-.67,1.63v.36a2.15,2.15,0,0,0,.68,1.61A2.22,2.22,0,0,0,329.43,24.9Z"/>
              </g>
            </g>
          </g>
        </g>
      </g>
    </g>
  </g>
</svg>
