<?xml version="1.0" encoding="UTF-8"?>
<svg width="100px" height="382px" viewBox="0 0 100 382" version="1.1" xmlns="http://www.w3.org/2000/svg" xmlns:xlink="http://www.w3.org/1999/xlink">
    <!-- Generator: Sketch 44.1 (41455) - http://www.bohemiancoding.com/sketch -->
    <title>Group 12</title>
    <desc>Created with Sketch.</desc>
    <defs></defs>
    <g id="Page-1" stroke="none" stroke-width="1" fill="none" fill-rule="evenodd" stroke-linecap="round">
        <g id="Desktop" transform="translate(-844.000000, -562.000000)" stroke="#000000" stroke-width="4">
            <g id="Group-12" transform="translate(846.000000, 564.000000)">
                <g id="Page-1-Copy-10" transform="translate(2.000000, 2.000000)">
                    <path d="M-0.0001,0.0002 L17.9659,17.9662" id="Stroke-1"></path>
                    <path d="M17.9657,0.0002 L-0.0003,17.9662" id="Stroke-3"></path>
                </g>
                <path d="M95.326962,10.663481 C95.326962,16.5530502 90.5530502,21.326962 84.663481,21.326962 C78.7739118,21.326962 74,16.5530502 74,10.663481 C74,4.7739118 78.7739118,0 84.663481,0 C90.5530502,0 95.326962,4.7739118 95.326962,10.663481 Z" id="Page-1-Copy-9"></path>
                <path d="M95.326962,366.663481 C95.326962,372.55305 90.5530502,377.326962 84.663481,377.326962 C78.7739118,377.326962 74,372.55305 74,366.663481 C74,360.773912 78.7739118,356 84.663481,356 C90.5530502,356 95.326962,360.773912 95.326962,366.663481 Z" id="Page-1-Copy-9"></path>
                <path d="M95.326962,188.663481 C95.326962,194.55305 90.5530502,199.326962 84.663481,199.326962 C78.7739118,199.326962 74,194.55305 74,188.663481 C74,182.773912 78.7739118,178 84.663481,178 C90.5530502,178 95.326962,182.773912 95.326962,188.663481 Z" id="Page-1-Copy-9"></path>
                <g id="Page-1" transform="translate(75.326962, 91.000000)">
                    <path d="M-0.0001,0.0002 L17.9659,17.9662" id="Stroke-1"></path>
                    <path d="M17.9657,0.0002 L-0.0003,17.9662" id="Stroke-3"></path>
                </g>
                <path d="M21.326962,99.663481 C21.326962,105.55305 16.5530502,110.326962 10.663481,110.326962 C4.7739118,110.326962 0,105.55305 0,99.663481 C0,93.7739118 4.7739118,89 10.663481,89 C16.5530502,89 21.326962,93.7739118 21.326962,99.663481 Z" id="Page-1-Copy-9"></path>
                <path d="M21.326962,277.663481 C21.326962,283.55305 16.5530502,288.326962 10.663481,288.326962 C4.7739118,288.326962 0,283.55305 0,277.663481 C0,271.773912 4.7739118,267 10.663481,267 C16.5530502,267 21.326962,271.773912 21.326962,277.663481 Z" id="Page-1-Copy-9"></path>
            </g>
        </g>
    </g>
</svg>