<svg xmlns="http://www.w3.org/2000/svg" width="102.97" height="379.97" viewBox="0 0 102.97 379.97">
  <title>design_bg1</title>
  <g id="Layer_2" data-name="Layer 2">
    <g id="Layer_1-2" data-name="Layer 1">
      <g id="Page-1">
        <g id="Desktop">
          <g id="Group-3">
            <g id="Page-1-2" data-name="Page-1">
              <path id="Stroke-1" d="M4,4,22,22" fill="none" stroke="#000" stroke-linecap="round" stroke-width="4"/>
              <path id="Stroke-3" d="M22,4,4,22" fill="none" stroke="#000" stroke-linecap="round" stroke-width="4"/>
            </g>
            <path id="Page-1-3" data-name="Page-1" d="M97.33,12.66A10.66,10.66,0,1,1,86.66,2,10.66,10.66,0,0,1,97.33,12.66Z" fill="none" stroke="#000" stroke-linecap="round" stroke-width="4"/>
            <g id="Page-1-4" data-name="Page-1">
              <path id="Stroke-1-2" data-name="Stroke-1" d="M4,360l18,18" fill="none" stroke="#000" stroke-linecap="round" stroke-width="4"/>
              <path id="Stroke-3-2" data-name="Stroke-3" d="M22,360,4,378" fill="none" stroke="#000" stroke-linecap="round" stroke-width="4"/>
            </g>
            <g id="Page-1-5" data-name="Page-1">
              <path id="Stroke-1-3" data-name="Stroke-1" d="M4,182l18,18" fill="none" stroke="#000" stroke-linecap="round" stroke-width="4"/>
              <path id="Stroke-3-3" data-name="Stroke-3" d="M22,182,4,200" fill="none" stroke="#000" stroke-linecap="round" stroke-width="4"/>
            </g>
            <path id="Page-1-6" data-name="Page-1" d="M23.33,101.66A10.66,10.66,0,1,1,12.66,91,10.66,10.66,0,0,1,23.33,101.66Z" fill="none" stroke="#000" stroke-linecap="round" stroke-width="4"/>
            <g id="Page-1-Copy">
              <path id="Stroke-1-4" data-name="Stroke-1" d="M83,271l18,18" fill="none" stroke="#000" stroke-linecap="round" stroke-width="4"/>
              <path id="Stroke-3-4" data-name="Stroke-3" d="M101,271,83,289" fill="none" stroke="#000" stroke-linecap="round" stroke-width="4"/>
            </g>
          </g>
        </g>
      </g>
    </g>
  </g>
</svg>
