<svg xmlns="http://www.w3.org/2000/svg" width="22" height="28.16" viewBox="0 0 22 28.16">
  <title>dropdown_btn2</title>
  <g id="Layer_2" data-name="Layer 2">
    <g id="Layer_1-2" data-name="Layer 1">
      <g id="Page-1">
        <g id="Mobile">
          <g id="Group-7-Copy-3">
            <rect id="Rectangle-3-Copy" width="22" height="28.16" rx="2" ry="2" fill="#fff"/>
            <g id="_" data-name="+" style="isolation: isolate">
              <g style="isolation: isolate">
                <path d="M14.31,13.17a.91.91,0,0,1,.65.26.9.9,0,0,1,.26.64.9.9,0,0,1-.92.92h-2v2a.91.91,0,0,1-.26.65.9.9,0,0,1-.64.26.9.9,0,0,1-.92-.92V15h-2a.9.9,0,0,1-.92-.92.9.9,0,0,1,.26-.64.91.91,0,0,1,.65-.26h2v-2a.9.9,0,0,1,.92-.92.9.9,0,0,1,.64.26.91.91,0,0,1,.26.65v2Z"/>
              </g>
            </g>
          </g>
        </g>
      </g>
    </g>
  </g>
</svg>
