<svg xmlns="http://www.w3.org/2000/svg" width="67" height="88" viewBox="0 0 67 88">
  <title>feature8</title>
  <g id="Layer_2" data-name="Layer 2">
    <g id="Layer_1-2" data-name="Layer 1">
      <path d="M59,4a4,4,0,0,1,4,4V80a4,4,0,0,1-4,4H8a4,4,0,0,1-4-4V8A4,4,0,0,1,8,4H59m0-4H8A8,8,0,0,0,0,8V80a8,8,0,0,0,8,8H59a8,8,0,0,0,8-8V8a8,8,0,0,0-8-8Z"/>
      <path d="M65.47,74.06h-56V17.57a2.34,2.34,0,0,1,2.34-2.34H65.47Zm-54-2h52V17.23H11.85a.34.34,0,0,0-.34.34Z"/>
      <rect x="10.51" y="21.84" width="53.95" height="2"/>
      <path d="M22.82,33.9H16.18V27.25h6.65Zm-4.65-2h2.65V29.25H18.18Z"/>
      <path d="M22.82,43H16.18V36.35h6.65Zm-4.65-2h2.65V38.35H18.18Z"/>
      <path d="M65.47,74.06H16.18V50.71A3.83,3.83,0,0,1,20,46.88H65.47Zm-47.29-2H63.47V48.88H20a1.83,1.83,0,0,0-1.83,1.83Z"/>
      <rect x="24.8" y="29.57" width="28.67" height="2"/>
      <rect x="24.8" y="38.67" width="22.75" height="2"/>
      <path d="M26.18,57.1H22.37a1.55,1.55,0,0,1-1.54-1.54V51.74a1.55,1.55,0,0,1,1.54-1.54h3.81a1.55,1.55,0,0,1,1.54,1.54v3.81A1.55,1.55,0,0,1,26.18,57.1Zm-3.35-2h2.9V52.2h-2.9Z"/>
      <path d="M28.62,64.79H22.37a1.55,1.55,0,0,1-1.54-1.54V59.44a1.55,1.55,0,0,1,1.54-1.54h6.26a1.55,1.55,0,0,1,1.54,1.54v3.81A1.55,1.55,0,0,1,28.62,64.79Zm-5.8-2h5.34V59.9H22.82Z"/>
      <path d="M30.53,72.49H22.37a1.55,1.55,0,0,1-1.54-1.54V67.14a1.55,1.55,0,0,1,1.54-1.54h8.16a1.55,1.55,0,0,1,1.54,1.54v3.81A1.55,1.55,0,0,1,30.53,72.49Zm-7.7-2h7.25v-2.9H22.82Z"/>
      <path d="M33.87,57.1H30.06a1.55,1.55,0,0,1-1.54-1.54V51.74a1.55,1.55,0,0,1,1.54-1.54h3.81a1.55,1.55,0,0,1,1.54,1.54v3.81A1.55,1.55,0,0,1,33.87,57.1Zm-3.35-2h2.9V52.2h-2.9Z"/>
      <path d="M41.57,57.1H37.76a1.55,1.55,0,0,1-1.54-1.54V51.74a1.55,1.55,0,0,1,1.54-1.54h3.81a1.55,1.55,0,0,1,1.54,1.54v3.81A1.55,1.55,0,0,1,41.57,57.1Zm-3.35-2h2.9V52.2h-2.9Z"/>
      <path d="M36.32,64.79H32.51A1.55,1.55,0,0,1,31,63.25V59.44a1.55,1.55,0,0,1,1.54-1.54h3.81a1.55,1.55,0,0,1,1.54,1.54v3.81A1.55,1.55,0,0,1,36.32,64.79Zm-3.35-2h2.9V59.9H33Z"/>
      <path d="M44,64.79H40.21a1.55,1.55,0,0,1-1.54-1.54V59.44a1.55,1.55,0,0,1,1.54-1.54H44a1.55,1.55,0,0,1,1.54,1.54v3.81A1.55,1.55,0,0,1,44,64.79Zm-3.35-2h2.9V59.9h-2.9Z"/>
      <path d="M51.71,64.79H47.9a1.55,1.55,0,0,1-1.54-1.54V59.44A1.55,1.55,0,0,1,47.9,57.9h3.81a1.55,1.55,0,0,1,1.54,1.54v3.81A1.55,1.55,0,0,1,51.71,64.79Zm-3.35-2h2.9V59.9h-2.9Z"/>
      <path d="M59.41,64.79H55.6a1.55,1.55,0,0,1-1.54-1.54V59.44A1.55,1.55,0,0,1,55.6,57.9h3.81A1.55,1.55,0,0,1,61,59.44v3.81A1.55,1.55,0,0,1,59.41,64.79Zm-3.35-2H59V59.9h-2.9Z"/>
      <path d="M49.26,57.1H45.46a1.55,1.55,0,0,1-1.54-1.54V51.74a1.55,1.55,0,0,1,1.54-1.54h3.81a1.55,1.55,0,0,1,1.54,1.54v3.81A1.55,1.55,0,0,1,49.26,57.1Zm-3.35-2h2.9V52.2h-2.9Z"/>
      <path d="M57,57.1H53.15a1.55,1.55,0,0,1-1.54-1.54V51.74a1.55,1.55,0,0,1,1.54-1.54H57a1.55,1.55,0,0,1,1.54,1.54v3.81A1.55,1.55,0,0,1,57,57.1Zm-3.35-2h2.9V52.2h-2.9Z"/>
      <path d="M38.22,72.49H34.42a1.55,1.55,0,0,1-1.54-1.54V67.14a1.55,1.55,0,0,1,1.54-1.54h3.81a1.55,1.55,0,0,1,1.54,1.54v3.81A1.55,1.55,0,0,1,38.22,72.49Zm-3.35-2h2.9v-2.9h-2.9Z"/>
      <path d="M45.92,72.49H42.11a1.55,1.55,0,0,1-1.54-1.54V67.14a1.55,1.55,0,0,1,1.54-1.54h3.81a1.55,1.55,0,0,1,1.54,1.54v3.81A1.55,1.55,0,0,1,45.92,72.49Zm-3.35-2h2.9v-2.9h-2.9Z"/>
      <path d="M53.61,72.49H49.81a1.55,1.55,0,0,1-1.54-1.54V67.14a1.55,1.55,0,0,1,1.54-1.54h3.81a1.55,1.55,0,0,1,1.54,1.54v3.81A1.55,1.55,0,0,1,53.61,72.49Zm-3.35-2h2.9v-2.9h-2.9Z"/>
      <path d="M61.31,72.49H57.5A1.55,1.55,0,0,1,56,70.94V67.14a1.55,1.55,0,0,1,1.54-1.54h3.81a1.55,1.55,0,0,1,1.54,1.54v3.81A1.55,1.55,0,0,1,61.31,72.49Zm-3.35-2h2.9v-2.9H58Z"/>
      <rect x="13.25" y="18.58" width="1.67" height="2"/>
      <rect x="17.18" y="18.58" width="1.67" height="2"/>
      <rect x="21.1" y="18.58" width="1.67" height="2"/>
    </g>
  </g>
</svg>
