<svg xmlns="http://www.w3.org/2000/svg" width="67" height="88" viewBox="0 0 67 88">
  <title>feature1</title>
  <g id="Layer_2" data-name="Layer 2">
    <g id="Layer_1-2" data-name="Layer 1">
      <g>
        <path d="M59,4a4,4,0,0,1,4,4V80a4,4,0,0,1-4,4H8a4,4,0,0,1-4-4V8A4,4,0,0,1,8,4H59m0-4H8A8,8,0,0,0,0,8V80a8,8,0,0,0,8,8H59a8,8,0,0,0,8-8V8a8,8,0,0,0-8-8Z"/>
        <g>
          <path d="M65.16,52.83l-20.72,12c-2,1.13-3.62,4.35-3.62,7v.58l-6,3.51a2.7,2.7,0,0,1-2.7,0L10.19,63.28a2.7,2.7,0,0,1-1.35-2.33V56.11A2.22,2.22,0,0,1,10,54.19L64.43,22.74M64.56,25,11,55.93a.21.21,0,0,0-.11.18v4.83a.69.69,0,0,0,.35.6L33.07,74.17a.69.69,0,0,0,.69,0l5.07-2.95C39,68,41,64.48,43.44,63.06l21.5-12.42"/>
          <polyline points="65.18 48.96 33.47 67.26 9.43 56.32 10.26 54.5 33.37 65.02 64.95 46.78"/>
          <path d="M64.9,44.78,33.59,63.13l-17.5-8L64.68,26.69m0,2.33L20.42,54.94l13.05,5.94L64.67,42.6"/>
          <polyline points="64.24 33.39 22.73 57.72 21.72 56 64.34 31.02"/>
        </g>
        <rect x="7.18" y="15.83" width="59.47" height="67.77" fill="none"/>
        <g>
          <path d="M27.69,36.5h-2V18a5.48,5.48,0,1,0-11,0V36.5h-2V18a7.48,7.48,0,1,1,15,0Z"/>
          <rect x="12.73" y="22.86" width="14.96" height="2"/>
          <rect x="32.22" y="10.51" width="2" height="25.99"/>
        </g>
      </g>
    </g>
  </g>
</svg>
