<svg xmlns="http://www.w3.org/2000/svg" width="67" height="88" viewBox="0 0 67 88">
  <title>feature2</title>
  <g id="Layer_2" data-name="Layer 2">
    <g id="Layer_1-2" data-name="Layer 1">
      <g>
        <path d="M59,4a4,4,0,0,1,4,4V80a4,4,0,0,1-4,4H8a4,4,0,0,1-4-4V8A4,4,0,0,1,8,4H59m0-4H8A8,8,0,0,0,0,8V80a8,8,0,0,0,8,8H59a8,8,0,0,0,8-8V8a8,8,0,0,0-8-8Z"/>
        <g>
          <g>
            <path d="M58.88,87.07,6.69,56.94a2,2,0,0,1-1-1.69V48.89a2,2,0,0,1,1-1.73l21-12.09,1,1.73-21,12.09v6.37L60.23,85.55"/>
            <polyline points="64.38 82.82 6.22 49.17 7.22 47.44 64.5 80.58"/>
          </g>
          <g>
            <path d="M66.61,58.17,13.7,27.63a2,2,0,0,1,0-3.49L32.63,13.21a2,2,0,0,1,2,0L65,30.75m-.42,2.08-31-17.89L14.7,25.87,64.6,54.71"/>
            <path d="M66.61,59.27l-2.34-1.35L13.7,28.72a2,2,0,0,1,0-3.49l1,1.73L64.77,55.9"/>
            <path d="M64.65,52.85h0l-.86-.5L22.1,28.15a1.89,1.89,0,0,1,0-3.27l.75-.54a1.93,1.93,0,0,1,2-.05L64.15,47.13M23.25,26.51l41.2,23.92,1.13.66.62-.45L64,49.35,23.88,26.06Zm43.1,24.22Z"/>
            <path d="M64.52,40.1,33.6,22.15a1.89,1.89,0,0,1,0-3.27l.75-.54a1.92,1.92,0,0,1,2-.05L64.64,34.73m-.51,2L35.38,20.06l-.62.45L64.69,37.88M34.61,20.42Z"/>
          </g>
          <rect x="15.42" y="33.13" width="2" height="3.2"/>
          <rect x="15.42" y="39.64" width="2" height="3.2"/>
          <rect x="15.42" y="46.14" width="2" height="3.2"/>
          <rect x="31.25" y="42.32" width="2" height="3.2"/>
          <rect x="31.25" y="48.83" width="2" height="3.2"/>
          <rect x="31.25" y="55.33" width="2" height="3.2"/>
          <rect x="47.08" y="51.5" width="2" height="3.2"/>
          <rect x="47.08" y="58.01" width="2" height="3.2"/>
          <rect x="47.08" y="64.52" width="2" height="3.2"/>
        </g>
        <rect x="2.5" y="7.5" width="63" height="78.56" fill="none"/>
      </g>
    </g>
  </g>
</svg>
