<svg xmlns="http://www.w3.org/2000/svg" width="67" height="88" viewBox="0 0 67 88">
  <title>feature7</title>
  <g id="Layer_2" data-name="Layer 2">
    <g id="Layer_1-2" data-name="Layer 1">
      <g>
        <path d="M59,4a4,4,0,0,1,4,4V80a4,4,0,0,1-4,4H8a4,4,0,0,1-4-4V8A4,4,0,0,1,8,4H59m0-4H8A8,8,0,0,0,0,8V80a8,8,0,0,0,8,8H59a8,8,0,0,0,8-8V8a8,8,0,0,0-8-8Z"/>
        <g>
          <path d="M33.57,42.34a2.85,2.85,0,1,0-2.85-2.85A2.85,2.85,0,0,0,33.57,42.34Zm0-3.7a.85.85,0,1,1-.85.85A.85.85,0,0,1,33.57,38.64Z"/>
          <rect x="32.57" y="33.14" width="2" height="2.49"/>
          <rect x="28.96" y="34.63" width="2" height="2.49" transform="translate(-16.59 31.69) rotate(-45)"/>
          <rect x="27.22" y="38.49" width="2.49" height="2"/>
          <rect x="28.71" y="42.1" width="2.49" height="2" transform="translate(-21.7 33.81) rotate(-45)"/>
          <rect x="32.57" y="43.35" width="2" height="2.49"/>
          <rect x="36.18" y="41.86" width="2" height="2.49" transform="translate(-19.59 38.91) rotate(-45)"/>
          <rect x="37.43" y="38.49" width="2.49" height="2"/>
          <rect x="35.94" y="34.88" width="2.49" height="2" transform="translate(-14.48 36.8) rotate(-45)"/>
          <path d="M21.79,84.47l.33-1H45l.33,1h7.12l.33-1H65v-2H53.08V59.22H65v-2H51.5l-1,1.68V33.49l.54-.95V54.1H65v-2H53.08V29.8H65v-2H51.5l-1,1.68V5L51.08,4V25.57H65v-2H53.08V2.83H49.45l-.55,1-.55-1H44.72V23.57H22.42V2.83H18.79l-.55,1-.55-1H14.05V23.57H2.86v2H16.05V4L16.6,5V29.48l-1-1.68H2.86v2H14.05V52.1H2.86v2H16.05V32.54l.54.95V58.9l-1-1.68H2.86v2H14.05v22.3H2.86v2H16.05V62l.54.95V84.47Zm22.92-3H22.42V61.2h22.3Zm5.82-18.62.54-.95V82.35l-.54,1.56Zm-1.27-2.51h.41l-.41.72Zm-.1-28.53-.21.36-.21-.36Zm0,29.34-.31.54-.31-.54ZM46.72,4l.54.95V24.69l-.54-1.56Zm0,28.34.54.95v21l-.54-1.56Zm0,29.61.54.95v21l-.54-1.56Zm-25-36.39H45.45l.71,2H21Zm23,4v22.3H22.42V29.61ZM22.13,53.91H45l1.16,3.31H21ZM19.87,5,20.42,4V23.13l-.54,1.56Zm0,28.34.54-.95V52.74l-.54,1.56Zm0,29.61.54-.95V82.35l-.54,1.56Zm-1.48-31-.21.36L18,31.86Zm.16,29.34-.31.54-.31-.54Zm-.67-.81v.72l-.41-.72Z"/>
        </g>
        <rect x="17.2" y="25.25" width="1.75" height="46"/>
        <rect x="48.2" y="25.67" width="1.77" height="47"/>
      </g>
    </g>
  </g>
</svg>
