<svg xmlns="http://www.w3.org/2000/svg" width="67" height="88" viewBox="0 0 67 88">
  <title>feature4</title>
  <g id="Layer_2" data-name="Layer 2">
    <g id="Layer_1-2" data-name="Layer 1">
      <g>
        <path d="M59,4a4,4,0,0,1,4,4V80a4,4,0,0,1-4,4H8a4,4,0,0,1-4-4V8A4,4,0,0,1,8,4H59m0-4H8A8,8,0,0,0,0,8V80a8,8,0,0,0,8,8H59a8,8,0,0,0,8-8V8a8,8,0,0,0-8-8Z"/>
        <g>
          <path d="M41.66,22A.64.64,0,0,0,42,20.93a1,1,0,0,0-.92-.33.64.64,0,0,0-.38,1.08,1,1,0,0,0,.76.34Zm-.18-1h0a.31.31,0,0,1,.06.16.51.51,0,0,0-.22-.08A.3.3,0,0,1,41.48,21Zm-.2.55a.31.31,0,0,1-.06-.15.51.51,0,0,0,.22.08A.28.28,0,0,1,41.28,21.57Z"/>
          <path d="M39.59,23.45a.64.64,0,0,0-.38,1.08,1,1,0,0,0,.76.34h.16a.64.64,0,0,0,.38-1.08A1,1,0,0,0,39.59,23.45Zm.36.42h0A.31.31,0,0,1,40,24a.51.51,0,0,0-.22-.08A.3.3,0,0,1,39.95,23.87Zm-.2.56a.31.31,0,0,1-.06-.16.51.51,0,0,0,.22.08A.29.29,0,0,1,39.75,24.42Z"/>
          <path d="M45.53,26.56a.64.64,0,0,0,.38-1.08,1,1,0,0,0-.92-.33.64.64,0,0,0-.38,1.08,1,1,0,0,0,.76.34Zm-.18-1h0a.31.31,0,0,1,.06.15.51.51,0,0,0-.22-.08A.3.3,0,0,1,45.35,25.57Zm-.2.55a.31.31,0,0,1-.06-.15.51.51,0,0,0,.22.08A.28.28,0,0,1,45.15,26.13Z"/>
          <path d="M43.46,28a.64.64,0,0,0-.38,1.08,1,1,0,0,0,.76.34H44a.64.64,0,0,0,.38-1.08A1,1,0,0,0,43.46,28Zm.36.42h0a.31.31,0,0,1,.06.16.51.51,0,0,0-.22-.08A.3.3,0,0,1,43.82,28.42Zm-.2.55a.31.31,0,0,1-.06-.15.51.51,0,0,0,.22.08A.28.28,0,0,1,43.62,29Z"/>
          <path d="M49.4,31.11A.64.64,0,0,0,49.78,30a1,1,0,0,0-.92-.33.64.64,0,0,0-.38,1.08,1,1,0,0,0,.76.34Zm-.18-1h0a.31.31,0,0,1,.06.16.51.51,0,0,0-.22-.08A.3.3,0,0,1,49.22,30.13Zm-.2.56a.31.31,0,0,1-.06-.16.51.51,0,0,0,.22.08A.29.29,0,0,1,49,30.69Z"/>
          <path d="M47.33,32.56a.64.64,0,0,0-.39,1.08,1,1,0,0,0,.76.34h.16a.64.64,0,0,0,.38-1.08A1,1,0,0,0,47.33,32.56Zm.36.42h0a.31.31,0,0,1,.06.15.51.51,0,0,0-.22-.08A.3.3,0,0,1,47.68,33Zm-.2.55a.31.31,0,0,1-.06-.15.51.51,0,0,0,.22.08A.28.28,0,0,1,47.49,33.53Z"/>
          <path d="M53.27,35.67a.64.64,0,0,0,.38-1.08,1,1,0,0,0-.92-.33.64.64,0,0,0-.38,1.08,1,1,0,0,0,.76.34Zm-.18-1h0a.3.3,0,0,1,.06.16.51.51,0,0,0-.22-.08A.3.3,0,0,1,53.09,34.69Zm-.2.56a.31.31,0,0,1-.06-.16.51.51,0,0,0,.22.08A.29.29,0,0,1,52.89,35.24Z"/>
          <path d="M51.19,37.12a.64.64,0,0,0-.38,1.08,1,1,0,0,0,.76.34h.16a.64.64,0,0,0,.38-1.08A1,1,0,0,0,51.19,37.12Zm.44.58,0,0,0-.13A.3.3,0,0,1,51.63,37.7Zm-.08-.16,0,.13a.5.5,0,0,0-.17,0A.3.3,0,0,1,51.55,37.54Zm-.2.55a.31.31,0,0,1-.06-.16.51.51,0,0,0,.22.08A.28.28,0,0,1,51.35,38.09Z"/>
          <path d="M31.59,22.33a.64.64,0,0,0-.38,1.08,1,1,0,0,0,.76.34h.16a.64.64,0,0,0,.38-1.08A1,1,0,0,0,31.59,22.33Zm.36.42h0a.31.31,0,0,1,.06.15.51.51,0,0,0-.22-.08A.3.3,0,0,1,32,22.76Zm-.2.55a.31.31,0,0,1-.06-.15.51.51,0,0,0,.22.08A.28.28,0,0,1,31.75,23.31Z"/>
          <path d="M30.06,25.18a.64.64,0,0,0-.38,1.08,1,1,0,0,0,.76.34h.16A.64.64,0,0,0,31,25.51,1,1,0,0,0,30.06,25.18Zm.36.42h0a.31.31,0,0,1,.06.16.51.51,0,0,0-.22-.08A.3.3,0,0,1,30.42,25.61Zm-.2.55a.31.31,0,0,1-.06-.15.51.51,0,0,0,.22.08A.28.28,0,0,1,30.22,26.16Z"/>
          <path d="M35.46,26.89A.64.64,0,0,0,35.08,28a1,1,0,0,0,.76.34H36a.64.64,0,0,0,.38-1.08A1,1,0,0,0,35.46,26.89Zm.36.42h0a.31.31,0,0,1,.06.16.51.51,0,0,0-.22-.08A.3.3,0,0,1,35.82,27.31Zm-.2.56a.31.31,0,0,1-.06-.16.51.51,0,0,0,.22.08A.28.28,0,0,1,35.62,27.87Z"/>
          <path d="M33.93,29.74a.64.64,0,0,0-.38,1.08,1,1,0,0,0,.76.34h.16a.64.64,0,0,0,.38-1.08A1,1,0,0,0,33.93,29.74Zm.36.42h0a.31.31,0,0,1,.06.15.51.51,0,0,0-.22-.08A.3.3,0,0,1,34.29,30.16Zm-.2.55a.31.31,0,0,1-.06-.15.51.51,0,0,0,.22.08A.28.28,0,0,1,34.09,30.72Z"/>
          <path d="M39.33,31.45a.64.64,0,0,0-.38,1.08,1,1,0,0,0,.76.34h.16a.64.64,0,0,0,.38-1.08A1,1,0,0,0,39.33,31.45Zm.44.58,0,0,0-.13A.3.3,0,0,1,39.76,32Zm-.08-.16,0,.13a.5.5,0,0,0-.17,0A.3.3,0,0,1,39.69,31.87Zm-.2.56a.3.3,0,0,1-.06-.16.51.51,0,0,0,.22.08A.29.29,0,0,1,39.49,32.42Z"/>
          <path d="M37.8,34.3a.64.64,0,0,0-.38,1.08,1,1,0,0,0,.76.34h.16a.64.64,0,0,0,.38-1.08A1,1,0,0,0,37.8,34.3Zm.36.42h0a.31.31,0,0,1,.06.15A.51.51,0,0,0,38,34.8.3.3,0,0,1,38.15,34.72Zm-.2.56a.31.31,0,0,1-.06-.16.51.51,0,0,0,.22.08A.28.28,0,0,1,38,35.27Z"/>
          <path d="M43.2,36a.64.64,0,0,0-.38,1.08,1,1,0,0,0,.76.34h.16a.64.64,0,0,0,.38-1.08A1,1,0,0,0,43.2,36Zm.36.42h0a.31.31,0,0,1,.06.16.51.51,0,0,0-.22-.08A.3.3,0,0,1,43.56,36.42Zm-.2.55a.31.31,0,0,1-.06-.15.51.51,0,0,0,.22.08A.28.28,0,0,1,43.36,37Z"/>
          <path d="M41.66,38.85a.64.64,0,0,0-.38,1.08,1,1,0,0,0,.76.34h.16a.64.64,0,0,0,.38-1.08A1,1,0,0,0,41.66,38.85Zm.36.42h0a.31.31,0,0,1,.06.16.51.51,0,0,0-.22-.08A.3.3,0,0,1,42,39.27Zm-.2.56a.31.31,0,0,1-.06-.16.51.51,0,0,0,.22.08A.29.29,0,0,1,41.82,39.83Z"/>
          <path d="M47.06,40.56a.64.64,0,0,0-.38,1.08,1,1,0,0,0,.76.34h.16A.64.64,0,0,0,48,40.89,1,1,0,0,0,47.06,40.56Zm.36.42h0a.31.31,0,0,1,.06.15.51.51,0,0,0-.22-.08A.3.3,0,0,1,47.42,41Zm-.2.55a.31.31,0,0,1-.06-.15.51.51,0,0,0,.22.08A.28.28,0,0,1,47.23,41.53Z"/>
          <path d="M45.53,43.41a.64.64,0,0,0-.38,1.08,1,1,0,0,0,.76.34h.16a.64.64,0,0,0,.38-1.08A1,1,0,0,0,45.53,43.41Zm.36.42h0A.3.3,0,0,1,46,44a.51.51,0,0,0-.22-.08A.3.3,0,0,1,45.89,43.83Zm-.2.55a.3.3,0,0,1-.06-.16.51.51,0,0,0,.22.08A.28.28,0,0,1,45.69,44.38Z"/>
          <path d="M50.93,45.11a.64.64,0,0,0-.38,1.08,1,1,0,0,0,.76.34h.16a.64.64,0,0,0,.38-1.08A1,1,0,0,0,50.93,45.11Zm.36.42h0a.3.3,0,0,1,.06.16.51.51,0,0,0-.22-.08A.31.31,0,0,1,51.29,45.54Zm-.2.55a.3.3,0,0,1-.06-.15.51.51,0,0,0,.22.08A.28.28,0,0,1,51.09,46.09Z"/>
          <path d="M49.4,48A.64.64,0,0,0,49,49a1,1,0,0,0,.77.35h.16a.64.64,0,0,0,.39-1.08A1,1,0,0,0,49.4,48Zm.36.42h0a.3.3,0,0,1,.06.16.51.51,0,0,0-.22-.08A.31.31,0,0,1,49.76,48.39Zm-.2.55a.3.3,0,0,1-.06-.16.51.51,0,0,0,.22.08A.29.29,0,0,1,49.56,48.94Z"/>
          <path d="M54.8,49.67a.64.64,0,0,0-.38,1.08,1,1,0,0,0,.76.34h.16A.64.64,0,0,0,55.72,50,1,1,0,0,0,54.8,49.67Zm.36.42h0a.31.31,0,0,1,.06.16.51.51,0,0,0-.22-.08A.31.31,0,0,1,55.16,50.09Zm-.2.56a.31.31,0,0,1-.06-.16.51.51,0,0,0,.22.08A.29.29,0,0,1,55,50.65Z"/>
          <path d="M53.27,52.52a.64.64,0,0,0-.38,1.08,1,1,0,0,0,.76.34h.16a.64.64,0,0,0,.38-1.08A1,1,0,0,0,53.27,52.52Zm.36.42h0a.3.3,0,0,1,.06.16.51.51,0,0,0-.22-.08A.31.31,0,0,1,53.63,52.94Zm-.2.55a.3.3,0,0,1-.06-.15.51.51,0,0,0,.22.08A.28.28,0,0,1,53.43,53.5Z"/>
          <path d="M58.67,54.23a.64.64,0,0,0-.38,1.08,1,1,0,0,0,.76.34h.16a.64.64,0,0,0,.38-1.07A1,1,0,0,0,58.67,54.23Zm.36.42h0a.3.3,0,0,1,.06.16.51.51,0,0,0-.22-.08A.31.31,0,0,1,59,54.65Zm-.2.56a.3.3,0,0,1-.06-.16.51.51,0,0,0,.22.08A.29.29,0,0,1,58.83,55.2Z"/>
          <path d="M57.14,57.08a.64.64,0,0,0-.38,1.08,1,1,0,0,0,.76.34h.16a.64.64,0,0,0,.38-1.08A1,1,0,0,0,57.14,57.08Zm.36.42h0a.31.31,0,0,1,.06.16.51.51,0,0,0-.22-.08A.31.31,0,0,1,57.49,57.5Zm-.2.56a.31.31,0,0,1-.06-.16.51.51,0,0,0,.22.08A.29.29,0,0,1,57.3,58.06Z"/>
          <path d="M62.54,58.78a.64.64,0,0,0-.38,1.08,1,1,0,0,0,.76.34h.16a.64.64,0,0,0,.38-1.08A1,1,0,0,0,62.54,58.78Zm.36.42h0a.3.3,0,0,1,.06.16.51.51,0,0,0-.22-.08A.31.31,0,0,1,62.89,59.21Zm-.2.55a.3.3,0,0,1-.06-.15.51.51,0,0,0,.22.08A.28.28,0,0,1,62.7,59.76Z"/>
          <path d="M61,61.63a.64.64,0,0,0-.38,1.08,1,1,0,0,0,.76.34h.16A.64.64,0,0,0,61.93,62,1,1,0,0,0,61,61.63Zm.44.58,0,0,0-.13A.3.3,0,0,1,61.44,62.22Zm-.08-.16,0,.12a.5.5,0,0,0-.16,0A.3.3,0,0,1,61.36,62.06Zm-.2.55a.3.3,0,0,1-.06-.16.51.51,0,0,0,.22.08A.29.29,0,0,1,61.16,62.61Z"/>
          <path d="M59.69,85.33,9.22,25.89h1L60.65,85.33h2.62L37.52,55l5.46,2,8,9.42,10.78,3.85L67,76.41V73.31l-4.07-4.8L52.15,64.66l-8-9.42-9.22-3.3-1.13-1.33,11.42,4.08,8,9.48,10.55,3.77L67,71.7V68.61l-2-2.37L54.44,62.47l-8-9.48L31.21,47.56l-21-24.68,6.21-1.13,5.08,6-.95,2.65L35.57,48l1.53-1.29L22.87,30l.95-2.65-5.08-6,1.54-.28,6.45,7.6L25.68,31.6,41.42,50.14l1.53-1.29-15-17.67L29,28.24l-6.45-7.6L41.39,17.2a1.94,1.94,0,0,1,1.55.44L59,36.51,55.9,45.07,67,58.15V55.06l-8.83-10.4,2.28-6.38,2.14,2.52-1.68,4.69L67,52.66V49.57l-3.82-4.5.9-2.52L67,46V42.89L44.47,16.35A3.89,3.89,0,0,0,41,15.24L9.77,20.93a2,2,0,0,0-1.65,1.23,1.76,1.76,0,0,0,.38,1.75l0,0a2,2,0,0,0-1.48,1.18,1.76,1.76,0,0,0,.38,1.75L57.06,85.33Z"/>
        </g>
        <rect x="2.7" y="4.5" width="60.44" height="80.83" fill="none"/>
      </g>
    </g>
  </g>
</svg>
