<svg xmlns="http://www.w3.org/2000/svg" width="67" height="88" viewBox="0 0 67 88">
  <title>feature12</title>
  <g id="Layer_2" data-name="Layer 2">
    <g id="Layer_1-2" data-name="Layer 1">
      <g>
        <path d="M59,4a4,4,0,0,1,4,4V80a4,4,0,0,1-4,4H8a4,4,0,0,1-4-4V8A4,4,0,0,1,8,4H59m0-4H8A8,8,0,0,0,0,8V80a8,8,0,0,0,8,8H59a8,8,0,0,0,8-8V8a8,8,0,0,0-8-8Z"/>
        <g>
          <path d="M24.6,17.36a3,3,0,0,1-2.17-.9l-.63-.63a3.08,3.08,0,0,1,0-4.34l2.55-2.55a3.15,3.15,0,0,1,4.34,0l.63.63a3.08,3.08,0,0,1,0,4.34l-2.55,2.55A3,3,0,0,1,24.6,17.36ZM26.52,10a1.06,1.06,0,0,0-.76.31l-2.56,2.56a1.08,1.08,0,0,0,0,1.51l.63.63a1.1,1.1,0,0,0,1.51,0l2.55-2.56a1.08,1.08,0,0,0,0-1.51l-.63-.63A1.06,1.06,0,0,0,26.52,10Z"/>
          <path d="M29,43.33H18.79a8.31,8.31,0,0,1-8.3-8.3V26.71a8.31,8.31,0,0,1,8.3-8.3H19.9a1.82,1.82,0,0,1,1.82,1.82.87.87,0,0,0,.87.87h2.6a.87.87,0,0,0,.87-.87,1.82,1.82,0,0,1,1.82-1.82H29a8.31,8.31,0,0,1,7.61,5,2.11,2.11,0,0,1-.17,2,2.08,2.08,0,0,1-1.74.94,2.8,2.8,0,0,0-2.79,2.79v3.43a2.8,2.8,0,0,0,2.79,2.79,2.08,2.08,0,0,1,1.74.94,2.12,2.12,0,0,1,.17,2A8.31,8.31,0,0,1,29,43.33ZM18.79,20.4a6.31,6.31,0,0,0-6.3,6.3V35a6.31,6.31,0,0,0,6.3,6.3H29a6.31,6.31,0,0,0,5.78-3.81.11.11,0,0,0,0-.11l-.07,0a4.8,4.8,0,0,1-4.79-4.79V29.16a4.8,4.8,0,0,1,4.79-4.79c.09-.07.09-.11.08-.15A6.31,6.31,0,0,0,29,20.4H28a2.87,2.87,0,0,1-2.86,2.68h-2.6a2.87,2.87,0,0,1-2.86-2.68Z"/>
        </g>
        <g>
          <path d="M27.58,62.26a3,3,0,0,1-3-3v-6.8a3,3,0,0,1,2.59-3l8.58-1.21a3,3,0,0,1,3.44,3v7.92a3,3,0,0,1-3,3l-8.58.09Zm8.58-12H36l-8.58,1.21a1,1,0,0,0-.87,1v6.8a1,1,0,0,0,1,1h0l8.58-.09a1,1,0,0,0,1-1V51.23a1,1,0,0,0-1-1Z"/>
          <path d="M41.8,62.11a3,3,0,0,1-3-3V50.43a3,3,0,0,1,2.59-3l12.74-1.8a3,3,0,0,1,3.44,3V59a3,3,0,0,1-3,3l-12.75.14ZM54.55,47.61h-.15l-12.74,1.8a1,1,0,0,0-.87,1v8.66a1,1,0,0,0,.3.72,1,1,0,0,0,.72.29L54.56,60a1,1,0,0,0,1-1V48.63a1,1,0,0,0-1-1Z"/>
          <path d="M36.16,75.58a2.93,2.93,0,0,1-.41,0l-8.58-1.18a3,3,0,0,1-2.6-3V64.58a3,3,0,0,1,3-3h0l8.58,0a3,3,0,0,1,3,3v8a3,3,0,0,1-3,3Zm-8.58-12a1,1,0,0,0-1,1v6.81a1,1,0,0,0,.88,1L36,73.57a1,1,0,0,0,.81-.24,1,1,0,0,0,.35-.77v-8a1,1,0,0,0-1-1l-8.58,0Z"/>
          <path d="M54.55,78.11l-.41,0L41.39,76.33a3,3,0,0,1-2.6-3V64.64a3,3,0,0,1,3-3h0l12.74.05a3,3,0,0,1,3,3V75.1a3,3,0,0,1-3,3ZM41.81,63.62a1,1,0,0,0-1,1v8.71a1,1,0,0,0,.88,1L54.41,76.1a1,1,0,0,0,.81-.24,1,1,0,0,0,.35-.76V64.69a1,1,0,0,0-1-1l-12.74-.05Z"/>
        </g>
        <polygon points="49.18 41.5 47.18 41.5 47.18 30.5 41.73 30.5 41.73 28.5 49.18 28.5 49.18 41.5"/>
        <polygon points="21.9 62.26 15.73 62.26 15.73 48.17 17.73 48.17 17.73 60.26 21.9 60.26 21.9 62.26"/>
      </g>
    </g>
  </g>
</svg>
