<svg xmlns="http://www.w3.org/2000/svg" width="67" height="88" viewBox="0 0 67 88">
  <title>feature14</title>
  <g id="Layer_2" data-name="Layer 2">
    <g id="Layer_1-2" data-name="Layer 1">
      <g>
        <path d="M59,4a4,4,0,0,1,4,4V80a4,4,0,0,1-4,4H8a4,4,0,0,1-4-4V8A4,4,0,0,1,8,4H59m0-4H8A8,8,0,0,0,0,8V80a8,8,0,0,0,8,8H59a8,8,0,0,0,8-8V8a8,8,0,0,0-8-8Z"/>
        <g>
          <g>
            <path d="M21.78,66.64a3.36,3.36,0,0,1-1.68-.45l-12-6.91a3.36,3.36,0,0,1,0-5.82l5.51-3.18a1,1,0,1,1,1,1.73L9.14,55.2a1.36,1.36,0,0,0,0,2.35l12,6.91a1.36,1.36,0,0,0,1.36,0l12-6.91a1.36,1.36,0,0,0,0-2.35l-6.11-3.53a1,1,0,1,1,1-1.73l6.11,3.53a3.36,3.36,0,0,1,0,5.82l-12,6.91A3.36,3.36,0,0,1,21.78,66.64Z"/>
            <path d="M21.78,62a2.28,2.28,0,0,1-1.14-.3l-4.18-2.41a1,1,0,1,1,1-1.73L21.64,60a.28.28,0,0,0,.28,0l6.5-3.75a.28.28,0,0,0,0-.49L24.8,53.67a1,1,0,1,1,1-1.73L29.43,54a2.28,2.28,0,0,1,0,4l-6.5,3.75A2.28,2.28,0,0,1,21.78,62Z"/>
            <path d="M14,56.71l-.23,0a1,1,0,0,1-.74-1.2A2.25,2.25,0,0,1,14.14,54l3.08-1.78a1,1,0,1,1,1,1.73l-3.08,1.78a.26.26,0,0,0-.13.17A1,1,0,0,1,14,56.71Z"/>
            <path d="M21.78,75.91a3.36,3.36,0,0,1-1.68-.45l-12-6.91a3.32,3.32,0,0,1-1.65-2.46.93.93,0,0,1,0-.13l0-9.5a1,1,0,0,1,1-1h0a1,1,0,0,1,1,1l0,9.42a1.32,1.32,0,0,0,.66.94l12,6.91a1.36,1.36,0,0,0,1.36,0l12-6.91a1.32,1.32,0,0,0,.66-1l0-9.48a1,1,0,0,1,1-1h0a1,1,0,0,1,1,1l0,9.55a.92.92,0,0,1,0,.12,3.33,3.33,0,0,1-1.66,2.51l-12,6.91A3.36,3.36,0,0,1,21.78,75.91Z"/>
            <path d="M21.78,75.91a1,1,0,0,1-1-1V65.64a1,1,0,0,1,2,0v9.26A1,1,0,0,1,21.78,75.91Z"/>
          </g>
          <path d="M17,64.23a1,1,0,0,1-1-1V58l-2.49-1.44v4.08a1,1,0,0,1-2,0V54.82A1,1,0,0,1,13,54l4.49,2.59a1,1,0,0,1,.5.87v5.81A1,1,0,0,1,17,64.23Z"/>
          <path d="M32.08,53.59a1,1,0,0,1-1-1V48.9a1,1,0,0,1,2,0v3.69A1,1,0,0,1,32.08,53.59Z"/>
          <path d="M21.57,59.37a5,5,0,0,1-2.46-.61,2.18,2.18,0,0,1,0-4,5.29,5.29,0,0,1,4.92,0,2.18,2.18,0,0,1,0,4A5,5,0,0,1,21.57,59.37Zm0-3.21a3,3,0,0,0-1.46.34.71.71,0,0,0-.31.28,1.11,1.11,0,0,0,.31.25A3.33,3.33,0,0,0,23,57h0a.7.7,0,0,0,.31-.28,1,1,0,0,0-.31-.25A3,3,0,0,0,21.57,56.15Z"/>
          <path d="M18.8,60.52a1,1,0,0,1-1-1V56.76a1,1,0,0,1,2,0v2.76A1,1,0,0,1,18.8,60.52Z"/>
          <path d="M24.35,60.77a1,1,0,0,1-1-1v-3a1,1,0,0,1,2,0v3A1,1,0,0,1,24.35,60.77Z"/>
        </g>
        <g>
          <path d="M22.77,56.54a1,1,0,0,1-1-1,.83.83,0,0,1,0-.09,24.59,24.59,0,0,0-2.88.29,1,1,0,0,1-.35-2,23.45,23.45,0,0,1,6.07-.23,1.41,1.41,0,0,1,.19,2.76A8.15,8.15,0,0,1,22.77,56.54Z"/>
          <path d="M22.77,57.72a1,1,0,0,1-1-1,.83.83,0,0,1,0-.09,24.59,24.59,0,0,0-2.88.29,1,1,0,0,1-.35-2,23.36,23.36,0,0,1,6.07-.23,1.41,1.41,0,0,1,.19,2.76A8.09,8.09,0,0,1,22.77,57.72Z"/>
          <path d="M22.77,58.9a1,1,0,0,1-1-1,.85.85,0,0,1,0-.09,24.71,24.71,0,0,0-2.88.29,1,1,0,0,1-.35-2,23.36,23.36,0,0,1,6.07-.23,1.41,1.41,0,0,1,.19,2.76A8.12,8.12,0,0,1,22.77,58.9Z"/>
        </g>
        <path d="M35.37,35.1,38,44.81a1,1,0,0,1-.48,1L22.31,54.56a2.13,2.13,0,0,1-1.91.08L6,46.33a.56.56,0,0,1-.33-.51L20,37.31Z" fill="none"/>
        <g>
          <path d="M21.29,44.43a2.43,2.43,0,0,1-1.2-.29l-12-6.93a1.46,1.46,0,0,1-.78-1.27,1.62,1.62,0,0,1,.89-1.39l8.15-4.71,1,1.73L9.84,35.9l11.25,6.5a.87.87,0,0,0,.6-.07l12.14-7-8.14-4.71,1-1.73L35.59,34a1.46,1.46,0,0,1,.78,1.27,1.62,1.62,0,0,1-.89,1.39L22.69,44.07A2.84,2.84,0,0,1,21.29,44.43Z"/>
          <rect x="1.96" y="39.98" width="10.06" height="2" transform="translate(-34.36 36.66) rotate(-74.36)"/>
          <rect x="20.57" y="43.66" width="2" height="11.41"/>
          <path d="M21.18,55.83a2.7,2.7,0,0,1-1.34-.33L5.46,47.2a1.55,1.55,0,0,1-.83-1.45l2,.14a.5.5,0,0,0-.17-.43l14.39,8.31a1.2,1.2,0,0,0,.92-.08L36.93,45l-2.57-9.6,1.93-.52,2.6,9.71a2,2,0,0,1-.94,2.13L22.76,55.42A3.19,3.19,0,0,1,21.18,55.83Z"/>
          <g>
            <rect x="20.78" y="30.27" width="2" height="6.06"/>
            <path d="M24.09,38.82l-2.31-1.33-2.31,1.33-3.46-2V29.6l1.31-.75L17,28.67a1.33,1.33,0,0,1,0-2.31l1.79-1a1.34,1.34,0,0,1,1.33,0l1.64.95,1.64-.95a1.33,1.33,0,0,1,1.33,0l1.8,1a1.33,1.33,0,0,1,0,2.31l-.31.18,1.31.76v7.22Zm-2.31-3.64,2.31,1.33,1.46-.84V30.75l-3.31-1.91,2.31-1.33-.46-.27-2.31,1.33-2.31-1.33-.46.27,2.31,1.33L18,30.75v4.91l1.46.84Zm3.77-7.09h0Zm-7.54,0h0Zm5.74-1h0Z"/>
            <polygon points="20.47 37.66 18.47 37.66 18.47 32.17 16.51 31.04 17.51 29.31 20.47 31.02 20.47 37.66"/>
            <polygon points="25.09 37.66 23.09 37.66 23.09 31.02 26.05 29.31 27.05 31.04 25.09 32.17 25.09 37.66"/>
            <polygon points="23.59 32.46 21.78 31.42 19.97 32.46 18.97 30.73 21.78 29.11 24.59 30.73 23.59 32.46"/>
            <path d="M17,27.51" fill="none" stroke="#000" stroke-miterlimit="10" stroke-width="2"/>
            <rect x="16.37" y="27.51" width="2" height="2.52"/>
            <rect x="25.19" y="27.51" width="2" height="2.52"/>
          </g>
        </g>
        <g>
          <g>
            <g>
              <path d="M45.38,53.66a3.36,3.36,0,0,1-1.68-.45l-9-5.21a1,1,0,1,1,1-1.73l9,5.21a1.36,1.36,0,0,0,1.36,0l12-6.91a1.36,1.36,0,0,0,0-2.35L51.92,38.7a1,1,0,1,1,1-1.73L59,40.49a3.36,3.36,0,0,1,0,5.82l-12,6.91A3.36,3.36,0,0,1,45.38,53.66Z"/>
              <path d="M45.38,49.07a2.28,2.28,0,0,1-1.14-.3l-4.18-2.41a1,1,0,1,1,1-1.73L45.24,47a.28.28,0,0,0,.28,0L52,43.28a.28.28,0,0,0,0-.49L48.4,40.7a1,1,0,1,1,1-1.73L53,41.06a2.28,2.28,0,0,1,0,4l-6.5,3.75A2.28,2.28,0,0,1,45.38,49.07Z"/>
              <path d="M37.64,43.73l-.23,0a1,1,0,0,1-.74-1.2,2.25,2.25,0,0,1,1.08-1.45l3.08-1.78a1,1,0,1,1,1,1.73l-3.08,1.78a.26.26,0,0,0-.13.17A1,1,0,0,1,37.64,43.73Z"/>
              <path d="M45.38,62.93a3.36,3.36,0,0,1-1.68-.45l-7.91-4.57a1,1,0,1,1,1-1.73l7.91,4.57a1.36,1.36,0,0,0,1.36,0l12-6.91a1.32,1.32,0,0,0,.66-1l0-9.48a1,1,0,0,1,1-1h0a1,1,0,0,1,1,1l0,9.55a.91.91,0,0,1,0,.12A3.32,3.32,0,0,1,59,55.57l-12,6.91A3.36,3.36,0,0,1,45.38,62.93Z"/>
              <path d="M45.38,62.93a1,1,0,0,1-1-1V52.67a1,1,0,0,1,2,0v9.26A1,1,0,0,1,45.38,62.93Z"/>
            </g>
            <path d="M40.57,51.25a1,1,0,0,1-1-1V45l-3-1.74a1,1,0,1,1,1-1.73l3.51,2a1,1,0,0,1,.5.87v5.81A1,1,0,0,1,40.57,51.25Z"/>
            <path d="M55.68,40.61a1,1,0,0,1-1-1V35.93a1,1,0,0,1,2,0v3.69A1,1,0,0,1,55.68,40.61Z"/>
            <path d="M45.17,46.39a5,5,0,0,1-2.46-.61,2.18,2.18,0,0,1,0-4,5.29,5.29,0,0,1,4.92,0,2.18,2.18,0,0,1,0,4A5,5,0,0,1,45.17,46.39Zm0-3.21a3,3,0,0,0-1.46.34.72.72,0,0,0-.31.28,1.1,1.1,0,0,0,.31.25,3.34,3.34,0,0,0,2.92,0h0a.71.71,0,0,0,.31-.28,1.08,1.08,0,0,0-.31-.25A3,3,0,0,0,45.17,43.18Z"/>
            <path d="M42.4,47.55a1,1,0,0,1-1-1V43.78a1,1,0,0,1,2,0v2.76A1,1,0,0,1,42.4,47.55Z"/>
            <path d="M47.95,47.79a1,1,0,0,1-1-1v-3a1,1,0,0,1,2,0v3A1,1,0,0,1,47.95,47.79Z"/>
          </g>
          <g>
            <path d="M46.37,43.56a1,1,0,0,1-1-1,.85.85,0,0,1,0-.09,24.24,24.24,0,0,0-2.88.29,1,1,0,0,1-.35-2,23.28,23.28,0,0,1,6.07-.23,1.41,1.41,0,0,1,.19,2.76A8.09,8.09,0,0,1,46.37,43.56Z"/>
            <path d="M46.37,44.74a1,1,0,0,1-1-1,.87.87,0,0,1,0-.09,24.33,24.33,0,0,0-2.88.29,1,1,0,0,1-.35-2,23.3,23.3,0,0,1,6.07-.23,1.41,1.41,0,0,1,.19,2.76A8.12,8.12,0,0,1,46.37,44.74Z"/>
            <path d="M46.37,45.92a1,1,0,0,1-1-1,.85.85,0,0,1,0-.09,24.36,24.36,0,0,0-2.88.29,1,1,0,1,1-.35-2,23.32,23.32,0,0,1,6.07-.23,1.41,1.41,0,0,1,.19,2.76A8.13,8.13,0,0,1,46.37,45.92Z"/>
          </g>
          <path d="M59,22.12l2.6,9.71a1,1,0,0,1-.48,1L45.91,41.58a2.13,2.13,0,0,1-1.91.08L29.61,33.36a.56.56,0,0,1-.33-.51l14.34-8.51Z" fill="none"/>
          <g>
            <path d="M44.89,31.45a2.43,2.43,0,0,1-1.2-.29l-12-6.93A1.45,1.45,0,0,1,30.9,23a1.62,1.62,0,0,1,.89-1.39l8.15-4.71,1,1.73-7.51,4.33,11.25,6.5a.87.87,0,0,0,.6-.07l12.14-7-8.14-4.72,1-1.73,8.9,5.15A1.45,1.45,0,0,1,60,22.32a1.62,1.62,0,0,1-.89,1.39L46.29,31.09A2.83,2.83,0,0,1,44.89,31.45Z"/>
            <rect x="26.31" y="26.43" width="8.86" height="2" transform="translate(-3.96 49.63) rotate(-74.34)"/>
            <rect x="44.17" y="30.68" width="2" height="11.41"/>
            <path d="M44.78,42.85a2.69,2.69,0,0,1-1.34-.33l-8.08-4.69,1-1.73,8.08,4.69a1.22,1.22,0,0,0,.91-.08L60.53,32,58,22.38l1.93-.52,2.6,9.71a2,2,0,0,1-.94,2.13L46.36,42.45A3.2,3.2,0,0,1,44.78,42.85Z"/>
            <g>
              <rect x="44.38" y="17.29" width="2" height="6.06"/>
              <path d="M47.69,25.84l-2.31-1.33-2.31,1.33-3.46-2V16.62l1.31-.76-.31-.18a1.33,1.33,0,0,1,0-2.31l1.8-1a1.34,1.34,0,0,1,1.33,0l1.64.95L47,12.34a1.34,1.34,0,0,1,1.33,0l1.8,1a1.33,1.33,0,0,1,0,2.31l-.31.18,1.31.76v7.22ZM45.38,22.2l2.31,1.33,1.46-.84V17.78l-3.31-1.91,2.31-1.33-.46-.27L45.38,15.6l-2.31-1.33-.46.27,2.31,1.33-3.31,1.91v4.91l1.46.84Z"/>
              <polygon points="44.08 24.69 42.08 24.69 42.08 19.2 40.11 18.07 41.11 16.33 44.08 18.04 44.08 24.69"/>
              <polygon points="48.69 24.69 46.69 24.69 46.69 18.04 49.65 16.33 50.65 18.07 48.69 19.2 48.69 24.69"/>
              <polygon points="47.19 19.49 45.38 18.44 43.58 19.49 42.58 17.75 45.38 16.13 48.19 17.75 47.19 19.49"/>
              <path d="M40.61,14.53" fill="none" stroke="#000" stroke-miterlimit="10" stroke-width="2"/>
              <rect x="39.97" y="14.54" width="2" height="2.52"/>
              <rect x="48.79" y="14.54" width="2" height="2.52"/>
            </g>
          </g>
        </g>
      </g>
    </g>
  </g>
</svg>
