<svg xmlns="http://www.w3.org/2000/svg" width="67" height="88" viewBox="0 0 67 88">
  <title>feature13</title>
  <g id="Layer_2" data-name="Layer 2">
    <g id="Layer_1-2" data-name="Layer 1">
      <g>
        <path d="M59,4a4,4,0,0,1,4,4V80a4,4,0,0,1-4,4H8a4,4,0,0,1-4-4V8A4,4,0,0,1,8,4H59m0-4H8A8,8,0,0,0,0,8V80a8,8,0,0,0,8,8H59a8,8,0,0,0,8-8V8a8,8,0,0,0-8-8Z"/>
        <g>
          <g>
            <path d="M3.31,63.81V62.09c0-.92-.28-1.42-.54-1.57s-.74,0-1,.16L.81,59a2.89,2.89,0,0,1,3-.16,3,3,0,0,1,1.3,1.71l1.42-.81V54.07L1.41,51.75l.83-1.82L8.5,52.78v8.08Z"/>
            <rect x="1.64" y="53.99" width="6.28" height="2" transform="translate(-26.85 9.75) rotate(-29.99)"/>
            <path d="M1.83,53.42" fill="none" stroke="#000" stroke-miterlimit="10" stroke-width="2"/>
            <rect x="1.88" y="61.74" width="2.61" height="2" transform="translate(-30.94 10) rotate(-29.99)"/>
          </g>
          <g>
            <path d="M6.13,87l-1-1.73L25.68,73.43a2.89,2.89,0,0,1,3-.16A3,3,0,0,1,30,75l1.42-.81V68.55L15.23,61.2,2.56,68.52l-1-1.73L15.12,59l18.25,8.31v8.07l-5.18,3V76.57c0-.93-.28-1.42-.54-1.57s-.74,0-1,.16Z"/>
            <rect x="2.29" y="74.96" width="32.24" height="2" transform="translate(-35.51 19.38) rotate(-29.99)"/>
            <polygon points="2.93 82.99 1.92 81.27 24.53 68.02 15.62 63.96 2.56 71.61 1.55 69.88 15.5 61.71 28.87 67.79 2.93 82.99"/>
            <rect x="11.8" y="80.23" width="18.64" height="2" transform="translate(-37.78 21.44) rotate(-29.99)"/>
          </g>
          <g>
            <path d="M2.56,31.51l-1-1.73,22.7-13.11a2.89,2.89,0,0,1,3-.16,3,3,0,0,1,1.3,1.71L30,17.41V11.78L13.81,4.44,2.73,10.83l-1-1.73,12-6.91L32,10.5v8.07l-5.18,3V19.81c0-.93-.28-1.42-.54-1.57s-.74,0-1,.16Z"/>
            <rect x="-0.18" y="18.48" width="33.37" height="2" transform="translate(-7.53 10.86) rotate(-29.99)"/>
            <polygon points="2.33 25.75 1.32 24.02 23.11 11.25 14.2 7.19 2.56 14.01 1.55 12.29 14.08 4.94 27.45 11.03 2.33 25.75"/>
            <rect x="0.07" y="26.23" width="29.69" height="2" transform="translate(-11.62 11.1) rotate(-29.99)"/>
          </g>
          <g>
            <path d="M14.77,57a2.23,2.23,0,0,1-1.12-.3L1.33,49.57l1-1.73L14.65,55a.24.24,0,0,0,.24,0l3.57-2.08a8.16,8.16,0,0,1,3.48-6l27.19-15.7a2.89,2.89,0,0,1,3-.16,3,3,0,0,1,1.3,1.71l1.42-.81V26.26L38.69,18.92l-36.36,21-1-1.73L38.58,16.67,56.83,25V33l-5.19,3V34.29c0-.93-.28-1.42-.54-1.57s-.74,0-1,.16L22.94,48.58a6.21,6.21,0,0,0-2.51,4.88V54l-4.54,2.64A2.24,2.24,0,0,1,14.77,57Z"/>
            <polygon points="14.82 50.45 1.19 44.24 2.02 42.42 14.71 48.2 55.33 24.75 56.33 26.48 14.82 50.45"/>
            <path d="M14.91,47.44,1.54,41.35,39,19.42l13.37,6.08Zm-9-6.31,8.92,4.06L48,25.73l-8.92-4.06Z"/>
            <rect x="16.86" y="42.87" width="38.35" height="2" transform="translate(-17.11 23.89) rotate(-29.99)"/>
          </g>
          <g>
            <path d="M39.64,71.46a2.23,2.23,0,0,1-1.12-.3l-16-9.21A2.24,2.24,0,0,1,21.45,60V56.49a1.89,1.89,0,0,1,.94-1.63L63.45,31.15l1.92.87-.83,1.82-1-.45L23.45,56.55V60a.24.24,0,0,0,.12.2l16,9.21a.23.23,0,0,0,.23,0l3.58-2.08a8.16,8.16,0,0,1,3.48-6L64.55,51.08l1,1.73L47.81,63.06a6.21,6.21,0,0,0-2.51,4.88v.58l-4.54,2.64A2.22,2.22,0,0,1,39.64,71.46Z"/>
            <polygon points="39.7 64.93 22.03 56.89 22.86 55.06 39.59 62.68 65.19 47.9 66.19 49.63 39.7 64.93"/>
            <polygon points="39.78 61.91 26.41 55.83 63.38 34.16 64.39 35.89 30.75 55.61 39.67 59.66 64.51 45.1 65.52 46.83 39.78 61.91"/>
            <rect x="42.7" y="60.96" width="23.92" height="2" transform="translate(-23.65 35.62) rotate(-29.99)"/>
          </g>
          <g>
            <path d="M38.22,14.7a2.23,2.23,0,0,1-1.12-.3l-16-9.21A2.24,2.24,0,0,1,20,3.25V1.59h2V3.25a.23.23,0,0,0,.12.2l16,9.21a.24.24,0,0,0,.24,0l3.57-2.08a8.16,8.16,0,0,1,3.48-6l5.91-3.41,1,1.73L46.39,6.29a6.21,6.21,0,0,0-2.51,4.88v.58l-4.54,2.64A2.23,2.23,0,0,1,38.22,14.7Z"/>
            <polygon points="38.28 8.16 26.29 2.71 27.11 0.89 38.17 5.92 46.82 0.92 47.82 2.65 38.28 8.16"/>
            <polygon points="38.36 5.15 32.54 2.5 33.37 0.68 38.25 2.9 41.96 0.73 42.97 2.45 38.36 5.15"/>
            <rect x="41.67" y="5.64" width="18.14" height="2" transform="translate(3.48 26.26) rotate(-29.99)"/>
          </g>
          <g>
            <path d="M63.09,29.18a2.23,2.23,0,0,1-1.12-.3L46,19.66a2.24,2.24,0,0,1-1.12-1.94V14.2a1.89,1.89,0,0,1,.94-1.63l16.3-9.41,1,1.73L46.9,14.27v3.46a.24.24,0,0,0,.12.2l16,9.21a.24.24,0,0,0,.24,0l1.39-.81,1,1.73-1.39.81A2.23,2.23,0,0,1,63.09,29.18Z"/>
            <polygon points="63.15 22.64 45.49 14.6 46.32 12.78 63.04 20.4 64.79 19.39 65.79 21.12 63.15 22.64"/>
            <polygon points="63.24 19.63 49.87 13.54 64.1 5.21 65.11 6.93 54.2 13.32 63.12 17.38 64.85 16.37 65.86 18.09 63.24 19.63"/>
          </g>
          <g>
            <polygon points="20.53 86.73 19.53 85 40 73.18 58.25 81.48 58.25 85.53 56.25 85.53 56.25 82.77 40.11 75.43 20.53 86.73"/>
            <rect x="49.73" y="83.14" width="8.06" height="2" transform="translate(-34.87 38.14) rotate(-29.99)"/>
            <polygon points="24.89 87.32 23.88 85.6 40.37 75.93 53.74 82.02 46.41 86.32 45.4 84.59 49.41 82.24 40.49 78.18 24.89 87.32"/>
          </g>
          <g>
            <path d="M64.51,85.69a2.23,2.23,0,0,1-1.12-.3l-16-9.21a2.24,2.24,0,0,1-1.12-1.94V70.71a1.89,1.89,0,0,1,.94-1.63l17.1-9.87,1,1.73-17,9.84v3.46a.23.23,0,0,0,.12.2l16,9.21a.24.24,0,0,0,.24,0l1,1.73A2.24,2.24,0,0,1,64.51,85.69Z"/>
            <rect x="54.92" y="64.67" width="2" height="18.89" transform="translate(-34.7 94.3) rotate(-65.53)"/>
            <polygon points="64.18 75.93 51.29 70.06 64.81 62.13 65.82 63.85 55.62 69.83 65.01 74.11 64.18 75.93"/>
          </g>
        </g>
      </g>
    </g>
  </g>
</svg>
