<svg xmlns="http://www.w3.org/2000/svg" width="67" height="88" viewBox="0 0 67 88">
  <title>feature3</title>
  <g id="Layer_2" data-name="Layer 2">
    <g id="Layer_1-2" data-name="Layer 1">
      <g>
        <path d="M59,4a4,4,0,0,1,4,4V80a4,4,0,0,1-4,4H8a4,4,0,0,1-4-4V8A4,4,0,0,1,8,4H59m0-4H8A8,8,0,0,0,0,8V80a8,8,0,0,0,8,8H59a8,8,0,0,0,8-8V8a8,8,0,0,0-8-8Z"/>
        <g>
          <path d="M66.11,21.35h-54A4.66,4.66,0,0,0,7.45,26V62a4.66,4.66,0,0,0,4.66,4.66H64.93M31.37,35a2.43,2.43,0,1,0-3.44,3.44l-2.85,2.85v-7.7a.89.89,0,0,1,.89-.89h7.7Zm-2.17,1.71a.44.44,0,1,1,.44.44A.44.44,0,0,1,29.19,36.75Zm-4.12,7.41,5-5A2.44,2.44,0,0,0,32,37.21l4.46-4.46h6.61l-18,18Zm4.56,6.65a.44.44,0,1,1-.44.44A.44.44,0,0,1,29.63,50.81ZM25.07,53.6l2.15-2.15a2.43,2.43,0,1,0,2.62-2.62L45.92,32.75h6.61L30,55.25H26a.89.89,0,0,1-.89-.89Zm39.69-4.71H50.34a1.14,1.14,0,0,1-1.14-1.14v-7.5a1.14,1.14,0,0,1,1.14-1.14H65.26m-.08-2H60.42l4.37-4.37h1.32m-8.51,4.37H51l4.37-4.37H62ZM47.21,40.89V47.5l-7.75,7.75H32.85Zm.67,8.77a3.12,3.12,0,0,0,2.47,1.22h2.92l-4.37,4.37H42.28Zm8.21,1.22h6.61l-4.37,4.37H51.72Zm8.68,4.37H61.15l4.37-4.37m.59-20.14H26a2.89,2.89,0,0,0-2.89,2.89V54.37A2.89,2.89,0,0,0,26,57.25H64.76m0,7.39H12.11A2.66,2.66,0,0,1,9.45,62V26a2.66,2.66,0,0,1,2.66-2.66h54"/>
          <path d="M65.11,25.83H16.51a1,1,0,1,0,0,2H65.11a1,1,0,0,0,0-2Z"/>
          <path d="M15.51,61a1,1,0,0,0,1,1H65.11a1,1,0,0,0,0-2H16.51A1,1,0,0,0,15.51,61Z"/>
        </g>
        <rect x="2.18" y="9.5" width="62.93" height="69.75" fill="none"/>
      </g>
    </g>
  </g>
</svg>
