<svg xmlns="http://www.w3.org/2000/svg" width="67" height="88" viewBox="0 0 67 88">
  <title>feature5</title>
  <g id="Layer_2" data-name="Layer 2">
    <g id="Layer_1-2" data-name="Layer 1">
      <g>
        <path d="M59,4a4,4,0,0,1,4,4V80a4,4,0,0,1-4,4H8a4,4,0,0,1-4-4V8A4,4,0,0,1,8,4H59m0-4H8A8,8,0,0,0,0,8V80a8,8,0,0,0,8,8H59a8,8,0,0,0,8-8V8a8,8,0,0,0-8-8Z"/>
        <path d="M66.37,76.89,9.84,44.19a2.57,2.57,0,0,1-1.16-2.13V28.76a2,2,0,0,1,.9-1.8,1.72,1.72,0,0,1,1.76.06L65.58,58.55ZM10.68,28.95V42.06a.69.69,0,0,0,.18.41L64.21,73.33l-.59-13.61Z"/>
        <path d="M65,24.66,43.15,12.1H41.48a2,2,0,0,1,.9-1.8,1.72,1.72,0,0,1,1.76.06L66,22.93Z"/>
        <path d="M22.45,43.6,12.36,37.78V31.34l10.08,5.82Zm-8.08-7,6.08,3.51V38.31L14.36,34.8Z"/>
        <path d="M66.29,76.85,28,54.64V50a3.48,3.48,0,0,1,1.48-3.17A2.79,2.79,0,0,1,32.3,47l34,19.69ZM30,53.49,64.29,73.38V67.83l-33-19.11c-.21-.12-.6-.3-.86-.15S30,49.15,30,50Z"/>
        <rect x="8.09" y="18.45" width="37.32" height="2" transform="translate(-5.88 14.09) rotate(-26.69)"/>
        <polygon points="32.56 84.33 1.88 66.61 1.88 68.92 28.56 84.33 32.56 84.33"/>
        <polygon points="43.08 84.33 1.88 60.54 1.88 62.85 39.08 84.33 43.08 84.33"/>
        <polygon points="22.04 84.33 1.88 72.69 1.88 75 18.04 84.33 22.04 84.33"/>
        <polygon points="11.52 84.33 1.88 78.76 1.88 81.07 7.52 84.33 11.52 84.33"/>
        <path d="M65.29,75.17v-.42L17,47.14a58,58,0,0,0-9.52,4.35,44.39,44.39,0,0,0-5.58,3.8v2.63c.26-.23.51-.46.78-.68L49.6,84.33h4L4.36,55.9q1.42-1,3-2L60.13,84.33h4L9.37,52.72q1.69-.93,3.48-1.75L65.29,81.24V78.93L15.14,50q1.94-.79,4-1.47Z"/>
      </g>
    </g>
  </g>
</svg>
