<svg xmlns="http://www.w3.org/2000/svg" width="67" height="88" viewBox="0 0 67 88">
  <title>feature16</title>
  <g id="Layer_2" data-name="Layer 2">
    <g id="Layer_1-2" data-name="Layer 1">
      <g>
        <path d="M59,4a4,4,0,0,1,4,4V80a4,4,0,0,1-4,4H8a4,4,0,0,1-4-4V8A4,4,0,0,1,8,4H59m0-4H8A8,8,0,0,0,0,8V80a8,8,0,0,0,8,8H59a8,8,0,0,0,8-8V8a8,8,0,0,0-8-8Z"/>
        <rect x="10.63" y="48.5" width="45.33" height="2"/>
        <path d="M12.84,47.66A1,1,0,0,1,12.09,46c1-1.15,2-2.32,3-3.52a6.53,6.53,0,0,1-1.76-2.31,10,10,0,0,1-.28-5.93,37.23,37.23,0,0,1,4.22-11.52,13,13,0,0,1,3.2-4A3.58,3.58,0,0,1,24.16,18a3.53,3.53,0,0,1,1.78,2.28,11.22,11.22,0,0,1,.16,5.13c-1,6.14-4.26,11.67-8,16.56a7.18,7.18,0,0,0,1.59.44,12.8,12.8,0,0,0,6.94-1,9.49,9.49,0,0,1,1.11-10.64c1.19-1.41,3.37-2.81,5.6-2.16,2.51.74,3.56,3.64,3.09,5.9a10.08,10.08,0,0,1-3.56,5.28,21.53,21.53,0,0,1-3.25,2.34,7.08,7.08,0,0,0,.75.68,5,5,0,0,0,5.67.58,12.63,12.63,0,0,0,4.5-5.67,1,1,0,0,1,1.91.43c0,1.19.31,3,1,3.33.19.09,1,.24,2.77-1.39,2.44-2.19,4.58-3.09,6.37-2.69a3.72,3.72,0,0,1,2.52,2.07,1,1,0,1,1-1.85.77,1.71,1.71,0,0,0-1.14-.89c-1.09-.23-2.71.56-4.57,2.23s-3.6,2.34-4.95,1.72a3.45,3.45,0,0,1-1.69-2.09A12.25,12.25,0,0,1,37,45.13a7,7,0,0,1-7.93-.73,9.47,9.47,0,0,1-1.36-1.3,14.92,14.92,0,0,1-8.4,1.28,9,9,0,0,1-2.55-.8c-1.06,1.3-2.14,2.55-3.21,3.75A1,1,0,0,1,12.84,47.66ZM23,19.75a2.42,2.42,0,0,0-1.3.56A11.2,11.2,0,0,0,19,23.71a35.26,35.26,0,0,0-4,10.9,8.26,8.26,0,0,0,.14,4.75,4.53,4.53,0,0,0,1.18,1.56c3.73-4.78,6.8-10,7.76-15.84A9,9,0,0,0,24,20.87a1.69,1.69,0,0,0-.71-1.06A.74.74,0,0,0,23,19.75Zm9.13,10.71a4.19,4.19,0,0,0-2.9,1.62,7.66,7.66,0,0,0-1.73,5.61,7.56,7.56,0,0,0,.9,2.84,19.47,19.47,0,0,0,3.13-2.23,7.92,7.92,0,0,0,2.91-4.18c.28-1.37-.34-3.18-1.7-3.58A2.15,2.15,0,0,0,32.14,30.45Z"/>
        <g>
          <path d="M18.43,63.88a1,1,0,0,1-.71-.29l-7.8-7.8a1,1,0,1,1,1.41-1.41l7.8,7.8a1,1,0,0,1-.71,1.71Z"/>
          <path d="M10.63,63.88a1,1,0,0,1-.71-1.71l7.8-7.8a1,1,0,0,1,1.41,1.41l-7.8,7.8A1,1,0,0,1,10.63,63.88Z"/>
        </g>
        <path d="M27.55,64.52A5.53,5.53,0,1,1,33.08,59,5.54,5.54,0,0,1,27.55,64.52Zm0-9.07A3.53,3.53,0,1,0,31.08,59,3.54,3.54,0,0,0,27.55,55.45Z"/>
      </g>
    </g>
  </g>
</svg>
