<svg xmlns="http://www.w3.org/2000/svg" width="67" height="88" viewBox="0 0 67 88">
  <title>feature15</title>
  <g id="Layer_2" data-name="Layer 2">
    <g id="Layer_1-2" data-name="Layer 1">
      <g>
        <path d="M59,4a4,4,0,0,1,4,4V80a4,4,0,0,1-4,4H8a4,4,0,0,1-4-4V8A4,4,0,0,1,8,4H59m0-4H8A8,8,0,0,0,0,8V80a8,8,0,0,0,8,8H59a8,8,0,0,0,8-8V8a8,8,0,0,0-8-8Z"/>
        <g>
          <g>
            <path d="M31.32,70a2.43,2.43,0,0,1-1.22-.33L11.61,59a2.44,2.44,0,0,1-1.21-2.11V52.8a2,2,0,0,1,1-1.75l47.5-27.43,6.39,2.91-.83,1.82L59,25.87,12.41,52.78v4.11a.43.43,0,0,0,.22.37L31.1,67.93a.43.43,0,0,0,.43,0l4.21-2.45a9.29,9.29,0,0,1,4-6.94L64.58,44.19l1,1.73L40.71,60.28a7.37,7.37,0,0,0-3,5.79v.58l-5.18,3A2.44,2.44,0,0,1,31.32,70Z"/>
            <polygon points="31.37 62.4 10.98 53.12 11.81 51.3 31.26 60.15 64.57 40.92 65.57 42.66 31.37 62.4"/>
            <polygon points="31.47 58.91 16.34 52.02 59.35 26.81 65.61 29.66 64.78 31.48 59.47 29.06 20.67 51.8 31.36 56.66 64.47 37.25 65.48 38.98 31.47 58.91"/>
            <polygon points="22.36 54.3 21.35 52.57 59.35 30.3 65.56 33.13 64.73 34.95 59.47 32.55 22.36 54.3"/>
            <rect x="58.41" y="27.94" width="2" height="3.49"/>
          </g>
          <polygon points="31.47 75.33 16.34 68.44 23.6 64.19 24.61 65.91 20.67 68.22 31.36 73.08 65.03 53.34 66.04 55.07 31.47 75.33"/>
          <rect x="18.96" y="72.74" width="2" height="2.77"/>
          <rect x="18.27" y="74.52" width="3.38" height="2"/>
          <rect x="30.47" y="77.92" width="2" height="2.77"/>
          <rect x="29.78" y="79.69" width="3.38" height="2"/>
          <rect x="30.47" y="14.65" width="2" height="2.77"/>
          <rect x="29.78" y="13.65" width="3.38" height="2"/>
          <rect x="18.96" y="19.56" width="2" height="2.77"/>
          <rect x="18.27" y="18.56" width="3.38" height="2"/>
          <g>
            <path d="M30.72,36.75l-1.56.9c-.11.06-.1.18,0,.25l1.5.86a.49.49,0,0,0,.44,0l1.56-.9c.11-.06.1-.18,0-.25l-1.5-.86A.49.49,0,0,0,30.72,36.75Z"/>
            <path d="M29.19,34.73,26.65,36.2c-.11.06-.1.18,0,.25l1.5.86a.49.49,0,0,0,.44,0l2.54-1.47c.11-.06.1-.18,0-.25l-1.5-.86A.49.49,0,0,0,29.19,34.73Z"/>
            <path d="M63.46,14.95l-3.19,1.84c-.11.06-.1.18,0,.25l1.5.86a.49.49,0,0,0,.44,0l3.19-1.84c.11-.06.1-.18,0-.25L63.9,15A.49.49,0,0,0,63.46,14.95Z"/>
            <path d="M21.66,30.38l-2.54,1.47c-.11.06-.1.18,0,.25l1.5.86a.49.49,0,0,0,.44,0l2.54-1.47c.11-.06.1-.18,0-.25l-1.5-.86A.49.49,0,0,0,21.66,30.38Z"/>
            <path d="M27.45,32.84l-3.3,1.91c-.11.06-.1.18,0,.25l1.5.86a.49.49,0,0,0,.44,0L29.41,34c.11-.06.1-.18,0-.25l-1.5-.86A.49.49,0,0,0,27.45,32.84Z"/>
            <path d="M25.7,30.95,21.63,33.3c-.11.06-.1.18,0,.25l1.5.86a.49.49,0,0,0,.44,0l4.07-2.35c.11-.06.1-.18,0-.25L26.14,31A.49.49,0,0,0,25.7,30.95Z"/>
            <path d="M55.93,13.5l-4.07,2.35c-.11.06-.1.18,0,.25l1.5.86a.49.49,0,0,0,.44,0l4.07-2.35c.11-.06.1-.18,0-.25l-1.5-.86A.49.49,0,0,0,55.93,13.5Z"/>
            <path d="M60.95,13.5,56,16.35c-.11.06-.1.18,0,.25l1.5.86a.49.49,0,0,0,.44,0l4.94-2.85c.11-.06.1-.18,0-.25l-1.5-.86A.49.49,0,0,0,60.95,13.5Z"/>
            <path d="M33.23,35.3l-1.56.9c-.11.06-.1.18,0,.25l1.5.86a.49.49,0,0,0,.44,0l1.56-.9c.11-.06.1-.18,0-.25l-1.5-.86A.49.49,0,0,0,33.23,35.3Z"/>
            <path d="M35.74,33.85l-1.56.9c-.11.06-.1.18,0,.25l1.5.86a.49.49,0,0,0,.44,0L37.7,35c.11-.06.1-.18,0-.25l-1.5-.86A.49.49,0,0,0,35.74,33.85Z"/>
            <path d="M31.7,33.28l-1.56.9c-.11.06-.1.18,0,.25l1.5.86a.49.49,0,0,0,.44,0l1.56-.9c.11-.06.1-.18,0-.25l-1.5-.86A.49.49,0,0,0,31.7,33.28Z"/>
            <path d="M25.16,28.37l-2.54,1.47c-.11.06-.1.18,0,.25l1.5.86a.49.49,0,0,0,.44,0l2.54-1.47c.11-.06.1-.18,0-.25l-1.5-.86A.49.49,0,0,0,25.16,28.37Z"/>
            <path d="M43.93,17.53,26.11,27.82c-.11.06-.1.18,0,.25l1.5.86a.49.49,0,0,0,.44,0L45.89,18.66c.11-.06.1-.18,0-.25l-1.5-.86A.49.49,0,0,0,43.93,17.53Z"/>
            <path d="M50.91,13.5,48.37,15c-.11.06-.1.18,0,.25l1.5.86a.49.49,0,0,0,.44,0l2.54-1.47c.11-.06.1-.18,0-.25l-1.5-.86A.49.49,0,0,0,50.91,13.5Z"/>
            <path d="M34.21,31.83l-1.56.9c-.11.06-.1.18,0,.25l1.5.86a.49.49,0,0,0,.44,0l1.56-.9c.11-.06.1-.18,0-.25l-1.5-.86A.49.49,0,0,0,34.21,31.83Z"/>
            <path d="M36.72,30.38l-1.56.9c-.11.06-.1.18,0,.25l1.5.86a.49.49,0,0,0,.44,0l1.56-.9c.11-.06.1-.18,0-.25l-1.5-.86A.49.49,0,0,0,36.72,30.38Z"/>
            <path d="M39.23,28.93l-1.56.9c-.11.06-.1.18,0,.25l1.5.86a.49.49,0,0,0,.44,0l1.56-.9c.11-.06.1-.18,0-.25L39.67,29A.49.49,0,0,0,39.23,28.93Z"/>
            <path d="M41.74,27.48l-1.56.9c-.11.06-.1.18,0,.25l1.5.86a.49.49,0,0,0,.44,0l1.56-.9c.11-.06.1-.18,0-.25l-1.5-.86A.49.49,0,0,0,41.74,27.48Z"/>
            <path d="M44.25,26l-1.56.9c-.11.06-.1.18,0,.25l1.5.86a.49.49,0,0,0,.44,0l1.56-.9c.11-.06.1-.18,0-.25l-1.5-.86A.49.49,0,0,0,44.25,26Z"/>
            <path d="M46.76,24.59l-1.56.9c-.11.06-.1.18,0,.25l1.5.86a.49.49,0,0,0,.44,0l1.56-.9c.11-.06.1-.18,0-.25l-1.5-.86A.49.49,0,0,0,46.76,24.59Z"/>
            <path d="M49.27,23.14l-1.56.9c-.11.06-.1.18,0,.25l1.5.86a.49.49,0,0,0,.44,0l1.56-.9c.11-.06.1-.18,0-.25l-1.5-.86A.49.49,0,0,0,49.27,23.14Z"/>
            <path d="M51.78,21.69l-1.56.9c-.11.06-.1.18,0,.25l1.5.86a.49.49,0,0,0,.44,0l1.56-.9c.11-.06.1-.18,0-.25l-1.5-.86A.49.49,0,0,0,51.78,21.69Z"/>
            <path d="M54.29,20.24l-1.56.9c-.11.06-.1.18,0,.25l1.5.86a.49.49,0,0,0,.44,0l1.56-.9c.11-.06.1-.18,0-.25l-1.5-.86A.49.49,0,0,0,54.29,20.24Z"/>
            <path d="M56.8,18.79l-1.56.9c-.11.06-.1.18,0,.25l1.5.86a.49.49,0,0,0,.44,0l1.56-.9c.11-.06.1-.18,0-.25l-1.5-.86A.49.49,0,0,0,56.8,18.79Z"/>
            <path d="M59.31,17.34l-1.56.9c-.11.06-.1.18,0,.25l1.5.86a.49.49,0,0,0,.44,0l1.56-.9c.11-.06.1-.18,0-.25l-1.5-.86A.49.49,0,0,0,59.31,17.34Z"/>
            <path d="M38.25,32.4l-1.56.9c-.11.06-.1.18,0,.25l1.5.86a.49.49,0,0,0,.44,0l1.56-.9c.11-.06.1-.18,0-.25l-1.5-.86A.49.49,0,0,0,38.25,32.4Z"/>
            <path d="M40.76,30.95l-1.56.9c-.11.06-.1.18,0,.25l1.5.86a.49.49,0,0,0,.44,0l1.56-.9c.11-.06.1-.18,0-.25L41.2,31A.49.49,0,0,0,40.76,30.95Z"/>
            <path d="M43.27,29.5l-1.56.9c-.11.06-.1.18,0,.25l1.5.86a.49.49,0,0,0,.44,0l1.56-.9c.11-.06.1-.18,0-.25l-1.5-.86A.49.49,0,0,0,43.27,29.5Z"/>
            <path d="M45.78,28.05l-1.56.9c-.11.06-.1.18,0,.25l1.5.86a.49.49,0,0,0,.44,0l1.56-.9c.11-.06.1-.18,0-.25l-1.5-.86A.49.49,0,0,0,45.78,28.05Z"/>
            <path d="M48.29,26.6l-1.56.9c-.11.06-.1.18,0,.25l1.5.86a.49.49,0,0,0,.44,0l1.56-.9c.11-.06.1-.18,0-.25l-1.5-.86A.49.49,0,0,0,48.29,26.6Z"/>
            <path d="M50.8,25.15l-1.56.9c-.11.06-.1.18,0,.25l1.5.86a.49.49,0,0,0,.44,0l1.56-.9c.11-.06.1-.18,0-.25l-1.5-.86A.49.49,0,0,0,50.8,25.15Z"/>
            <path d="M53.31,23.7l-1.56.9c-.11.06-.1.18,0,.25l1.5.86a.49.49,0,0,0,.44,0l1.56-.9c.11-.06.1-.18,0-.25l-1.5-.86A.49.49,0,0,0,53.31,23.7Z"/>
            <path d="M55.82,22.25l-1.56.9c-.11.06-.1.18,0,.25l1.5.86a.49.49,0,0,0,.44,0l1.56-.9c.11-.06.1-.18,0-.25l-1.5-.86A.49.49,0,0,0,55.82,22.25Z"/>
            <path d="M58.33,20.81l-1.56.9c-.11.06-.1.18,0,.25l1.5.86a.49.49,0,0,0,.44,0l1.56-.9c.11-.06.1-.18,0-.25l-1.5-.86A.49.49,0,0,0,58.33,20.81Z"/>
            <path d="M60.84,19.36l-1.56.9c-.11.06-.1.18,0,.25l1.5.86a.49.49,0,0,0,.44,0l1.56-.9c.11-.06.1-.18,0-.25l-1.5-.86A.49.49,0,0,0,60.84,19.36Z"/>
            <path d="M63.46,12l-1.56.9c-.11.06-.1.18,0,.25l1.5.86a.49.49,0,0,0,.44,0l1.56-.9c.11-.06.1-.18,0-.25l-1.5-.86A.49.49,0,0,0,63.46,12Z"/>
            <path d="M60.95,10.6l-1.56.9c-.11.06-.1.18,0,.25l1.5.86a.49.49,0,0,0,.44,0l1.56-.9c.11-.06.1-.18,0-.25l-1.5-.86A.49.49,0,0,0,60.95,10.6Z"/>
            <path d="M58.44,12l-1.56.9c-.11.06-.1.18,0,.25l1.5.86a.49.49,0,0,0,.44,0l1.56-.9c.11-.06.1-.18,0-.25l-1.5-.86A.49.49,0,0,0,58.44,12Z"/>
            <path d="M58.44,9.15l-1.56.9c-.11.06-.1.18,0,.25l1.5.86a.49.49,0,0,0,.44,0l1.56-.9c.11-.06.1-.18,0-.25l-1.5-.86A.49.49,0,0,0,58.44,9.15Z"/>
            <path d="M55.93,10.6l-1.56.9c-.11.06-.1.18,0,.25l1.5.86a.49.49,0,0,0,.44,0l1.56-.9c.11-.06.1-.18,0-.25l-1.5-.86A.49.49,0,0,0,55.93,10.6Z"/>
            <path d="M65,16.94l-3.17,1.87c-.11.06-.1.18,0,.25l1.5.86a.49.49,0,0,0,.44,0l3.17-1.87c.11-.06.1-.18,0-.25L65.4,17A.49.49,0,0,0,65,16.94Z"/>
            <path d="M53.42,12l-1.56.9c-.11.06-.1.18,0,.25l1.5.86a.49.49,0,0,0,.44,0l1.56-.9c.11-.06.1-.18,0-.25l-1.5-.86A.49.49,0,0,0,53.42,12Z"/>
            <path d="M47.42,15.51,44.88,17c-.11.06-.1.18,0,.25l1.5.86a.49.49,0,0,0,.44,0l2.54-1.47c.11-.06.1-.18,0-.25l-1.5-.86A.49.49,0,0,0,47.42,15.51Z"/>
            <path d="M30,31.39l-1.56.9c-.11.06-.1.18,0,.25l1.5.86a.49.49,0,0,0,.44,0l1.56-.9c.11-.06.1-.18,0-.25l-1.5-.86A.49.49,0,0,0,30,31.39Z"/>
            <path d="M32.47,29.94l-1.56.9c-.11.06-.1.18,0,.25l1.5.86a.49.49,0,0,0,.44,0l1.56-.9c.11-.06.1-.18,0-.25L32.9,30A.49.49,0,0,0,32.47,29.94Z"/>
            <path d="M35,28.49l-1.56.9c-.11.06-.1.18,0,.25l1.5.86a.49.49,0,0,0,.44,0l1.56-.9c.11-.06.1-.18,0-.25l-1.5-.86A.49.49,0,0,0,35,28.49Z"/>
            <path d="M37.49,27l-1.56.9c-.11.06-.1.18,0,.25l1.5.86a.49.49,0,0,0,.44,0l1.56-.9c.11-.06.1-.18,0-.25l-1.5-.86A.49.49,0,0,0,37.49,27Z"/>
            <path d="M40,25.59l-1.56.9c-.11.06-.1.18,0,.25l1.5.86a.49.49,0,0,0,.44,0l1.56-.9c.11-.06.1-.18,0-.25l-1.5-.86A.49.49,0,0,0,40,25.59Z"/>
            <path d="M42.51,24.14l-1.56.9c-.11.06-.1.18,0,.25l1.5.86a.49.49,0,0,0,.44,0l1.56-.9c.11-.06.1-.18,0-.25l-1.5-.86A.49.49,0,0,0,42.51,24.14Z"/>
            <path d="M45,22.7l-1.56.9c-.11.06-.1.18,0,.25l1.5.86a.49.49,0,0,0,.44,0l1.56-.9c.11-.06.1-.18,0-.25l-1.5-.86A.49.49,0,0,0,45,22.7Z"/>
            <path d="M47.53,21.25l-1.56.9c-.11.06-.1.18,0,.25l1.5.86a.49.49,0,0,0,.44,0l1.56-.9c.11-.06.1-.18,0-.25L48,21.26A.49.49,0,0,0,47.53,21.25Z"/>
            <path d="M50,19.8l-1.56.9c-.11.06-.1.18,0,.25l1.5.86a.49.49,0,0,0,.44,0l1.56-.9c.11-.06.1-.18,0-.25l-1.5-.86A.49.49,0,0,0,50,19.8Z"/>
            <path d="M52.55,18.35l-1.56.9c-.11.06-.1.18,0,.25l1.5.86a.49.49,0,0,0,.44,0l1.56-.9c.11-.06.1-.18,0-.25L53,18.37A.49.49,0,0,0,52.55,18.35Z"/>
            <path d="M55.06,16.9l-1.56.9c-.11.06-.1.18,0,.25l1.5.86a.49.49,0,0,0,.44,0L57,18c.11-.06.1-.18,0-.25l-1.5-.86A.49.49,0,0,0,55.06,16.9Z"/>
            <path d="M28.21,29.5l-1.56.9c-.11.06-.1.18,0,.25l1.5.86a.49.49,0,0,0,.44,0l1.56-.9c.11-.06.1-.18,0-.25l-1.5-.86A.49.49,0,0,0,28.21,29.5Z"/>
            <path d="M30.72,28.05l-1.56.9c-.11.06-.1.18,0,.25l1.5.86a.49.49,0,0,0,.44,0l1.56-.9c.11-.06.1-.18,0-.25l-1.5-.86A.49.49,0,0,0,30.72,28.05Z"/>
            <path d="M33.23,26.6l-1.56.9c-.11.06-.1.18,0,.25l1.5.86a.49.49,0,0,0,.44,0l1.56-.9c.11-.06.1-.18,0-.25l-1.5-.86A.49.49,0,0,0,33.23,26.6Z"/>
            <path d="M35.74,25.15l-1.56.9c-.11.06-.1.18,0,.25l1.5.86a.49.49,0,0,0,.44,0l1.56-.9c.11-.06.1-.18,0-.25l-1.5-.86A.49.49,0,0,0,35.74,25.15Z"/>
            <path d="M38.25,23.7l-1.56.9c-.11.06-.1.18,0,.25l1.5.86a.49.49,0,0,0,.44,0l1.56-.9c.11-.06.1-.18,0-.25l-1.5-.86A.49.49,0,0,0,38.25,23.7Z"/>
            <path d="M40.76,22.25l-1.56.9c-.11.06-.1.18,0,.25l1.5.86a.49.49,0,0,0,.44,0l1.56-.9c.11-.06.1-.18,0-.25l-1.5-.86A.49.49,0,0,0,40.76,22.25Z"/>
            <path d="M43.27,20.81l-1.56.9c-.11.06-.1.18,0,.25l1.5.86a.49.49,0,0,0,.44,0l1.56-.9c.11-.06.1-.18,0-.25l-1.5-.86A.49.49,0,0,0,43.27,20.81Z"/>
            <path d="M45.78,19.36l-1.56.9c-.11.06-.1.18,0,.25l1.5.86a.49.49,0,0,0,.44,0l1.56-.9c.11-.06.1-.18,0-.25l-1.5-.86A.49.49,0,0,0,45.78,19.36Z"/>
            <path d="M48.29,17.91l-1.56.9c-.11.06-.1.18,0,.25l1.5.86a.49.49,0,0,0,.44,0l1.56-.9c.11-.06.1-.18,0-.25l-1.5-.86A.49.49,0,0,0,48.29,17.91Z"/>
            <path d="M50.8,16.46l-1.56.9c-.11.06-.1.18,0,.25l1.5.86a.49.49,0,0,0,.44,0l1.56-.9c.11-.06.1-.18,0-.25l-1.5-.86A.49.49,0,0,0,50.8,16.46Z"/>
          </g>
        </g>
      </g>
    </g>
  </g>
</svg>
