<svg xmlns="http://www.w3.org/2000/svg" width="67" height="88" viewBox="0 0 67 88">
  <title>feature9</title>
  <g id="Layer_2" data-name="Layer 2">
    <g id="Layer_1-2" data-name="Layer 1">
      <g>
        <path d="M59,4a4,4,0,0,1,4,4V80a4,4,0,0,1-4,4H8a4,4,0,0,1-4-4V8A4,4,0,0,1,8,4H59m0-4H8A8,8,0,0,0,0,8V80a8,8,0,0,0,8,8H59a8,8,0,0,0,8-8V8a8,8,0,0,0-8-8Z"/>
        <g>
          <path d="M47.3,81.92a3.67,3.67,0,0,1-1.83-.49L11,61.53a3.68,3.68,0,0,1-1.83-3.18V50.73a2.92,2.92,0,0,1,1.45-2.52l53-30.61,1,1.73-53,30.61a.91.91,0,0,0-.46.79v7.62A1.67,1.67,0,0,0,12,59.79L46.47,79.7a1.68,1.68,0,0,0,1.67,0l8.25-4.8c.22-5,3.21-10.52,7-12.7l1,1.73c-3.31,1.91-6,7.09-6,11.55v.58l-9.24,5.37A3.68,3.68,0,0,1,47.3,81.92Z"/>
          <polygon points="47.36 67.66 9.75 50.54 10.57 48.72 47.25 65.42 65.05 55.15 66.05 56.88 47.36 67.66"/>
          <polygon points="47.55 61.16 21.25 49.18 63.8 24.24 64.81 25.97 25.58 48.96 47.43 58.91 63.75 49.34 64.76 51.06 47.55 61.16"/>
          <rect x="26.77" y="40.25" width="42.21" height="2" transform="translate(-14.29 29.89) rotate(-30.4)"/>
        </g>
        <path d="M20.58,21.88H17.46A4.44,4.44,0,0,1,13,17.44V14.69a4.44,4.44,0,0,1,4.44-4.44h3.13A4.44,4.44,0,0,1,25,14.69v2.75A4.44,4.44,0,0,1,20.58,21.88Zm-3.12-9.63A2.44,2.44,0,0,0,15,14.69v2.75a2.44,2.44,0,0,0,2.44,2.44h3.13A2.44,2.44,0,0,0,23,17.44V14.69a2.44,2.44,0,0,0-2.44-2.44Z"/>
        <path d="M29.62,15.88H28.44a2.3,2.3,0,0,1-2.29-2.29v-1a2.3,2.3,0,0,1,2.29-2.29h1.18a2.3,2.3,0,0,1,2.29,2.29v1A2.3,2.3,0,0,1,29.62,15.88Zm-1.18-3.62a.29.29,0,0,0-.29.29v1a.29.29,0,0,0,.29.29h1.18a.29.29,0,0,0,.29-.29v-1a.29.29,0,0,0-.29-.29Z"/>
        <path d="M20.58,31.53H17.46A4.44,4.44,0,0,1,13,27.09V24.34a4.44,4.44,0,0,1,4.44-4.44h3.13A4.44,4.44,0,0,1,25,24.34v2.75A4.44,4.44,0,0,1,20.58,31.53ZM17.46,21.9A2.44,2.44,0,0,0,15,24.34v2.75a2.44,2.44,0,0,0,2.44,2.44h3.13A2.44,2.44,0,0,0,23,27.09V24.34a2.44,2.44,0,0,0-2.44-2.44Z"/>
        <path d="M52.64,19.38H37a1.38,1.38,0,0,1-.6-2.62L51.57,9.23,52.46,11,39.69,17.38h13Zm-15.31-.83h0Z"/>
        <path d="M46.64,19l-1.49-1.34a1.73,1.73,0,0,0,.49-1.45,2.34,2.34,0,0,0-1.4-1.5L45.16,13a4.15,4.15,0,0,1,2.45,2.91A3.71,3.71,0,0,1,46.64,19Z"/>
      </g>
    </g>
  </g>
</svg>
