<svg xmlns="http://www.w3.org/2000/svg" width="67" height="88" viewBox="0 0 67 88">
  <title>feature11</title>
  <g id="Layer_2" data-name="Layer 2">
    <g id="Layer_1-2" data-name="Layer 1">
      <g>
        <path d="M59,4a4,4,0,0,1,4,4V80a4,4,0,0,1-4,4H8a4,4,0,0,1-4-4V8A4,4,0,0,1,8,4H59m0-4H8A8,8,0,0,0,0,8V80a8,8,0,0,0,8,8H59a8,8,0,0,0,8-8V8a8,8,0,0,0-8-8Z"/>
        <rect x="-9.81" y="43.37" width="85.05" height="2" transform="translate(-22.41 44.16) rotate(-53.38)"/>
        <path d="M55.06,74.46H19.38a1.79,1.79,0,0,1-1.78-1.78V62.92h2v9.55H54.84V57.07H24v-2h31a1.79,1.79,0,0,1,1.78,1.78V72.68A1.79,1.79,0,0,1,55.06,74.46Z"/>
        <g>
          <path d="M32,46.33H22.39a1.67,1.67,0,0,1-1.67-1.67V32.18a1.87,1.87,0,0,0-1.87-1.87H11.52a1.67,1.67,0,0,1-1.67-1.67V15.16a1.67,1.67,0,0,1,1.67-1.67H41a1.67,1.67,0,0,1,1.67,1.67V32.32h-2V15.5H11.85V28.31h7a3.87,3.87,0,0,1,3.87,3.87V44.33H32Z"/>
          <polygon points="32.63 22.87 20.9 22.87 20.9 20.87 30.63 20.87 30.63 18.73 32.63 18.73 32.63 22.87"/>
          <polygon points="23.83 26.21 19.49 21.87 23.83 17.53 25.24 18.94 22.32 21.87 25.24 24.8 23.83 26.21"/>
        </g>
        <polygon points="41.16 65.77 27.5 65.77 27.5 63.77 39.16 63.77 39.16 61.06 41.16 61.06 41.16 65.77"/>
        <polygon points="31.08 69.76 26.09 64.77 31.08 59.77 32.49 61.19 28.91 64.77 32.49 68.35 31.08 69.76"/>
      </g>
    </g>
  </g>
</svg>
