<svg xmlns="http://www.w3.org/2000/svg" width="284" height="49" viewBox="0 0 284 49">
  <title>generate_btn</title>
  <g id="Layer_2" data-name="Layer 2">
    <g id="Layer_1-2" data-name="Layer 1">
      <g id="Page-1">
        <g id="Desktop">
          <g id="Group-13">
            <rect id="Rectangle" width="284" height="49" rx="4" ry="4" fill="#ffcd00"/>
            <g id="GENERATE" style="isolation: isolate">
              <g style="isolation: isolate">
                <path d="M109.63,23.38a3.7,3.7,0,0,1,3.67,3.69V28.3a3.7,3.7,0,0,1-3.69,3.7h-.06a3.7,3.7,0,0,1-3.7-3.7v-7a3.7,3.7,0,0,1,3.7-3.69h.06a3.69,3.69,0,0,1,3.5,2.51.85.85,0,0,1-.13.81.89.89,0,0,1-.74.37.83.83,0,0,1-.86-.6,1.79,1.79,0,0,0-.67-.92,1.83,1.83,0,0,0-1.09-.35h-.06a1.87,1.87,0,0,0-1.87,1.87v7a1.87,1.87,0,0,0,1.88,1.88h.06a1.87,1.87,0,0,0,1.87-1.87V27.07a1.87,1.87,0,0,0-1.87-1.87.92.92,0,0,1-.63-1.55.9.9,0,0,1,.63-.27Z"/>
                <path d="M121.27,30.17a.92.92,0,0,1,.92.91.89.89,0,0,1-.27.65.88.88,0,0,1-.64.26h-4.81a.9.9,0,0,1-.92-.92V18.87a.9.9,0,0,1,.26-.64.91.91,0,0,1,.65-.26h4.81a.92.92,0,0,1,.92.91.93.93,0,0,1-.92.92h-3.91v3.79h3.32a.91.91,0,0,1,.65.26.92.92,0,0,1,0,1.29.89.89,0,0,1-.65.27h-3.32v4.78Z"/>
                <path d="M132.51,31.13a.56.56,0,0,1,0,.11v0a.91.91,0,0,1-1.17.69.9.9,0,0,1-.54-.45l-4.54-9.1v8.68a.92.92,0,0,1-.91.92.89.89,0,0,1-.65-.27.88.88,0,0,1-.26-.64V18.52a.88.88,0,0,1,.26-.64.89.89,0,0,1,.65-.27.88.88,0,0,1,.71.35h0a.34.34,0,0,1,.07.11h0s0,0,0,0l4.54,9.1V18.52a.88.88,0,0,1,.26-.64.92.92,0,0,1,1.56.64V31.13Z"/>
                <path d="M140.78,30.17a.92.92,0,0,1,.92.91.89.89,0,0,1-.27.65.88.88,0,0,1-.64.26H136a.9.9,0,0,1-.92-.92V18.87a.9.9,0,0,1,.26-.64A.91.91,0,0,1,136,18h4.81a.92.92,0,0,1,.92.91.93.93,0,0,1-.92.92h-3.91v3.79h3.32a.91.91,0,0,1,.65.26.92.92,0,0,1,0,1.29.89.89,0,0,1-.65.27h-3.32v4.78Z"/>
                <path d="M151.54,21.52a3.52,3.52,0,0,1-1.28,2.78,3.54,3.54,0,0,1,1.28,2.78v4a.89.89,0,0,1-.27.65.92.92,0,0,1-1.29,0,.91.91,0,0,1-.26-.65v-4a1.88,1.88,0,0,0-1.87-1.87h-2.08v5.86a.91.91,0,0,1-.26.65.9.9,0,0,1-.64.26.9.9,0,0,1-.92-.92V18.68a.88.88,0,0,1,.26-.64.91.91,0,0,1,.65-.26h3a3.7,3.7,0,0,1,3.7,3.69Zm-5.78,1.88h2.08a1.88,1.88,0,0,0,1.88-1.87v-.06a1.88,1.88,0,0,0-1.87-1.87h-2.08Z"/>
                <path d="M161,20.17a3.55,3.55,0,0,1,.19,1.13v9.78a.89.89,0,0,1-.27.65.92.92,0,0,1-1.29,0,.91.91,0,0,1-.26-.65V25.22h-3.8v5.86a.91.91,0,0,1-.26.65.9.9,0,0,1-.64.26.9.9,0,0,1-.92-.92V21.31a3.74,3.74,0,0,1,.18-1.13c0-.07,0-.08,0,0a3.5,3.5,0,0,1,2.4-2.34h0l.3-.08h.07l.28,0H158l.28,0h.07l.3.08h0a3.5,3.5,0,0,1,2.4,2.34,0,0,0,0,1,0,0ZM159.4,23.4V21.31a1.79,1.79,0,0,0-.15-.71v0a1.93,1.93,0,0,0-.27-.45l0,0-.2-.2-.06,0-.12-.09-.13-.08-.14-.07-.14-.06-.09,0-.22-.06h-.08l-.24,0h-.09l-.24,0h-.08l-.22.06-.1,0-.13.06-.14.07-.13.08-.12.09-.06,0-.2.2v0h0a1.75,1.75,0,0,0-.26.45v0a1.79,1.79,0,0,0-.15.71V23.4Z"/>
                <path d="M169.29,17.74a.88.88,0,0,1,.64.26.9.9,0,0,1,.26.64.88.88,0,0,1-.26.64.86.86,0,0,1-.64.27h-2.44V31.08a.91.91,0,0,1-.26.65.9.9,0,0,1-.64.26.88.88,0,0,1-.64-.26.9.9,0,0,1-.27-.65V19.57h-2.43a.89.89,0,0,1-.65-.27.88.88,0,0,1-.26-.64.9.9,0,0,1,.26-.64.91.91,0,0,1,.65-.26Zm0,0a.88.88,0,0,1,.64.26.9.9,0,0,1,.26.64.88.88,0,0,1-.26.64.86.86,0,0,1-.64.27h-2.44V31.08a.91.91,0,0,1-.26.65.9.9,0,0,1-.64.26.88.88,0,0,1-.64-.26.9.9,0,0,1-.27-.65V19.57h-2.43a.89.89,0,0,1-.65-.27.88.88,0,0,1-.26-.64.9.9,0,0,1,.26-.64.91.91,0,0,1,.65-.26Z"/>
                <path d="M177.78,30.17a.92.92,0,0,1,.92.91.9.9,0,0,1-.27.65.88.88,0,0,1-.64.26H173a.9.9,0,0,1-.92-.92V18.87a.9.9,0,0,1,.26-.64A.91.91,0,0,1,173,18h4.81a.92.92,0,0,1,.92.91.93.93,0,0,1-.92.92h-3.91v3.79h3.32a.91.91,0,0,1,.65.26.92.92,0,0,1,0,1.29.89.89,0,0,1-.65.27h-3.32v4.78Z"/>
              </g>
            </g>
          </g>
        </g>
      </g>
    </g>
  </g>
</svg>
