<svg xmlns="http://www.w3.org/2000/svg" width="670.7" height="108.9" viewBox="0 0 670.7 108.9">
  <title>ill_keyboard_1</title>
  <g id="Layer_2" data-name="Layer 2">
    <g id="Layer_1-2" data-name="Layer 1">
      <g>
        <rect x="2" y="23.87" width="666.7" height="60" fill="#fff"/>
        <polygon points="603.04 81.02 612.35 96.8 629.28 106.9 657.45 106.9 657.51 97.33 630.24 96.35 618.28 89.19 613.26 78.32 603.04 81.02" fill="#fff"/>
        <g>
          <line x1="3.65" y1="24.61" x2="667.04" y2="24.61" fill="none" stroke="#000" stroke-miterlimit="10" stroke-width="4"/>
          <path d="M616.13,85.44h51a1.57,1.57,0,0,0,1.57-1.57h0v-60A4.73,4.73,0,0,0,667,20.25h0a14.44,14.44,0,0,0-8.45-3.36c-3-.18-7.69-.32-15-.32H27.14c-7.36,0-12.05.14-15,.32a14.44,14.44,0,0,0-8.45,3.36h0A4.73,4.73,0,0,0,2,23.87v60a1.57,1.57,0,0,0,1.57,1.57H92.16a1.57,1.57,0,0,0,1.57-1.57h0V70.31a15.68,15.68,0,0,1,15.68-15.68H561.76a15.68,15.68,0,0,1,15.68,15.68V83.87A1.57,1.57,0,0,0,579,85.44h26.15" fill="none" stroke="#000" stroke-miterlimit="10" stroke-width="4"/>
          <line x1="87.02" y1="85.44" x2="590.53" y2="85.44" fill="none" stroke="#000" stroke-miterlimit="10" stroke-width="4"/>
          <path d="M31.1,16.61C32.73,15,35.28,6.34,36.28,3.08a1.47,1.47,0,0,1,1.64-1l2.81.42a50.72,50.72,0,0,0,15,0L58.47,2a1.47,1.47,0,0,1,1.64,1c.93,3.25,3.5,11.89,5.14,13.52" fill="none" stroke="#000" stroke-miterlimit="10" stroke-width="4"/>
          <path d="M67.35,16.61C69,15,71.56,6.34,72.49,3.09a1.47,1.47,0,0,1,1.64-1l2.81.42c5,.74,50.41.74,55.38,0l2.8-.49a1.47,1.47,0,0,1,1.64,1c.93,3.25,3.5,11.89,5.14,13.52" fill="none" stroke="#000" stroke-miterlimit="10" stroke-width="4"/>
          <path d="M143.88,16.61C145.52,15,148.09,6.34,149,3.09a1.47,1.47,0,0,1,1.64-1l2.81.42a50.72,50.72,0,0,0,15,0L171.28,2a1.47,1.47,0,0,1,1.64,1c.93,3.25,3.5,11.89,5.14,13.52" fill="none" stroke="#000" stroke-miterlimit="10" stroke-width="4"/>
          <path d="M182.88,16.61C184.52,15,187.09,6.34,188,3.09a1.47,1.47,0,0,1,1.64-1l2.81.42a50.72,50.72,0,0,0,15,0L210.28,2a1.47,1.47,0,0,1,1.64,1c.93,3.25,3.5,11.89,5.14,13.52" fill="none" stroke="#000" stroke-miterlimit="10" stroke-width="4"/>
          <path d="M221.88,16.61C223.52,15,226.09,6.34,227,3.09a1.47,1.47,0,0,1,1.64-1l2.81.42a50.72,50.72,0,0,0,15,0L249.28,2a1.47,1.47,0,0,1,1.64,1c.93,3.25,3.5,11.89,5.14,13.52" fill="none" stroke="#000" stroke-miterlimit="10" stroke-width="4"/>
          <path d="M260.89,16.61C262.53,15,265.1,6.34,266,3.09a1.47,1.47,0,0,1,1.64-1l2.81.42a50.72,50.72,0,0,0,15,0l2.8-.49a1.47,1.47,0,0,1,1.64,1c.93,3.25,3.5,11.89,5.14,13.52" fill="none" stroke="#000" stroke-miterlimit="10" stroke-width="4"/>
          <path d="M299.89,16.61C301.53,15,304.1,6.34,305,3.09a1.47,1.47,0,0,1,1.64-1l2.81.42a50.72,50.72,0,0,0,15,0l2.8-.49a1.47,1.47,0,0,1,1.64,1c.93,3.25,3.5,11.89,5.14,13.52" fill="none" stroke="#000" stroke-miterlimit="10" stroke-width="4"/>
          <path d="M338.89,16.61C340.53,15,343.1,6.34,344,3.09a1.47,1.47,0,0,1,1.64-1l2.81.42a50.72,50.72,0,0,0,15,0l2.8-.49a1.47,1.47,0,0,1,1.64,1c.93,3.25,3.5,11.89,5.14,13.52" fill="none" stroke="#000" stroke-miterlimit="10" stroke-width="4"/>
          <path d="M377.89,16.61C379.53,15,382.1,6.34,383,3.09a1.47,1.47,0,0,1,1.64-1l2.81.42a50.72,50.72,0,0,0,15,0l2.8-.49a1.47,1.47,0,0,1,1.64,1c.93,3.25,3.5,11.89,5.14,13.52" fill="none" stroke="#000" stroke-miterlimit="10" stroke-width="4"/>
          <path d="M416.89,16.61C418.53,15,421.1,6.34,422,3.09a1.47,1.47,0,0,1,1.64-1l2.81.42a50.72,50.72,0,0,0,15,0l2.8-.49a1.47,1.47,0,0,1,1.64,1c.93,3.25,3.5,11.89,5.14,13.52" fill="none" stroke="#000" stroke-miterlimit="10" stroke-width="4"/>
          <path d="M455.89,16.61C457.53,15,460.1,6.34,461,3.09a1.47,1.47,0,0,1,1.64-1l2.81.42a50.72,50.72,0,0,0,15,0l2.8-.49a1.47,1.47,0,0,1,1.64,1c.93,3.25,3.5,11.89,5.14,13.52" fill="none" stroke="#000" stroke-miterlimit="10" stroke-width="4"/>
          <path d="M494.9,16.61C496.54,15,499.11,6.34,500,3.09a1.47,1.47,0,0,1,1.64-1l2.81.42a50.72,50.72,0,0,0,15,0L522.28,2a1.47,1.47,0,0,1,1.64,1c.93,3.25,3.5,11.89,5.14,13.52" fill="none" stroke="#000" stroke-miterlimit="10" stroke-width="4"/>
          <path d="M533.9,16.61C535.54,15,538.11,6.34,539,3.09a1.47,1.47,0,0,1,1.64-1l2.81.42a50.72,50.72,0,0,0,15,0L561.28,2a1.47,1.47,0,0,1,1.64,1c.93,3.25,3.5,11.89,5.14,13.52" fill="none" stroke="#000" stroke-miterlimit="10" stroke-width="4"/>
          <path d="M572.9,16.61C574.54,15,577.11,6.34,578,3.09a1.47,1.47,0,0,1,1.64-1l2.81.42a50.72,50.72,0,0,0,15,0L600.28,2a1.47,1.47,0,0,1,1.64,1c.93,3.25,3.5,11.89,5.14,13.52" fill="none" stroke="#000" stroke-miterlimit="10" stroke-width="4"/>
          <path d="M611.9,16.61C613.54,15,616.11,6.34,617,3.09a1.47,1.47,0,0,1,1.64-1l2.81.42a50.72,50.72,0,0,0,15,0L639.28,2a1.47,1.47,0,0,1,1.64,1c.93,3.25,3.5,11.89,5.14,13.52" fill="none" stroke="#000" stroke-miterlimit="10" stroke-width="4"/>
          <rect x="31.95" y="43.07" width="45.27" height="19.01" rx="1.57" ry="1.57" fill="none" stroke="#000" stroke-miterlimit="10" stroke-width="4"/>
          <g>
            <path d="M44.4,49.66A3,3,0,0,1,43.28,52a3,3,0,0,1,1.08,2.36v3.38a.75.75,0,0,1-.23.55.78.78,0,0,1-1.09,0,.77.77,0,0,1-.22-.55V54.37a1.59,1.59,0,0,0-1.54-1.58H39.52v5a.78.78,0,1,1-1.55,0V47.25a.75.75,0,0,1,.22-.55.77.77,0,0,1,.55-.22h2.54a3.13,3.13,0,0,1,3.14,3.12h0Zm-4.9,1.59h1.78a1.59,1.59,0,0,0,1.59-1.59h0A1.59,1.59,0,0,0,41.33,48H39.52Z"/>
            <path d="M52.12,48.51a3,3,0,0,1,.16,1v8.28a.75.75,0,0,1-.23.55.78.78,0,0,1-1.09,0,.77.77,0,0,1-.22-.55v-5H47.52v5a.78.78,0,1,1-1.55,0V49.47a3.15,3.15,0,0,1,.15-1h0a3,3,0,0,1,2-2h0l.26-.07h1.37l.26.07h0a3,3,0,0,1,2,2h0Zm-1.39,2.73V49.47a1.51,1.51,0,0,0-.12-.6h0a1.65,1.65,0,0,0-.23-.38h0l-.17-.17h0l-.1-.07L50,48.18l-.12-.06-.12,0H48.59l-.11,0-.12.06-.11.07-.1.07h0l-.17.17h0a1.44,1.44,0,0,0-.22.38h0a1.51,1.51,0,0,0-.12.6v1.77Z"/>
            <path d="M62.28,46.38a.76.76,0,0,1,.55.23.74.74,0,0,1,.22.55v10.6a.78.78,0,1,1-1.55,0v-7.4l-2.22,4.42a.59.59,0,0,1-.09.12.68.68,0,0,1-.24.21.77.77,0,0,1-.59,0,.72.72,0,0,1-.45-.38l-2.25-4.41V57.7a.78.78,0,0,1-1.55,0V47.16a.74.74,0,0,1,.22-.55.76.76,0,0,1,.55-.23.72.72,0,0,1,.67.4h0l3,5.92,3-5.92v-.06h0l.06-.07.23-.27Z"/>
            <path d="M71.06,48.51a3,3,0,0,1,.16,1v8.28a.75.75,0,0,1-.23.55.78.78,0,0,1-1.09,0,.77.77,0,0,1-.22-.55v-5H66.46v5a.78.78,0,1,1-1.55,0V49.47a3.15,3.15,0,0,1,.15-1h0a3,3,0,0,1,2-2h0l.26-.07h1.37l.26.07h0a3,3,0,0,1,2,2h0Zm-1.39,2.73V49.47a1.51,1.51,0,0,0-.12-.6h0a1.65,1.65,0,0,0-.23-.38h0l-.17-.17h0l-.1-.07-.11-.07-.12-.06-.12,0H67.45l-.11,0-.12.06-.11.07-.1.07h0l-.17.17h0a1.44,1.44,0,0,0-.22.38h0a1.51,1.51,0,0,0-.12.6v1.77Z"/>
          </g>
          <path d="M603,60.51h-7.76a1.57,1.57,0,0,1-1.57-1.57h0V36.8a1.57,1.57,0,0,1,1.57-1.57h25a1.57,1.57,0,0,1,1.57,1.57h0V58.94a1.57,1.57,0,0,1-1.57,1.57H612.6" fill="none" stroke="#000" stroke-miterlimit="10" stroke-width="4"/>
          <path d="M668.73,106.9H636.17A33.13,33.13,0,0,1,603,73.77h0V47.87h9.6v25A24.46,24.46,0,0,0,637.1,97.33h20.41" fill="none" stroke="#000" stroke-miterlimit="10" stroke-width="4"/>
          <path d="M108.78,55H562.13A15.63,15.63,0,0,1,577.7,70.7V84.24H93.21V70.68A15.63,15.63,0,0,1,108.78,55Z"/>
        </g>
      </g>
    </g>
  </g>
</svg>
