<svg xmlns="http://www.w3.org/2000/svg" width="66.26" height="59.27" viewBox="0 0 66.26 59.27">
  <title>key2</title>
  <g id="Layer_2" data-name="Layer 2">
    <g id="Layer_1-2" data-name="Layer 1">
      <polygon points="7.91 19.85 2 41.99 31.75 57.75 64.75 38.8 60.13 19.85 39.95 7.06 40.69 3.69 35.38 2 33.14 4.47 28.37 2.09 25.56 3.71 27.13 7.74 7.91 19.85" fill="#fff" stroke="#000" stroke-miterlimit="10"/>
      <g id="Layer_2-2" data-name="Layer 2">
        <g id="Layer_1-2-2" data-name="Layer 1-2">
          <g>
            <path d="M41.63,8.94l17.14,9.93c.79.46.69,1.25-.22,1.78L33.92,34.87a3.43,3.43,0,0,1-3.08.13L7.69,21.63c-.79-.46-.69-1.25.22-1.78l15.71-9.07" fill="none" stroke="#000" stroke-miterlimit="10" stroke-width="4"/>
            <line x1="7.23" y1="21.25" x2="2" y2="39.92" fill="none" stroke="#000" stroke-miterlimit="10" stroke-width="4"/>
            <line x1="32.73" y1="35.75" x2="32.73" y2="57.75" fill="none" stroke="#000" stroke-miterlimit="10" stroke-width="4"/>
            <path d="M59.23,19.25l5,18.71a1.88,1.88,0,0,1-.92,1.94L34.05,56.76a4.1,4.1,0,0,1-3.69.15l-27.72-16a1.07,1.07,0,0,1-.64-1" fill="none" stroke="#000" stroke-miterlimit="10" stroke-width="4"/>
            <g>
              <line x1="33.13" y1="9.94" x2="33.13" y2="21.63" fill="none" stroke="#000" stroke-miterlimit="10" stroke-width="4"/>
              <path d="M42.33,9.77V21.46l-4.75,2.73-4.45-2.57-4.44,2.57L24,21.45V9.77L28.4,7.2l-3.49-2a.64.64,0,0,1,0-1.11l3.46-2a.64.64,0,0,1,.64,0l4.13,2.38,4.13-2.38a.64.64,0,0,1,.64,0l3.46,2a.64.64,0,0,1,0,1.11l-3.49,2Z" fill="none" stroke="#000" stroke-miterlimit="10" stroke-width="4"/>
              <polyline points="23.94 9.77 28.69 12.51 28.69 24.19" fill="none" stroke="#000" stroke-miterlimit="10" stroke-width="4"/>
              <polyline points="42.33 9.77 37.58 12.51 37.58 24.19" fill="none" stroke="#000" stroke-miterlimit="10" stroke-width="4"/>
              <polyline points="28.69 12.51 33.13 9.94 37.58 12.51" fill="none" stroke="#000" stroke-miterlimit="10" stroke-width="4"/>
              <path d="M23.94,4.63" fill="none" stroke="#000" stroke-miterlimit="10" stroke-width="4"/>
              <line x1="24.63" y1="4.63" x2="24.63" y2="9.5" fill="none" stroke="#000" stroke-miterlimit="10" stroke-width="4"/>
              <line x1="41.63" y1="4.63" x2="41.63" y2="9.5" fill="none" stroke="#000" stroke-miterlimit="10" stroke-width="4"/>
            </g>
          </g>
        </g>
      </g>
    </g>
  </g>
</svg>
