<svg xmlns="http://www.w3.org/2000/svg" width="15.82" height="28.85" viewBox="0 0 15.82 28.85">
  <title>key3</title>
  <g id="Layer_2" data-name="Layer 2">
    <g id="Layer_1-2" data-name="Layer 1">
      <g>
        <path d="M2,2.63a43.33,43.33,0,0,1,11.12-.42.79.79,0,0,1,.12,1.55,13.63,13.63,0,0,1-3.43.37" fill="none" stroke="#000" stroke-linecap="round" stroke-linejoin="round" stroke-width="4"/>
        <path d="M2,4.9a43.33,43.33,0,0,1,11.12-.42A.79.79,0,0,1,13.24,6a13.63,13.63,0,0,1-3.43.37" fill="none" stroke="#000" stroke-linecap="round" stroke-linejoin="round" stroke-width="4"/>
        <path d="M2,7.18a43.33,43.33,0,0,1,11.12-.42.79.79,0,0,1,.12,1.55,13.63,13.63,0,0,1-3.43.37" fill="none" stroke="#000" stroke-linecap="round" stroke-linejoin="round" stroke-width="4"/>
        <path d="M2,9.45A43.33,43.33,0,0,1,13.12,9a.79.79,0,0,1,.12,1.55,13.63,13.63,0,0,1-3.43.37" fill="none" stroke="#000" stroke-linecap="round" stroke-linejoin="round" stroke-width="4"/>
        <path d="M2,11.72a43.33,43.33,0,0,1,11.12-.42.79.79,0,0,1,.12,1.55,13.63,13.63,0,0,1-3.43.37" fill="none" stroke="#000" stroke-linecap="round" stroke-linejoin="round" stroke-width="4"/>
        <path d="M2,14a43.33,43.33,0,0,1,11.12-.42.79.79,0,0,1,.12,1.55,13.63,13.63,0,0,1-3.43.37" fill="none" stroke="#000" stroke-linecap="round" stroke-linejoin="round" stroke-width="4"/>
        <path d="M2,16.27a43.33,43.33,0,0,1,11.12-.42.79.79,0,0,1,.12,1.55,13.63,13.63,0,0,1-3.43.37" fill="none" stroke="#000" stroke-linecap="round" stroke-linejoin="round" stroke-width="4"/>
        <path d="M2,18.54a43.33,43.33,0,0,1,11.12-.42.79.79,0,0,1,.12,1.55A13.63,13.63,0,0,1,9.81,20" fill="none" stroke="#000" stroke-linecap="round" stroke-linejoin="round" stroke-width="4"/>
        <path d="M2,20.81a43.33,43.33,0,0,1,11.12-.42.79.79,0,0,1,.12,1.55,13.63,13.63,0,0,1-3.43.37" fill="none" stroke="#000" stroke-linecap="round" stroke-linejoin="round" stroke-width="4"/>
        <path d="M2,23.08a43.33,43.33,0,0,1,11.12-.42.79.79,0,0,1,.12,1.55,13.63,13.63,0,0,1-3.43.37" fill="none" stroke="#000" stroke-linecap="round" stroke-linejoin="round" stroke-width="4"/>
        <path d="M2,25.36a43.33,43.33,0,0,1,11.12-.42.79.79,0,0,1,.12,1.55,13.63,13.63,0,0,1-3.43.37" fill="none" stroke="#000" stroke-linecap="round" stroke-linejoin="round" stroke-width="4"/>
      </g>
    </g>
  </g>
</svg>
