<svg xmlns="http://www.w3.org/2000/svg" width="59.2" height="63.21" viewBox="0 0 59.2 63.21">
  <title>key4</title>
  <g id="Layer_2" data-name="Layer 2">
    <g id="Layer_1-2" data-name="Layer 1">
      <g>
        <g>
          <path d="M27.33,42.74,4.27,29.43a4.54,4.54,0,0,1,0-7.87L27.33,8.25a4.54,4.54,0,0,1,4.54,0L54.93,21.56a4.54,4.54,0,0,1,0,7.87L31.87,42.74A4.54,4.54,0,0,1,27.33,42.74Z" fill="none" stroke="#000" stroke-linecap="round" stroke-linejoin="round" stroke-width="4"/>
          <path d="M14.67,24.21a2.44,2.44,0,0,1,1.17-1.56l12.53-7.24a2.47,2.47,0,0,1,2.47,0l12.53,7.24a2.47,2.47,0,0,1,0,4.28L30.84,34.17a2.47,2.47,0,0,1-2.47,0l-8.05-4.65" fill="none" stroke="#000" stroke-linecap="round" stroke-linejoin="round" stroke-width="4"/>
          <path d="M57.2,25.5l0,18.4a4.49,4.49,0,0,1-2.24,3.39L31.87,60.6a4.54,4.54,0,0,1-4.54,0L4.27,47.29A4.49,4.49,0,0,1,2,44L2,25.65" fill="none" stroke="#000" stroke-linecap="round" stroke-linejoin="round" stroke-width="4"/>
          <line x1="29.6" y1="61.21" x2="29.6" y2="43.35" fill="none" stroke="#000" stroke-linecap="round" stroke-linejoin="round" stroke-width="4"/>
        </g>
        <polyline points="11.66 33.7 11.66 22.5 20.32 27.5 20.32 38.7" fill="none" stroke="#000" stroke-linecap="round" stroke-linejoin="round" stroke-width="4"/>
        <polyline points="40.79 13.2 40.79 2 49.45 7 49.45 18.2" fill="none" stroke="#000" stroke-linecap="round" stroke-linejoin="round" stroke-width="4"/>
        <path d="M33,28.41a8.36,8.36,0,0,1-7.56,0c-2.09-1.21-2.09-3.16,0-4.37A8.36,8.36,0,0,1,33,24C35.07,25.25,35.07,27.21,33,28.41Z" fill="none" stroke="#000" stroke-linecap="round" stroke-linejoin="round" stroke-width="4"/>
        <line x1="23.85" y1="26.23" x2="23.85" y2="31.56" fill="none" stroke="#000" stroke-linecap="round" stroke-linejoin="round" stroke-width="4"/>
        <line x1="34.54" y1="26.23" x2="34.54" y2="32.03" fill="none" stroke="#000" stroke-linecap="round" stroke-linejoin="round" stroke-width="4"/>
      </g>
    </g>
  </g>
</svg>
