<svg xmlns="http://www.w3.org/2000/svg" width="247" height="247" viewBox="0 0 247 247">
  <title>keyboard-icon</title>
  <g id="Layer_2" data-name="Layer 2">
    <g id="Layer_1-2" data-name="Layer 1">
      <rect width="247" height="247" fill="#fff"/>
      <g>
        <path d="M235.31,167.92,180,196.76a3.43,3.43,0,0,1-3.43-.15L11.09,91.42a3.43,3.43,0,0,1-1.59-3L10,77.63a3.43,3.43,0,0,1,2-3l55-24.5a3.43,3.43,0,0,1,3.24.24L235.83,155.66a3.43,3.43,0,0,1,1.59,3l-.27,6.32A3.43,3.43,0,0,1,235.31,167.92Z" fill="none" stroke="#000" stroke-miterlimit="10" stroke-width="1.5"/>
        <path d="M237.5,156.72l-56.91,25.36a3.43,3.43,0,0,1-3.24-.24L10.05,75.51" fill="none" stroke="#000" stroke-miterlimit="10" stroke-width="1.5"/>
        <path d="M150.88,180.28,34.13,106.07l.07-1.69c.2-4.75,3.18-6.8,6.65-4.6L145,166c3.47,2.21,6.12,7.84,5.92,12.59Z" fill="none" stroke="#000" stroke-miterlimit="10" stroke-width="1.5"/>
        <g>
          <path d="M33.06,77.34l-6.26-4a2,2,0,0,0-1.78,0l-6.17,3.08c-.53.27-.6.72-.15,1l6.26,4a2,2,0,0,0,1.78,0l6.17-3.08C33.44,78.07,33.51,77.63,33.06,77.34Z" fill="none" stroke="#000" stroke-miterlimit="10" stroke-width="1.5"/>
          <path d="M47.36,74.67l-10.2-6.48a2,2,0,0,0-1.78,0l-6.17,3.08c-.53.27-.6.72-.15,1l10.2,6.48a2,2,0,0,0,1.78,0l6.17-3.08C47.74,75.41,47.81,75,47.36,74.67Z" fill="none" stroke="#000" stroke-miterlimit="10" stroke-width="1.5"/>
          <path d="M185,162.13,172.12,154a2,2,0,0,0-1.78,0L164.17,157c-.53.27-.6.72-.15,1l12.83,8.15a2,2,0,0,0,1.78,0l6.17-3.08C185.34,162.86,185.4,162.41,185,162.13Z" fill="none" stroke="#000" stroke-miterlimit="10" stroke-width="1.5"/>
          <path d="M78.45,59.15l-10.2-6.48a2,2,0,0,0-1.78,0L60.3,55.72c-.53.27-.6.72-.15,1l10.2,6.48a2,2,0,0,0,1.78,0l6.17-3.08C78.83,59.89,78.9,59.44,78.45,59.15Z" fill="none" stroke="#000" stroke-miterlimit="10" stroke-width="1.5"/>
          <path d="M60.79,71.45,47.53,63a2,2,0,0,0-1.78,0l-6.17,3.08c-.53.27-.6.72-.15,1L52.68,75.5a2,2,0,0,0,1.78,0l6.17-3.08C61.18,72.18,61.24,71.74,60.79,71.45Z" fill="none" stroke="#000" stroke-miterlimit="10" stroke-width="1.5"/>
          <path d="M74.22,68.22,57.89,57.84a2,2,0,0,0-1.78,0l-6.17,3.08c-.53.27-.6.72-.15,1L66.11,72.27a2,2,0,0,0,1.78,0l6.17-3.08C74.61,69,74.67,68.51,74.22,68.22Z" fill="none" stroke="#000" stroke-miterlimit="10" stroke-width="1.5"/>
          <path d="M195.6,145.37,179.27,135a2,2,0,0,0-1.78,0L171.31,138c-.53.27-.6.72-.15,1l16.33,10.38a2,2,0,0,0,1.78,0l6.17-3.08C196,146.11,196.05,145.66,195.6,145.37Z" fill="none" stroke="#000" stroke-miterlimit="10" stroke-width="1.5"/>
          <path d="M195.32,157l-19.84-12.61a2,2,0,0,0-1.78,0l-6.17,3.08c-.53.27-.6.72-.15,1L187.21,161a2,2,0,0,0,1.78,0l6.17-3.08C195.7,157.69,195.77,157.24,195.32,157Z" fill="none" stroke="#000" stroke-miterlimit="10" stroke-width="1.5"/>
          <path d="M43.13,83.75l-6.26-4a2,2,0,0,0-1.78,0l-6.17,3.08c-.53.27-.6.72-.15,1l6.26,4a2,2,0,0,0,1.78,0L43,84.75C43.52,84.48,43.58,84,43.13,83.75Z" fill="none" stroke="#000" stroke-miterlimit="10" stroke-width="1.5"/>
          <path d="M53.21,90.15l-6.26-4a2,2,0,0,0-1.78,0L39,89.22c-.53.27-.6.72-.15,1l6.26,4a2,2,0,0,0,1.78,0l6.17-3.08C53.59,90.89,53.66,90.44,53.21,90.15Z" fill="none" stroke="#000" stroke-miterlimit="10" stroke-width="1.5"/>
          <path d="M57.44,81.08l-6.26-4a2,2,0,0,0-1.78,0l-6.17,3.08c-.53.27-.6.72-.15,1l6.26,4a2,2,0,0,0,1.78,0l6.17-3.08C57.82,81.81,57.89,81.37,57.44,81.08Z" fill="none" stroke="#000" stroke-miterlimit="10" stroke-width="1.5"/>
          <path d="M92.47,68.06l-10.2-6.48a2,2,0,0,0-1.78,0l-6.17,3.08c-.53.27-.6.72-.15,1l10.2,6.48a2,2,0,0,0,1.78,0l6.17-3.08C92.86,68.8,92.93,68.35,92.47,68.06Z" fill="none" stroke="#000" stroke-miterlimit="10" stroke-width="1.5"/>
          <path d="M167.84,116,96.3,70.49a2,2,0,0,0-1.78,0l-6.17,3.08c-.53.27-.6.72-.15,1L159.73,120a2,2,0,0,0,1.78,0l6.17-3.08C168.23,116.7,168.29,116.25,167.84,116Z" fill="none" stroke="#000" stroke-miterlimit="10" stroke-width="1.5"/>
          <path d="M195.89,133.79l-10.2-6.48a2,2,0,0,0-1.78,0l-6.17,3.08c-.53.27-.6.72-.15,1l10.2,6.48a2,2,0,0,0,1.78,0l6.17-3.08C196.27,134.53,196.34,134.08,195.89,133.79Z" fill="none" stroke="#000" stroke-miterlimit="10" stroke-width="1.5"/>
          <path d="M67.52,87.48l-6.26-4a2,2,0,0,0-1.78,0l-6.17,3.08c-.53.27-.6.72-.15,1l6.26,4a2,2,0,0,0,1.78,0l6.17-3.08C67.9,88.22,68,87.77,67.52,87.48Z" fill="none" stroke="#000" stroke-miterlimit="10" stroke-width="1.5"/>
          <path d="M77.6,93.89l-6.26-4a2,2,0,0,0-1.78,0L63.38,93c-.53.27-.6.72-.15,1l6.26,4a2,2,0,0,0,1.78,0l6.17-3.08C78,94.63,78,94.18,77.6,93.89Z" fill="none" stroke="#000" stroke-miterlimit="10" stroke-width="1.5"/>
          <path d="M87.68,100.3l-6.26-4a2,2,0,0,0-1.78,0l-6.17,3.08c-.53.27-.6.72-.15,1l6.26,4a2,2,0,0,0,1.78,0l6.17-3.08C88.06,101,88.13,100.58,87.68,100.3Z" fill="none" stroke="#000" stroke-miterlimit="10" stroke-width="1.5"/>
          <path d="M97.75,106.7l-6.26-4a2,2,0,0,0-1.78,0l-6.17,3.08c-.53.27-.6.72-.15,1l6.26,4a2,2,0,0,0,1.78,0l6.17-3.08C98.14,107.44,98.2,107,97.75,106.7Z" fill="none" stroke="#000" stroke-miterlimit="10" stroke-width="1.5"/>
          <path d="M107.83,113.11l-6.26-4a2,2,0,0,0-1.78,0l-6.17,3.08c-.53.27-.6.72-.15,1l6.26,4a2,2,0,0,0,1.78,0l6.17-3.08C108.21,113.84,108.28,113.39,107.83,113.11Z" fill="none" stroke="#000" stroke-miterlimit="10" stroke-width="1.5"/>
          <path d="M117.91,119.51l-6.26-4a2,2,0,0,0-1.78,0l-6.17,3.08c-.53.27-.6.72-.15,1l6.26,4a2,2,0,0,0,1.78,0l6.17-3.08C118.29,120.25,118.36,119.8,117.91,119.51Z" fill="none" stroke="#000" stroke-miterlimit="10" stroke-width="1.5"/>
          <path d="M128,125.92l-6.26-4a2,2,0,0,0-1.78,0L113.78,125c-.53.27-.6.72-.15,1l6.26,4a2,2,0,0,0,1.78,0l6.17-3.08C128.37,126.65,128.44,126.21,128,125.92Z" fill="none" stroke="#000" stroke-miterlimit="10" stroke-width="1.5"/>
          <path d="M138.07,132.33l-6.26-4a2,2,0,0,0-1.78,0l-6.17,3.08c-.53.27-.6.72-.15,1l6.26,4a2,2,0,0,0,1.78,0l6.17-3.08C138.45,133.06,138.52,132.61,138.07,132.33Z" fill="none" stroke="#000" stroke-miterlimit="10" stroke-width="1.5"/>
          <path d="M148.15,138.73l-6.26-4a2,2,0,0,0-1.78,0l-6.17,3.08c-.53.27-.6.72-.15,1l6.26,4a2,2,0,0,0,1.78,0l6.17-3.08C148.53,139.47,148.6,139,148.15,138.73Z" fill="none" stroke="#000" stroke-miterlimit="10" stroke-width="1.5"/>
          <path d="M158.22,145.14l-6.26-4a2,2,0,0,0-1.78,0L144,144.21c-.53.27-.6.72-.15,1l6.26,4a2,2,0,0,0,1.78,0l6.17-3.08C158.61,145.87,158.67,145.42,158.22,145.14Z" fill="none" stroke="#000" stroke-miterlimit="10" stroke-width="1.5"/>
          <path d="M168.3,151.54l-6.26-4a2,2,0,0,0-1.78,0l-6.17,3.08c-.53.27-.6.72-.15,1l6.26,4a2,2,0,0,0,1.78,0l6.17-3.08C168.68,152.28,168.75,151.83,168.3,151.54Z" fill="none" stroke="#000" stroke-miterlimit="10" stroke-width="1.5"/>
          <path d="M63.29,96.56l-6.26-4a2,2,0,0,0-1.78,0l-6.17,3.08c-.53.27-.6.72-.15,1l6.26,4a2,2,0,0,0,1.78,0l6.17-3.08C63.67,97.29,63.74,96.84,63.29,96.56Z" fill="none" stroke="#000" stroke-miterlimit="10" stroke-width="1.5"/>
          <path d="M73.37,103l-6.26-4a2,2,0,0,0-1.78,0L59.16,102c-.53.27-.6.72-.15,1l6.26,4A2,2,0,0,0,67,107L73.22,104C73.75,103.7,73.82,103.25,73.37,103Z" fill="none" stroke="#000" stroke-miterlimit="10" stroke-width="1.5"/>
          <path d="M83.45,109.37l-6.26-4a2,2,0,0,0-1.78,0l-6.17,3.08c-.53.27-.6.72-.15,1l6.26,4a2,2,0,0,0,1.78,0l6.17-3.08C83.83,110.1,83.9,109.66,83.45,109.37Z" fill="none" stroke="#000" stroke-miterlimit="10" stroke-width="1.5"/>
          <path d="M93.53,115.77l-6.26-4a2,2,0,0,0-1.78,0l-6.17,3.08c-.53.27-.6.72-.15,1l6.26,4a2,2,0,0,0,1.78,0l6.17-3.08C93.91,116.51,94,116.06,93.53,115.77Z" fill="none" stroke="#000" stroke-miterlimit="10" stroke-width="1.5"/>
          <path d="M103.6,122.18l-6.26-4a2,2,0,0,0-1.78,0l-6.17,3.08c-.53.27-.6.72-.15,1l6.26,4a2,2,0,0,0,1.78,0l6.17-3.08C104,122.92,104.05,122.47,103.6,122.18Z" fill="none" stroke="#000" stroke-miterlimit="10" stroke-width="1.5"/>
          <path d="M113.68,128.59l-6.26-4a2,2,0,0,0-1.78,0l-6.17,3.08c-.53.27-.6.72-.15,1l6.26,4a2,2,0,0,0,1.78,0l6.17-3.08C114.06,129.32,114.13,128.87,113.68,128.59Z" fill="none" stroke="#000" stroke-miterlimit="10" stroke-width="1.5"/>
          <path d="M123.76,135l-6.26-4a2,2,0,0,0-1.78,0l-6.17,3.08c-.53.27-.6.72-.15,1l6.26,4a2,2,0,0,0,1.78,0l6.17-3.08C124.14,135.73,124.21,135.28,123.76,135Z" fill="none" stroke="#000" stroke-miterlimit="10" stroke-width="1.5"/>
          <path d="M133.84,141.4l-6.26-4a2,2,0,0,0-1.78,0l-6.17,3.08c-.53.27-.6.72-.15,1l6.26,4a2,2,0,0,0,1.78,0l6.17-3.08C134.22,142.13,134.29,141.68,133.84,141.4Z" fill="none" stroke="#000" stroke-miterlimit="10" stroke-width="1.5"/>
          <path d="M143.92,147.8l-6.26-4a2,2,0,0,0-1.78,0l-6.17,3.08c-.53.27-.6.72-.15,1l6.26,4a2,2,0,0,0,1.78,0l6.17-3.08C144.3,148.54,144.37,148.09,143.92,147.8Z" fill="none" stroke="#000" stroke-miterlimit="10" stroke-width="1.5"/>
          <path d="M154,154.21l-6.26-4a2,2,0,0,0-1.78,0l-6.17,3.08c-.53.27-.6.72-.15,1l6.26,4a2,2,0,0,0,1.78,0l6.17-3.08C154.38,154.94,154.45,154.5,154,154.21Z" fill="none" stroke="#000" stroke-miterlimit="10" stroke-width="1.5"/>
          <path d="M184.67,173.71l-6.26-4a2,2,0,0,0-1.78,0l-6.17,3.08c-.53.27-.6.72-.15,1l6.26,4a2,2,0,0,0,1.78,0l6.17-3.08C185.05,174.44,185.12,174,184.67,173.71Z" fill="none" stroke="#000" stroke-miterlimit="10" stroke-width="1.5"/>
          <path d="M195,168.53l-6.26-4a2,2,0,0,0-1.78,0l-6.17,3.08c-.53.27-.6.72-.15,1l6.26,4a2,2,0,0,0,1.78,0l6.17-3.08C195.41,169.27,195.48,168.82,195,168.53Z" fill="none" stroke="#000" stroke-miterlimit="10" stroke-width="1.5"/>
          <path d="M205.4,163.36l-6.26-4a2,2,0,0,0-1.78,0l-6.17,3.08c-.53.27-.6.72-.15,1l6.26,4a2,2,0,0,0,1.78,0l6.17-3.08C205.78,164.09,205.85,163.64,205.4,163.36Z" fill="none" stroke="#000" stroke-miterlimit="10" stroke-width="1.5"/>
          <path d="M215.76,158.18l-6.26-4a2,2,0,0,0-1.78,0l-6.17,3.08c-.53.27-.6.72-.15,1l6.26,4a2,2,0,0,0,1.78,0l6.17-3.08C216.14,158.92,216.21,158.47,215.76,158.18Z" fill="none" stroke="#000" stroke-miterlimit="10" stroke-width="1.5"/>
          <path d="M205.68,151.78l-6.26-4a2,2,0,0,0-1.78,0l-6.17,3.08c-.53.27-.6.72-.15,1l6.26,4a2,2,0,0,0,1.78,0l6.17-3.08C206.06,152.51,206.13,152.06,205.68,151.78Z" fill="none" stroke="#000" stroke-miterlimit="10" stroke-width="1.5"/>
          <path d="M226.12,153l-6.26-4a2,2,0,0,0-1.78,0l-6.17,3.08c-.53.27-.6.72-.15,1l6.26,4a2,2,0,0,0,1.78,0L226,154C226.5,153.75,226.57,153.3,226.12,153Z" fill="none" stroke="#000" stroke-miterlimit="10" stroke-width="1.5"/>
          <path d="M216,146.6l-6.26-4a2,2,0,0,0-1.78,0l-6.17,3.08c-.53.27-.6.72-.15,1l6.26,4a2,2,0,0,0,1.78,0l6.17-3.08C216.43,147.34,216.49,146.89,216,146.6Z" fill="none" stroke="#000" stroke-miterlimit="10" stroke-width="1.5"/>
          <path d="M174.59,167.3l-16.77-10.66a2,2,0,0,0-1.78,0l-6.17,3.08c-.53.27-.6.72-.15,1l16.77,10.66a2,2,0,0,0,1.78,0l6.17-3.08C175,168,175,167.59,174.59,167.3Z" fill="none" stroke="#000" stroke-miterlimit="10" stroke-width="1.5"/>
          <path d="M206,140.2l-6.26-4a2,2,0,0,0-1.78,0l-6.17,3.08c-.53.27-.6.72-.15,1l6.26,4a2,2,0,0,0,1.78,0l6.17-3.08C206.35,140.93,206.42,140.49,206,140.2Z" fill="none" stroke="#000" stroke-miterlimit="10" stroke-width="1.5"/>
          <path d="M181.87,124.88l-10.2-6.48a2,2,0,0,0-1.78,0l-6.17,3.08c-.53.27-.6.72-.15,1l10.2,6.48a2,2,0,0,0,1.78,0l6.17-3.08C182.25,125.62,182.32,125.17,181.87,124.88Z" fill="none" stroke="#000" stroke-miterlimit="10" stroke-width="1.5"/>
          <path d="M70.87,77.85l-6.26-4a2,2,0,0,0-1.78,0l-6.17,3.08c-.53.27-.6.72-.15,1l6.26,4a2,2,0,0,0,1.78,0l6.17-3.08C71.25,78.59,71.32,78.14,70.87,77.85Z" fill="none" stroke="#000" stroke-miterlimit="10" stroke-width="1.5"/>
          <path d="M81,84.26l-6.26-4a2,2,0,0,0-1.78,0l-6.17,3.08c-.53.27-.6.72-.15,1l6.26,4a2,2,0,0,0,1.78,0l6.17-3.08C81.33,85,81.4,84.55,81,84.26Z" fill="none" stroke="#000" stroke-miterlimit="10" stroke-width="1.5"/>
          <path d="M91,90.67l-6.26-4a2,2,0,0,0-1.78,0l-6.17,3.08c-.53.27-.6.72-.15,1l6.26,4a2,2,0,0,0,1.78,0l6.17-3.08C91.41,91.4,91.48,91,91,90.67Z" fill="none" stroke="#000" stroke-miterlimit="10" stroke-width="1.5"/>
          <path d="M101.11,97.07l-6.26-4a2,2,0,0,0-1.78,0l-6.17,3.08c-.53.27-.6.72-.15,1l6.26,4a2,2,0,0,0,1.78,0L101,98.07C101.49,97.81,101.56,97.36,101.11,97.07Z" fill="none" stroke="#000" stroke-miterlimit="10" stroke-width="1.5"/>
          <path d="M111.19,103.48l-6.26-4a2,2,0,0,0-1.78,0L97,102.55c-.53.27-.6.72-.15,1l6.26,4a2,2,0,0,0,1.78,0l6.17-3.08C111.57,104.21,111.64,103.76,111.19,103.48Z" fill="none" stroke="#000" stroke-miterlimit="10" stroke-width="1.5"/>
          <path d="M121.26,109.88l-6.26-4a2,2,0,0,0-1.78,0L107,109c-.53.27-.6.72-.15,1l6.26,4a2,2,0,0,0,1.78,0l6.17-3.08C121.65,110.62,121.71,110.17,121.26,109.88Z" fill="none" stroke="#000" stroke-miterlimit="10" stroke-width="1.5"/>
          <path d="M131.34,116.29l-6.26-4a2,2,0,0,0-1.78,0l-6.17,3.08c-.53.27-.6.72-.15,1l6.26,4a2,2,0,0,0,1.78,0l6.17-3.08C131.72,117,131.79,116.58,131.34,116.29Z" fill="none" stroke="#000" stroke-miterlimit="10" stroke-width="1.5"/>
          <path d="M141.42,122.7l-6.26-4a2,2,0,0,0-1.78,0l-6.17,3.08c-.53.27-.6.72-.15,1l6.26,4a2,2,0,0,0,1.78,0l6.17-3.08C141.8,123.43,141.87,123,141.42,122.7Z" fill="none" stroke="#000" stroke-miterlimit="10" stroke-width="1.5"/>
          <path d="M151.5,129.1l-6.26-4a2,2,0,0,0-1.78,0l-6.17,3.08c-.53.27-.6.72-.15,1l6.26,4a2,2,0,0,0,1.78,0l6.17-3.08C151.88,129.84,151.95,129.39,151.5,129.1Z" fill="none" stroke="#000" stroke-miterlimit="10" stroke-width="1.5"/>
          <path d="M161.58,135.51l-6.26-4a2,2,0,0,0-1.78,0l-6.17,3.08c-.53.27-.6.72-.15,1l6.26,4a2,2,0,0,0,1.78,0l6.17-3.08C162,136.24,162,135.79,161.58,135.51Z" fill="none" stroke="#000" stroke-miterlimit="10" stroke-width="1.5"/>
          <path d="M171.65,141.91l-6.26-4a2,2,0,0,0-1.78,0L157.44,141c-.53.27-.6.72-.15,1l6.26,4a2,2,0,0,0,1.78,0l6.17-3.08C172,142.65,172.11,142.2,171.65,141.91Z" fill="none" stroke="#000" stroke-miterlimit="10" stroke-width="1.5"/>
          <path d="M84.3,74.63l-6.26-4a2,2,0,0,0-1.78,0L70.09,73.7c-.53.27-.6.72-.15,1l6.26,4a2,2,0,0,0,1.78,0l6.17-3.08C84.68,75.37,84.75,74.92,84.3,74.63Z" fill="none" stroke="#000" stroke-miterlimit="10" stroke-width="1.5"/>
          <path d="M94.38,81l-6.26-4a2,2,0,0,0-1.78,0l-6.17,3.08c-.53.27-.6.72-.15,1l6.26,4a2,2,0,0,0,1.78,0L94.23,82C94.76,81.77,94.83,81.32,94.38,81Z" fill="none" stroke="#000" stroke-miterlimit="10" stroke-width="1.5"/>
          <path d="M104.46,87.44l-6.26-4a2,2,0,0,0-1.78,0l-6.17,3.08c-.53.27-.6.72-.15,1l6.26,4a2,2,0,0,0,1.78,0l6.17-3.08C104.84,88.18,104.91,87.73,104.46,87.44Z" fill="none" stroke="#000" stroke-miterlimit="10" stroke-width="1.5"/>
          <path d="M114.54,93.85l-6.26-4a2,2,0,0,0-1.78,0l-6.17,3.08c-.53.27-.6.72-.15,1l6.26,4a2,2,0,0,0,1.78,0l6.17-3.08C114.92,94.58,115,94.13,114.54,93.85Z" fill="none" stroke="#000" stroke-miterlimit="10" stroke-width="1.5"/>
          <path d="M124.62,100.25l-6.26-4a2,2,0,0,0-1.78,0l-6.17,3.08c-.53.27-.6.72-.15,1l6.26,4a2,2,0,0,0,1.78,0l6.17-3.08C125,101,125.07,100.54,124.62,100.25Z" fill="none" stroke="#000" stroke-miterlimit="10" stroke-width="1.5"/>
          <path d="M134.69,106.66l-6.26-4a2,2,0,0,0-1.78,0l-6.17,3.08c-.53.27-.6.72-.15,1l6.26,4a2,2,0,0,0,1.78,0l6.17-3.08C135.08,107.39,135.14,106.95,134.69,106.66Z" fill="none" stroke="#000" stroke-miterlimit="10" stroke-width="1.5"/>
          <path d="M144.77,113.07l-6.26-4a2,2,0,0,0-1.78,0l-6.17,3.08c-.53.27-.6.72-.15,1l6.26,4a2,2,0,0,0,1.78,0l6.17-3.08C145.15,113.8,145.22,113.35,144.77,113.07Z" fill="none" stroke="#000" stroke-miterlimit="10" stroke-width="1.5"/>
          <path d="M154.85,119.47l-6.26-4a2,2,0,0,0-1.78,0l-6.17,3.08c-.53.27-.6.72-.15,1l6.26,4a2,2,0,0,0,1.78,0l6.17-3.08C155.23,120.21,155.3,119.76,154.85,119.47Z" fill="none" stroke="#000" stroke-miterlimit="10" stroke-width="1.5"/>
          <path d="M164.93,125.88l-6.26-4a2,2,0,0,0-1.78,0l-6.17,3.08c-.53.27-.6.72-.15,1l6.26,4a2,2,0,0,0,1.78,0l6.17-3.08C165.31,126.61,165.38,126.16,164.93,125.88Z" fill="none" stroke="#000" stroke-miterlimit="10" stroke-width="1.5"/>
          <path d="M175,132.28l-6.26-4a2,2,0,0,0-1.78,0l-6.17,3.08c-.53.27-.6.72-.15,1l6.26,4a2,2,0,0,0,1.78,0l6.17-3.08C175.39,133,175.46,132.57,175,132.28Z" fill="none" stroke="#000" stroke-miterlimit="10" stroke-width="1.5"/>
        </g>
      </g>
    </g>
  </g>
</svg>
