<svg xmlns="http://www.w3.org/2000/svg" width="1295.11" height="803.77" viewBox="0 0 1295.11 803.77">
  <title>keyboard_ill</title>
  <g id="Layer_2" data-name="Layer 2">
    <g id="Layer_1-2" data-name="Layer 1">
      <rect width="1295.11" height="803.77" fill="#fff"/>
      <g>
        <polyline id="color" points="963.43 103.16 1015.48 132.1 1070.23 99.69 1063.54 61.47 1018.95 35.59 971.01 61.92 962.95 101.69" fill="#fff"/>
        <g>
          <path d="M1012.23,89.15l-41.62-24c-1.42-.82-1.24-2.25.4-3.2l44.29-25.57a6.16,6.16,0,0,1,5.54-.23l41.62,24c1.42.82,1.24,2.25-.4,3.2l-44.29,25.57A6.16,6.16,0,0,1,1012.23,89.15Z" fill="none" stroke="#000" stroke-miterlimit="10" stroke-width="4"/>
          <path d="M1063.54,61.47l6.7,38.22a1.15,1.15,0,0,1-.48,1.47l-54.27,30.95a1.89,1.89,0,0,1-1.88,0l-50.17-28.94a1.15,1.15,0,0,1-.48-1.46l6.7-38.22" fill="none" stroke="#000" stroke-miterlimit="10" stroke-width="4"/>
          <line x1="1015.04" y1="133.14" x2="1015.04" y2="90.14" fill="none" stroke="#000" stroke-miterlimit="10" stroke-width="4"/>
        </g>
      </g>
      <g>
        <polyline id="color-2" data-name="color" points="1017.17 134.66 1069.22 163.6 1123.97 131.19 1117.28 92.97 1072.68 67.09 1024.75 93.42 1016.69 133.19" fill="#fff"/>
        <g>
          <path d="M1066,120.65l-41.62-24c-1.42-.82-1.24-2.25.4-3.2L1069,67.85a6.16,6.16,0,0,1,5.54-.23l41.62,24c1.42.82,1.24,2.25-.4,3.2l-44.29,25.57A6.16,6.16,0,0,1,1066,120.65Z" fill="none" stroke="#000" stroke-miterlimit="10" stroke-width="4"/>
          <path d="M1117.27,93l6.7,38.22a1.15,1.15,0,0,1-.48,1.47l-54.27,30.95a1.89,1.89,0,0,1-1.88,0l-50.17-28.94a1.15,1.15,0,0,1-.48-1.46l6.7-38.22" fill="none" stroke="#000" stroke-miterlimit="10" stroke-width="4"/>
          <line x1="1068.77" y1="164.64" x2="1068.77" y2="121.64" fill="none" stroke="#000" stroke-miterlimit="10" stroke-width="4"/>
        </g>
      </g>
      <g>
        <polyline id="color-3" data-name="color" points="1070.91 166.16 1122.95 195.1 1177.71 162.69 1171.01 124.47 1126.42 98.59 1078.48 124.92 1070.43 164.69" fill="#fff"/>
        <g>
          <path d="M1119.71,152.15l-41.62-24c-1.42-.82-1.24-2.25.4-3.2l44.29-25.57a6.16,6.16,0,0,1,5.54-.23l41.62,24c1.42.82,1.24,2.25-.4,3.2l-44.29,25.57A6.16,6.16,0,0,1,1119.71,152.15Z" fill="none" stroke="#000" stroke-miterlimit="10" stroke-width="4"/>
          <path d="M1171,124.47l6.7,38.22a1.15,1.15,0,0,1-.48,1.47L1123,195.1a1.89,1.89,0,0,1-1.88,0l-50.17-28.94a1.15,1.15,0,0,1-.48-1.46l6.7-38.22" fill="none" stroke="#000" stroke-miterlimit="10" stroke-width="4"/>
          <line x1="1122.51" y1="196.14" x2="1122.51" y2="153.14" fill="none" stroke="#000" stroke-miterlimit="10" stroke-width="4"/>
        </g>
      </g>
      <g>
        <polyline id="color-4" data-name="color" points="1124.65 197.66 1176.69 226.6 1231.45 194.19 1224.75 155.97 1180.16 130.09 1132.22 156.42 1124.17 196.19" fill="#fff"/>
        <g>
          <path d="M1173.45,183.65l-41.62-24c-1.42-.82-1.24-2.25.4-3.2l44.29-25.57a6.16,6.16,0,0,1,5.54-.23l41.62,24c1.42.82,1.24,2.25-.4,3.2L1179,183.42A6.16,6.16,0,0,1,1173.45,183.65Z" fill="none" stroke="#000" stroke-miterlimit="10" stroke-width="4"/>
          <path d="M1224.75,156l6.7,38.22a1.15,1.15,0,0,1-.48,1.47l-54.27,30.95a1.89,1.89,0,0,1-1.88,0l-50.17-28.94a1.15,1.15,0,0,1-.48-1.46l6.7-38.22" fill="none" stroke="#000" stroke-miterlimit="10" stroke-width="4"/>
          <line x1="1176.25" y1="227.64" x2="1176.25" y2="184.64" fill="none" stroke="#000" stroke-miterlimit="10" stroke-width="4"/>
        </g>
      </g>
      <g>
        <polyline id="color-5" data-name="color" points="1178.38 230.59 1230.43 259.54 1285.18 227.13 1278.49 188.91 1233.9 163.03 1185.96 189.36 1177.9 229.13" fill="#fff"/>
        <g>
          <path d="M1227.18,216.59l-41.62-24c-1.42-.82-1.24-2.25.4-3.2l44.29-25.57a6.16,6.16,0,0,1,5.54-.23l41.62,24c1.42.82,1.24,2.25-.4,3.2l-44.29,25.57A6.16,6.16,0,0,1,1227.18,216.59Z" fill="none" stroke="#000" stroke-miterlimit="10" stroke-width="4"/>
          <path d="M1278.49,188.91l6.7,38.22a1.15,1.15,0,0,1-.48,1.47l-54.27,30.95a1.89,1.89,0,0,1-1.88,0l-50.17-28.94a1.15,1.15,0,0,1-.48-1.46l6.7-38.22" fill="none" stroke="#000" stroke-miterlimit="10" stroke-width="4"/>
          <line x1="1229.99" y1="260.58" x2="1229.99" y2="217.58" fill="none" stroke="#000" stroke-miterlimit="10" stroke-width="4"/>
        </g>
      </g>
      <g>
        <polyline id="color-6" data-name="color" points="827.1 180.66 879.14 209.6 1011.64 133.53 1004.94 95.31 960.35 69.43 834.67 139.42 826.62 179.19" fill="#fff"/>
        <g>
          <path d="M875.9,166.65l-41.62-24c-1.42-.82-1.24-2.25.4-3.2l122-69.23a6.16,6.16,0,0,1,5.54-.23l41.62,24c1.42.82,1.24,2.25-.4,3.2l-122,69.23A6.16,6.16,0,0,1,875.9,166.65Z" fill="none" stroke="#000" stroke-miterlimit="10" stroke-width="4"/>
          <path d="M1004.94,95.31l6.7,38.22a1.15,1.15,0,0,1-.48,1.47l-132,74.61a1.89,1.89,0,0,1-1.88,0L827.1,180.66a1.15,1.15,0,0,1-.48-1.46l6.7-38.22" fill="none" stroke="#000" stroke-miterlimit="10" stroke-width="4"/>
          <line x1="878.7" y1="210.64" x2="878.7" y2="167.64" fill="none" stroke="#000" stroke-miterlimit="10" stroke-width="4"/>
        </g>
      </g>
      <g>
        <polyline id="color-7" data-name="color" points="902.2 200.97 954.24 229.92 1065.84 165.83 1059.14 127.62 1014.55 101.74 909.77 159.74 901.72 199.51" fill="#fff"/>
        <g>
          <path d="M951,187l-41.62-24c-1.42-.82-1.24-2.25.4-3.2L1010.9,102.5a6.16,6.16,0,0,1,5.54-.23l41.62,24c1.42.82,1.24,2.25-.4,3.2L956.54,186.74A6.16,6.16,0,0,1,951,187Z" fill="none" stroke="#000" stroke-miterlimit="10" stroke-width="4"/>
          <path d="M1059.14,127.62l6.7,38.22a1.15,1.15,0,0,1-.48,1.47L954.24,229.92a1.89,1.89,0,0,1-1.88,0L902.2,201a1.15,1.15,0,0,1-.48-1.46l6.7-38.22" fill="none" stroke="#000" stroke-miterlimit="10" stroke-width="4"/>
          <line x1="953.8" y1="230.96" x2="953.8" y2="187.96" fill="none" stroke="#000" stroke-miterlimit="10" stroke-width="4"/>
        </g>
      </g>
      <g>
        <polyline id="color-8" data-name="color" points="769.43 214.01 821.47 242.96 876.23 210.54 869.53 172.33 824.94 146.45 777 172.78 768.95 212.55" fill="#fff"/>
        <g>
          <path d="M818.23,200l-41.62-24c-1.42-.82-1.24-2.25.4-3.2l44.29-25.57a6.16,6.16,0,0,1,5.54-.23l41.62,24c1.42.82,1.24,2.25-.4,3.2l-44.29,25.57A6.16,6.16,0,0,1,818.23,200Z" fill="none" stroke="#000" stroke-miterlimit="10" stroke-width="4"/>
          <path d="M869.53,172.33l6.7,38.22a1.15,1.15,0,0,1-.48,1.47L821.47,243a1.89,1.89,0,0,1-1.88,0L769.43,214a1.15,1.15,0,0,1-.48-1.46l6.7-38.22" fill="none" stroke="#000" stroke-miterlimit="10" stroke-width="4"/>
          <line x1="821.03" y1="243.99" x2="821.03" y2="200.99" fill="none" stroke="#000" stroke-miterlimit="10" stroke-width="4"/>
        </g>
      </g>
      <g>
        <polyline id="color-9" data-name="color" points="846.32 234.44 898.36 263.39 953.12 230.98 946.42 192.76 901.83 166.88 853.89 193.21 845.84 232.98" fill="#fff"/>
        <g>
          <path d="M895.12,220.44l-41.62-24c-1.42-.82-1.24-2.25.4-3.2l44.29-25.57a6.16,6.16,0,0,1,5.54-.23l41.62,24c1.42.82,1.24,2.25-.4,3.2l-44.29,25.57A6.16,6.16,0,0,1,895.12,220.44Z" fill="none" stroke="#000" stroke-miterlimit="10" stroke-width="4"/>
          <path d="M946.42,192.76l6.7,38.22a1.15,1.15,0,0,1-.48,1.47l-54.27,30.95a1.89,1.89,0,0,1-1.88,0l-50.17-28.94a1.15,1.15,0,0,1-.48-1.46l6.7-38.22" fill="none" stroke="#000" stroke-miterlimit="10" stroke-width="4"/>
          <line x1="897.92" y1="264.43" x2="897.92" y2="221.43" fill="none" stroke="#000" stroke-miterlimit="10" stroke-width="4"/>
        </g>
      </g>
      <g>
        <polyline id="color-10" data-name="color" points="710.93 247.01 762.97 275.96 817.73 243.54 811.03 205.33 766.44 179.45 718.5 205.78 710.45 245.55" fill="#fff"/>
        <g>
          <path d="M759.73,233l-41.62-24c-1.42-.82-1.24-2.25.4-3.2l44.29-25.57a6.16,6.16,0,0,1,5.54-.23L810,204c1.42.82,1.24,2.25-.4,3.2l-44.29,25.57A6.16,6.16,0,0,1,759.73,233Z" fill="none" stroke="#000" stroke-miterlimit="10" stroke-width="4"/>
          <path d="M811,205.33l6.7,38.22a1.15,1.15,0,0,1-.48,1.47L763,276a1.89,1.89,0,0,1-1.88,0L710.93,247a1.15,1.15,0,0,1-.48-1.46l6.7-38.22" fill="none" stroke="#000" stroke-miterlimit="10" stroke-width="4"/>
          <line x1="762.53" y1="276.99" x2="762.53" y2="233.99" fill="none" stroke="#000" stroke-miterlimit="10" stroke-width="4"/>
        </g>
      </g>
      <g>
        <polyline id="color-11" data-name="color" points="787.82 267.55 839.86 296.49 894.62 264.08 887.92 225.86 843.33 199.98 795.39 226.31 787.34 266.08" fill="#fff"/>
        <g>
          <path d="M836.62,253.55l-41.62-24c-1.42-.82-1.24-2.25.4-3.2l44.29-25.57a6.16,6.16,0,0,1,5.54-.23l41.62,24c1.42.82,1.24,2.25-.4,3.2l-44.29,25.57A6.16,6.16,0,0,1,836.62,253.55Z" fill="none" stroke="#000" stroke-miterlimit="10" stroke-width="4"/>
          <path d="M887.92,225.86l6.7,38.22a1.15,1.15,0,0,1-.48,1.47l-54.27,30.95a1.89,1.89,0,0,1-1.88,0l-50.17-28.94a1.15,1.15,0,0,1-.48-1.46l6.7-38.22" fill="none" stroke="#000" stroke-miterlimit="10" stroke-width="4"/>
          <line x1="839.42" y1="297.53" x2="839.42" y2="254.53" fill="none" stroke="#000" stroke-miterlimit="10" stroke-width="4"/>
        </g>
      </g>
      <g>
        <polyline id="color-12" data-name="color" points="935.5 245.26 987.55 274.21 1120.04 198.13 1113.34 159.92 1068.75 134.04 943.08 204.03 935.02 243.8" fill="#fff"/>
        <g>
          <path d="M984.3,231.26l-41.62-24c-1.42-.82-1.24-2.25.4-3.2l122-69.23a6.16,6.16,0,0,1,5.54-.23l41.62,24c1.42.82,1.24,2.25-.4,3.2L989.84,231A6.16,6.16,0,0,1,984.3,231.26Z" fill="none" stroke="#000" stroke-miterlimit="10" stroke-width="4"/>
          <path d="M1113.34,159.92l6.7,38.22a1.15,1.15,0,0,1-.48,1.47l-132,74.61a1.89,1.89,0,0,1-1.88,0L935.5,245.26a1.15,1.15,0,0,1-.48-1.46l6.7-38.22" fill="none" stroke="#000" stroke-miterlimit="10" stroke-width="4"/>
          <line x1="987.11" y1="275.25" x2="987.11" y2="232.25" fill="none" stroke="#000" stroke-miterlimit="10" stroke-width="4"/>
        </g>
      </g>
      <g>
        <polyline id="color-13" data-name="color" points="652.43 280.01 704.47 308.96 759.23 276.54 752.53 238.33 707.94 212.45 660 238.78 651.95 278.55" fill="#fff"/>
        <g>
          <path d="M701.23,266l-41.62-24c-1.42-.82-1.24-2.25.4-3.2l44.29-25.57a6.16,6.16,0,0,1,5.54-.23l41.62,24c1.42.82,1.24,2.25-.4,3.2l-44.29,25.57A6.16,6.16,0,0,1,701.23,266Z" fill="none" stroke="#000" stroke-miterlimit="10" stroke-width="4"/>
          <path d="M752.53,238.33l6.7,38.22a1.15,1.15,0,0,1-.48,1.47L704.47,309a1.89,1.89,0,0,1-1.88,0L652.43,280a1.15,1.15,0,0,1-.48-1.46l6.7-38.22" fill="none" stroke="#000" stroke-miterlimit="10" stroke-width="4"/>
          <line x1="704.03" y1="309.99" x2="704.03" y2="266.99" fill="none" stroke="#000" stroke-miterlimit="10" stroke-width="4"/>
        </g>
      </g>
      <g>
        <polyline id="color-14" data-name="color" points="876.17 279.5 928.21 308.45 982.97 276.04 976.27 237.82 931.68 211.94 883.74 238.27 875.69 278.04" fill="#fff"/>
        <g>
          <path d="M925,265.5l-41.62-24c-1.42-.82-1.24-2.25.4-3.2L928,212.7a6.16,6.16,0,0,1,5.54-.23l41.62,24c1.42.82,1.24,2.25-.4,3.2l-44.29,25.57A6.16,6.16,0,0,1,925,265.5Z" fill="none" stroke="#000" stroke-miterlimit="10" stroke-width="4"/>
          <path d="M976.27,237.82,983,276a1.15,1.15,0,0,1-.48,1.47l-54.27,30.95a1.89,1.89,0,0,1-1.88,0L876.17,279.5a1.15,1.15,0,0,1-.48-1.46l6.7-38.22" fill="none" stroke="#000" stroke-miterlimit="10" stroke-width="4"/>
          <line x1="927.77" y1="309.49" x2="927.77" y2="266.49" fill="none" stroke="#000" stroke-miterlimit="10" stroke-width="4"/>
        </g>
      </g>
      <g id="active">
        <polygon id="active-color" points="694.5 307.14 649.91 281.26 600.63 309.58 645.97 335.36 694.5 307.14" fill="#fff"/>
        <g id="active-btn">
          <path d="M643.19,334.82l-41.62-24c-1.42-.82-1.24-2.25.4-3.2L646.26,282a6.16,6.16,0,0,1,5.54-.23l41.62,24c1.42.82,1.24,2.25-.4,3.2l-44.29,25.57A6.16,6.16,0,0,1,643.19,334.82Z" fill="none" stroke="#000" stroke-miterlimit="10" stroke-width="4"/>
        </g>
      </g>
      <g id="active-2" data-name="active">
        <polygon id="active-color-2" data-name="active-color" points="663.52 305.02 648.36 296.22 631.6 305.85 647.02 314.62 663.52 305.02" fill="#fff"/>
        <g id="active-btn-2" data-name="active-btn">
          <path d="M646.07,314.44l-14.15-8.17c-.48-.28-.42-.77.14-1.09l15.06-8.7a2.09,2.09,0,0,1,1.88-.08l14.15,8.17c.48.28.42.77-.14,1.09L648,314.36A2.09,2.09,0,0,1,646.07,314.44Z" fill="none" stroke="#000" stroke-miterlimit="10" stroke-width="4"/>
        </g>
      </g>
      <g>
        <polyline id="color-15" data-name="color" points="535.43 346.01 587.47 374.96 642.23 342.54 635.53 304.33 590.94 278.45 543 304.78 534.95 344.55" fill="#fff"/>
        <g>
          <path d="M584.23,332l-41.62-24c-1.42-.82-1.24-2.25.4-3.2l44.29-25.57a6.16,6.16,0,0,1,5.54-.23l41.62,24c1.42.82,1.24,2.25-.4,3.2l-44.29,25.57A6.16,6.16,0,0,1,584.23,332Z" fill="none" stroke="#000" stroke-miterlimit="10" stroke-width="4"/>
          <path d="M635.53,304.33l6.7,38.22a1.15,1.15,0,0,1-.48,1.47L587.47,375a1.89,1.89,0,0,1-1.88,0L535.43,346a1.15,1.15,0,0,1-.48-1.46l6.7-38.22" fill="none" stroke="#000" stroke-miterlimit="10" stroke-width="4"/>
          <line x1="587.03" y1="375.99" x2="587.03" y2="332.99" fill="none" stroke="#000" stroke-miterlimit="10" stroke-width="4"/>
        </g>
      </g>
      <g>
        <polyline id="color-16" data-name="color" points="476.93 379.01 528.97 407.96 583.73 375.54 577.03 337.33 532.44 311.45 484.5 337.78 476.45 377.55" fill="#fff"/>
        <g>
          <path d="M525.73,365l-41.62-24c-1.42-.82-1.24-2.25.4-3.2l44.29-25.57a6.16,6.16,0,0,1,5.54-.23L576,336c1.42.82,1.24,2.25-.4,3.2l-44.29,25.57A6.16,6.16,0,0,1,525.73,365Z" fill="none" stroke="#000" stroke-miterlimit="10" stroke-width="4"/>
          <path d="M577,337.33l6.7,38.22a1.15,1.15,0,0,1-.48,1.47L529,408a1.89,1.89,0,0,1-1.88,0L476.93,379a1.15,1.15,0,0,1-.48-1.46l6.7-38.22" fill="none" stroke="#000" stroke-miterlimit="10" stroke-width="4"/>
          <line x1="528.53" y1="408.99" x2="528.53" y2="365.99" fill="none" stroke="#000" stroke-miterlimit="10" stroke-width="4"/>
        </g>
      </g>
      <g>
        <polyline id="color-17" data-name="color" points="418.43 412.01 470.47 440.96 525.23 408.54 518.53 370.33 473.94 344.45 426 370.78 417.95 410.55" fill="#fff"/>
        <g>
          <path d="M467.23,398l-41.62-24c-1.42-.82-1.24-2.25.4-3.2l44.29-25.57a6.16,6.16,0,0,1,5.54-.23l41.62,24c1.42.82,1.24,2.25-.4,3.2l-44.29,25.57A6.16,6.16,0,0,1,467.23,398Z" fill="none" stroke="#000" stroke-miterlimit="10" stroke-width="4"/>
          <path d="M518.53,370.33l6.7,38.22a1.15,1.15,0,0,1-.48,1.47L470.47,441a1.89,1.89,0,0,1-1.88,0L418.43,412a1.15,1.15,0,0,1-.48-1.46l6.7-38.22" fill="none" stroke="#000" stroke-miterlimit="10" stroke-width="4"/>
          <line x1="470.03" y1="441.99" x2="470.03" y2="398.99" fill="none" stroke="#000" stroke-miterlimit="10" stroke-width="4"/>
        </g>
      </g>
      <g>
        <polyline id="color-18" data-name="color" points="359.93 445.01 411.97 473.96 466.73 441.54 460.03 403.33 415.44 377.45 367.5 403.78 359.45 443.55" fill="#fff"/>
        <g>
          <path d="M408.73,431l-41.62-24c-1.42-.82-1.24-2.25.4-3.2l44.29-25.57a6.16,6.16,0,0,1,5.54-.23L459,402c1.42.82,1.24,2.25-.4,3.2l-44.29,25.57A6.16,6.16,0,0,1,408.73,431Z" fill="none" stroke="#000" stroke-miterlimit="10" stroke-width="4"/>
          <path d="M460,403.33l6.7,38.22a1.15,1.15,0,0,1-.48,1.47L412,474a1.89,1.89,0,0,1-1.88,0L359.93,445a1.15,1.15,0,0,1-.48-1.46l6.7-38.22" fill="none" stroke="#000" stroke-miterlimit="10" stroke-width="4"/>
          <line x1="411.53" y1="474.99" x2="411.53" y2="431.99" fill="none" stroke="#000" stroke-miterlimit="10" stroke-width="4"/>
        </g>
      </g>
      <g>
        <polyline id="color-19" data-name="color" points="301.43 478.01 353.47 506.96 408.23 474.54 401.53 436.33 356.94 410.45 309 436.78 300.95 476.55" fill="#fff"/>
        <g>
          <path d="M350.23,464l-41.62-24c-1.42-.82-1.24-2.25.4-3.2l44.29-25.57a6.16,6.16,0,0,1,5.54-.23l41.62,24c1.42.82,1.24,2.25-.4,3.2l-44.29,25.57A6.16,6.16,0,0,1,350.23,464Z" fill="none" stroke="#000" stroke-miterlimit="10" stroke-width="4"/>
          <path d="M401.53,436.33l6.7,38.22a1.15,1.15,0,0,1-.48,1.47L353.47,507a1.89,1.89,0,0,1-1.88,0L301.43,478a1.15,1.15,0,0,1-.48-1.46l6.7-38.22" fill="none" stroke="#000" stroke-miterlimit="10" stroke-width="4"/>
          <line x1="353.03" y1="507.99" x2="353.03" y2="464.99" fill="none" stroke="#000" stroke-miterlimit="10" stroke-width="4"/>
        </g>
      </g>
      <g>
        <polyline id="color-20" data-name="color" points="242.93 511.01 294.97 539.96 349.73 507.54 343.03 469.33 298.44 443.45 250.5 469.78 242.45 509.55" fill="#fff"/>
        <g>
          <path d="M291.73,497l-41.62-24c-1.42-.82-1.24-2.25.4-3.2l44.29-25.57a6.16,6.16,0,0,1,5.54-.23L342,468c1.42.82,1.24,2.25-.4,3.2l-44.29,25.57A6.16,6.16,0,0,1,291.73,497Z" fill="none" stroke="#000" stroke-miterlimit="10" stroke-width="4"/>
          <path d="M343,469.33l6.7,38.22a1.15,1.15,0,0,1-.48,1.47L295,540a1.89,1.89,0,0,1-1.88,0L242.93,511a1.15,1.15,0,0,1-.48-1.46l6.7-38.22" fill="none" stroke="#000" stroke-miterlimit="10" stroke-width="4"/>
          <line x1="294.53" y1="540.99" x2="294.53" y2="497.99" fill="none" stroke="#000" stroke-miterlimit="10" stroke-width="4"/>
        </g>
      </g>
      <g>
        <polyline id="color-21" data-name="color" points="184.43 544.03 236.47 572.98 291.23 540.57 284.53 502.35 239.94 476.47 192 502.8 183.95 542.57" fill="#fff"/>
        <g>
          <path d="M233.23,530l-41.62-24c-1.42-.82-1.24-2.25.4-3.2l44.29-25.57a6.16,6.16,0,0,1,5.54-.23l41.62,24c1.42.82,1.24,2.25-.4,3.2L238.77,529.8A6.16,6.16,0,0,1,233.23,530Z" fill="none" stroke="#000" stroke-miterlimit="10" stroke-width="4"/>
          <path d="M284.53,502.35l6.7,38.22a1.15,1.15,0,0,1-.48,1.47L236.47,573a1.89,1.89,0,0,1-1.88,0L184.43,544a1.15,1.15,0,0,1-.48-1.46l6.7-38.22" fill="none" stroke="#000" stroke-miterlimit="10" stroke-width="4"/>
          <line x1="236.03" y1="574.02" x2="236.03" y2="531.02" fill="none" stroke="#000" stroke-miterlimit="10" stroke-width="4"/>
        </g>
      </g>
      <g>
        <polyline id="color-22" data-name="color" points="125.93 577.05 177.97 606 232.73 573.59 226.03 535.37 181.44 509.49 133.5 535.82 125.45 575.59" fill="#fff"/>
        <g>
          <path d="M174.73,563.05l-41.62-24c-1.42-.82-1.24-2.25.4-3.2l44.29-25.57a6.16,6.16,0,0,1,5.54-.23l41.62,24c1.42.82,1.24,2.25-.4,3.2l-44.29,25.57A6.16,6.16,0,0,1,174.73,563.05Z" fill="none" stroke="#000" stroke-miterlimit="10" stroke-width="4"/>
          <path d="M226,535.37l6.7,38.22a1.15,1.15,0,0,1-.48,1.47L178,606a1.89,1.89,0,0,1-1.88,0l-50.17-28.94a1.15,1.15,0,0,1-.48-1.46l6.7-38.22" fill="none" stroke="#000" stroke-miterlimit="10" stroke-width="4"/>
          <line x1="177.53" y1="607.04" x2="177.53" y2="564.04" fill="none" stroke="#000" stroke-miterlimit="10" stroke-width="4"/>
        </g>
      </g>
      <g>
        <polyline id="color-23" data-name="color" points="67.43 610.08 119.47 639.02 174.23 606.61 167.53 568.39 122.94 542.51 75 568.85 66.95 608.61" fill="#fff"/>
        <g>
          <path d="M116.23,596.07,74.61,572c-1.42-.82-1.24-2.25.4-3.2l44.29-25.57a6.16,6.16,0,0,1,5.54-.23l41.62,24c1.42.82,1.24,2.25-.4,3.2l-44.29,25.57A6.16,6.16,0,0,1,116.23,596.07Z" fill="none" stroke="#000" stroke-miterlimit="10" stroke-width="4"/>
          <path d="M167.53,568.39l6.7,38.22a1.15,1.15,0,0,1-.48,1.47L119.47,639a1.89,1.89,0,0,1-1.88,0L67.43,610.08a1.15,1.15,0,0,1-.48-1.46l6.7-38.22" fill="none" stroke="#000" stroke-miterlimit="10" stroke-width="4"/>
          <line x1="119.03" y1="640.06" x2="119.03" y2="597.06" fill="none" stroke="#000" stroke-miterlimit="10" stroke-width="4"/>
        </g>
      </g>
      <g>
        <polyline id="color-24" data-name="color" points="729.32 300.55 781.36 329.49 836.12 297.08 829.42 258.86 784.83 232.98 736.89 259.31 728.84 299.08" fill="#fff"/>
        <g>
          <path d="M778.12,286.55l-41.62-24c-1.42-.82-1.24-2.25.4-3.2l44.29-25.57a6.16,6.16,0,0,1,5.54-.23l41.62,24c1.42.82,1.24,2.25-.4,3.2l-44.29,25.57A6.16,6.16,0,0,1,778.12,286.55Z" fill="none" stroke="#000" stroke-miterlimit="10" stroke-width="4"/>
          <path d="M829.42,258.86l6.7,38.22a1.15,1.15,0,0,1-.48,1.47l-54.27,30.95a1.89,1.89,0,0,1-1.88,0l-50.17-28.94a1.15,1.15,0,0,1-.48-1.46l6.7-38.22" fill="none" stroke="#000" stroke-miterlimit="10" stroke-width="4"/>
          <line x1="780.92" y1="330.53" x2="780.92" y2="287.53" fill="none" stroke="#000" stroke-miterlimit="10" stroke-width="4"/>
        </g>
      </g>
      <g>
        <polyline id="color-25" data-name="color" points="670.82 333.55 722.86 362.49 777.62 330.08 770.92 291.86 726.33 265.98 678.39 292.31 670.34 332.08" fill="#fff"/>
        <g>
          <path d="M719.62,319.55l-41.62-24c-1.42-.82-1.24-2.25.4-3.2l44.29-25.57a6.16,6.16,0,0,1,5.54-.23l41.62,24c1.42.82,1.24,2.25-.4,3.2l-44.29,25.57A6.16,6.16,0,0,1,719.62,319.55Z" fill="none" stroke="#000" stroke-miterlimit="10" stroke-width="4"/>
          <path d="M770.92,291.86l6.7,38.22a1.15,1.15,0,0,1-.48,1.47l-54.27,30.95a1.89,1.89,0,0,1-1.88,0l-50.17-28.94a1.15,1.15,0,0,1-.48-1.46l6.7-38.22" fill="none" stroke="#000" stroke-miterlimit="10" stroke-width="4"/>
          <line x1="722.42" y1="363.53" x2="722.42" y2="320.53" fill="none" stroke="#000" stroke-miterlimit="10" stroke-width="4"/>
        </g>
      </g>
      <g>
        <polyline id="color-26" data-name="color" points="612.32 366.55 664.36 395.49 719.12 363.08 712.42 324.86 667.83 298.98 619.89 325.31 611.84 365.08" fill="#fff"/>
        <g>
          <path d="M661.12,352.55l-41.62-24c-1.42-.82-1.24-2.25.4-3.2l44.29-25.57a6.16,6.16,0,0,1,5.54-.23l41.62,24c1.42.82,1.24,2.25-.4,3.2l-44.29,25.57A6.16,6.16,0,0,1,661.12,352.55Z" fill="none" stroke="#000" stroke-miterlimit="10" stroke-width="4"/>
          <path d="M712.42,324.86l6.7,38.22a1.15,1.15,0,0,1-.48,1.47l-54.27,30.95a1.89,1.89,0,0,1-1.88,0l-50.17-28.94a1.15,1.15,0,0,1-.48-1.46l6.7-38.22" fill="none" stroke="#000" stroke-miterlimit="10" stroke-width="4"/>
          <line x1="663.92" y1="396.53" x2="663.92" y2="353.53" fill="none" stroke="#000" stroke-miterlimit="10" stroke-width="4"/>
        </g>
      </g>
      <g>
        <polyline id="color-27" data-name="color" points="553.82 399.55 605.86 428.49 660.62 396.08 653.92 357.86 609.33 331.98 561.39 358.31 553.34 398.08" fill="#fff"/>
        <g>
          <path d="M602.62,385.55l-41.62-24c-1.42-.82-1.24-2.25.4-3.2l44.29-25.57a6.16,6.16,0,0,1,5.54-.23l41.62,24c1.42.82,1.24,2.25-.4,3.2l-44.29,25.57A6.16,6.16,0,0,1,602.62,385.55Z" fill="none" stroke="#000" stroke-miterlimit="10" stroke-width="4"/>
          <path d="M653.92,357.86l6.7,38.22a1.15,1.15,0,0,1-.48,1.47l-54.27,30.95a1.89,1.89,0,0,1-1.88,0l-50.17-28.94a1.15,1.15,0,0,1-.48-1.46l6.7-38.22" fill="none" stroke="#000" stroke-miterlimit="10" stroke-width="4"/>
          <line x1="605.42" y1="429.53" x2="605.42" y2="386.53" fill="none" stroke="#000" stroke-miterlimit="10" stroke-width="4"/>
        </g>
      </g>
      <g>
        <polyline id="color-28" data-name="color" points="495.32 432.55 547.36 461.49 602.12 429.08 595.42 390.86 550.83 364.98 502.89 391.31 494.84 431.08" fill="#fff"/>
        <g>
          <path d="M544.12,418.55l-41.62-24c-1.42-.82-1.24-2.25.4-3.2l44.29-25.57a6.16,6.16,0,0,1,5.54-.23l41.62,24c1.42.82,1.24,2.25-.4,3.2l-44.29,25.57A6.16,6.16,0,0,1,544.12,418.55Z" fill="none" stroke="#000" stroke-miterlimit="10" stroke-width="4"/>
          <path d="M595.42,390.86l6.7,38.22a1.15,1.15,0,0,1-.48,1.47l-54.27,30.95a1.89,1.89,0,0,1-1.88,0l-50.17-28.94a1.15,1.15,0,0,1-.48-1.46l6.7-38.22" fill="none" stroke="#000" stroke-miterlimit="10" stroke-width="4"/>
          <line x1="546.92" y1="462.53" x2="546.92" y2="419.53" fill="none" stroke="#000" stroke-miterlimit="10" stroke-width="4"/>
        </g>
      </g>
      <g>
        <polyline id="color-29" data-name="color" points="436.82 465.55 488.86 494.49 543.62 462.08 536.92 423.86 492.33 397.98 444.39 424.31 436.34 464.08" fill="#fff"/>
        <g>
          <path d="M485.62,451.55l-41.62-24c-1.42-.82-1.24-2.25.4-3.2l44.29-25.57a6.16,6.16,0,0,1,5.54-.23l41.62,24c1.42.82,1.24,2.25-.4,3.2l-44.29,25.57A6.16,6.16,0,0,1,485.62,451.55Z" fill="none" stroke="#000" stroke-miterlimit="10" stroke-width="4"/>
          <path d="M536.92,423.86l6.7,38.22a1.15,1.15,0,0,1-.48,1.47l-54.27,30.95a1.89,1.89,0,0,1-1.88,0l-50.17-28.94a1.15,1.15,0,0,1-.48-1.46l6.7-38.22" fill="none" stroke="#000" stroke-miterlimit="10" stroke-width="4"/>
          <line x1="488.42" y1="495.53" x2="488.42" y2="452.53" fill="none" stroke="#000" stroke-miterlimit="10" stroke-width="4"/>
        </g>
      </g>
      <g>
        <polyline id="color-30" data-name="color" points="378.32 498.55 430.36 527.49 485.12 495.08 478.42 456.86 433.83 430.98 385.89 457.31 377.84 497.08" fill="#fff"/>
        <g>
          <path d="M427.12,484.55l-41.62-24c-1.42-.82-1.24-2.25.4-3.2l44.29-25.57a6.16,6.16,0,0,1,5.54-.23l41.62,24c1.42.82,1.24,2.25-.4,3.2l-44.29,25.57A6.16,6.16,0,0,1,427.12,484.55Z" fill="none" stroke="#000" stroke-miterlimit="10" stroke-width="4"/>
          <path d="M478.42,456.86l6.7,38.22a1.15,1.15,0,0,1-.48,1.47l-54.27,30.95a1.89,1.89,0,0,1-1.88,0l-50.17-28.94a1.15,1.15,0,0,1-.48-1.46l6.7-38.22" fill="none" stroke="#000" stroke-miterlimit="10" stroke-width="4"/>
          <line x1="429.92" y1="528.53" x2="429.92" y2="485.53" fill="none" stroke="#000" stroke-miterlimit="10" stroke-width="4"/>
        </g>
      </g>
      <g>
        <polyline id="color-31" data-name="color" points="319.82 531.55 371.86 560.49 426.62 528.08 419.92 489.86 375.33 463.98 327.39 490.31 319.34 530.08" fill="#fff"/>
        <g>
          <path d="M368.62,517.55l-41.62-24c-1.42-.82-1.24-2.25.4-3.2l44.29-25.57a6.16,6.16,0,0,1,5.54-.23l41.62,24c1.42.82,1.24,2.25-.4,3.2l-44.29,25.57A6.16,6.16,0,0,1,368.62,517.55Z" fill="none" stroke="#000" stroke-miterlimit="10" stroke-width="4"/>
          <path d="M419.92,489.86l6.7,38.22a1.15,1.15,0,0,1-.48,1.47l-54.27,30.95a1.89,1.89,0,0,1-1.88,0l-50.17-28.94a1.15,1.15,0,0,1-.48-1.46l6.7-38.22" fill="none" stroke="#000" stroke-miterlimit="10" stroke-width="4"/>
          <line x1="371.42" y1="561.53" x2="371.42" y2="518.53" fill="none" stroke="#000" stroke-miterlimit="10" stroke-width="4"/>
        </g>
      </g>
      <g>
        <polyline id="color-32" data-name="color" points="261.32 564.55 313.36 593.49 368.12 561.08 361.42 522.86 316.83 496.98 268.89 523.32 260.84 563.08" fill="#fff"/>
        <g>
          <path d="M310.12,550.55l-41.62-24c-1.42-.82-1.24-2.25.4-3.2l44.29-25.57a6.16,6.16,0,0,1,5.54-.23l41.62,24c1.42.82,1.24,2.25-.4,3.2l-44.29,25.57A6.16,6.16,0,0,1,310.12,550.55Z" fill="none" stroke="#000" stroke-miterlimit="10" stroke-width="4"/>
          <path d="M361.42,522.86l6.7,38.22a1.15,1.15,0,0,1-.48,1.47l-54.27,30.95a1.89,1.89,0,0,1-1.88,0l-50.17-28.94a1.15,1.15,0,0,1-.48-1.46l6.7-38.22" fill="none" stroke="#000" stroke-miterlimit="10" stroke-width="4"/>
          <line x1="312.92" y1="594.53" x2="312.92" y2="551.53" fill="none" stroke="#000" stroke-miterlimit="10" stroke-width="4"/>
        </g>
      </g>
      <g>
        <polyline id="color-33" data-name="color" points="202.82 597.55 254.86 626.49 309.62 594.08 302.92 555.86 258.33 529.98 210.4 556.32 202.34 596.08" fill="#fff"/>
        <g>
          <path d="M251.62,583.55l-41.62-24c-1.42-.82-1.24-2.25.4-3.2l44.29-25.57a6.16,6.16,0,0,1,5.54-.23l41.62,24c1.42.82,1.24,2.25-.4,3.2l-44.29,25.57A6.16,6.16,0,0,1,251.62,583.55Z" fill="none" stroke="#000" stroke-miterlimit="10" stroke-width="4"/>
          <path d="M302.92,555.86l6.7,38.22a1.15,1.15,0,0,1-.48,1.47l-54.27,30.95a1.89,1.89,0,0,1-1.88,0l-50.17-28.94a1.15,1.15,0,0,1-.48-1.46l6.7-38.22" fill="none" stroke="#000" stroke-miterlimit="10" stroke-width="4"/>
          <line x1="254.42" y1="627.53" x2="254.42" y2="584.53" fill="none" stroke="#000" stroke-miterlimit="10" stroke-width="4"/>
        </g>
      </g>
      <g>
        <polyline id="color-34" data-name="color" points="818.4 311.66 870.45 340.61 925.2 308.19 918.51 269.98 873.92 244.1 825.98 270.43 817.92 310.2" fill="#fff"/>
        <g>
          <path d="M867.2,297.66l-41.62-24c-1.42-.82-1.24-2.25.4-3.2l44.29-25.57a6.16,6.16,0,0,1,5.54-.23l41.62,24c1.42.82,1.24,2.25-.4,3.2l-44.29,25.57A6.16,6.16,0,0,1,867.2,297.66Z" fill="none" stroke="#000" stroke-miterlimit="10" stroke-width="4"/>
          <path d="M918.51,270l6.7,38.22a1.15,1.15,0,0,1-.48,1.47l-54.27,30.95a1.89,1.89,0,0,1-1.88,0L818.4,311.66a1.15,1.15,0,0,1-.48-1.46l6.7-38.22" fill="none" stroke="#000" stroke-miterlimit="10" stroke-width="4"/>
          <line x1="870.01" y1="341.65" x2="870.01" y2="298.65" fill="none" stroke="#000" stroke-miterlimit="10" stroke-width="4"/>
        </g>
      </g>
      <g>
        <polyline id="color-35" data-name="color" points="760.64 345.26 812.69 374.21 867.44 341.79 860.74 303.58 816.15 277.7 768.22 304.03 760.16 343.8" fill="#fff"/>
        <g>
          <path d="M809.44,331.26l-41.62-24c-1.42-.82-1.24-2.25.4-3.2l44.29-25.57a6.16,6.16,0,0,1,5.54-.23l41.62,24c1.42.82,1.24,2.25-.4,3.2L815,331A6.16,6.16,0,0,1,809.44,331.26Z" fill="none" stroke="#000" stroke-miterlimit="10" stroke-width="4"/>
          <path d="M860.74,303.58l6.7,38.22a1.15,1.15,0,0,1-.48,1.47l-54.27,30.95a1.89,1.89,0,0,1-1.88,0l-50.17-28.94a1.15,1.15,0,0,1-.48-1.46l6.7-38.22" fill="none" stroke="#000" stroke-miterlimit="10" stroke-width="4"/>
          <line x1="812.24" y1="375.25" x2="812.24" y2="332.25" fill="none" stroke="#000" stroke-miterlimit="10" stroke-width="4"/>
        </g>
      </g>
      <g>
        <polyline id="color-36" data-name="color" points="704.32 378.86 756.36 407.81 811.12 375.39 804.42 337.18 759.83 311.3 711.89 337.63 703.84 377.4" fill="#fff"/>
        <g>
          <path d="M753.12,364.86l-41.62-24c-1.42-.82-1.24-2.25.4-3.2l44.29-25.57a6.16,6.16,0,0,1,5.54-.23l41.62,24c1.42.82,1.24,2.25-.4,3.2l-44.29,25.57A6.16,6.16,0,0,1,753.12,364.86Z" fill="none" stroke="#000" stroke-miterlimit="10" stroke-width="4"/>
          <path d="M804.42,337.18l6.7,38.22a1.15,1.15,0,0,1-.48,1.47l-54.27,30.95a1.89,1.89,0,0,1-1.88,0l-50.17-28.94a1.15,1.15,0,0,1-.48-1.46l6.7-38.22" fill="none" stroke="#000" stroke-miterlimit="10" stroke-width="4"/>
          <line x1="755.92" y1="408.85" x2="755.92" y2="365.85" fill="none" stroke="#000" stroke-miterlimit="10" stroke-width="4"/>
        </g>
      </g>
      <g>
        <polyline id="color-37" data-name="color" points="646.55 411.02 698.6 439.97 753.36 407.55 746.66 369.34 702.07 343.46 654.13 369.79 646.08 409.56" fill="#fff"/>
        <g>
          <path d="M695.36,397l-41.62-24c-1.42-.82-1.24-2.25.4-3.2l44.29-25.57A6.16,6.16,0,0,1,704,344l41.62,24c1.42.82,1.24,2.25-.4,3.2L700.9,396.79A6.16,6.16,0,0,1,695.36,397Z" fill="none" stroke="#000" stroke-miterlimit="10" stroke-width="4"/>
          <path d="M746.66,369.34l6.7,38.22a1.15,1.15,0,0,1-.48,1.47L698.6,440a1.89,1.89,0,0,1-1.88,0L646.55,411a1.15,1.15,0,0,1-.48-1.46l6.7-38.22" fill="none" stroke="#000" stroke-miterlimit="10" stroke-width="4"/>
          <line x1="698.16" y1="441.01" x2="698.16" y2="398.01" fill="none" stroke="#000" stroke-miterlimit="10" stroke-width="4"/>
        </g>
      </g>
      <g>
        <polyline id="color-38" data-name="color" points="588.79 443.18 640.84 472.13 695.59 439.71 688.9 401.5 644.31 375.62 596.37 401.95 588.31 441.72" fill="#fff"/>
        <g>
          <path d="M637.59,429.18l-41.62-24c-1.42-.82-1.24-2.25.4-3.2l44.29-25.57a6.16,6.16,0,0,1,5.54-.23l41.62,24c1.42.82,1.24,2.25-.4,3.2L643.13,429A6.16,6.16,0,0,1,637.59,429.18Z" fill="none" stroke="#000" stroke-miterlimit="10" stroke-width="4"/>
          <path d="M688.9,401.5l6.7,38.22a1.15,1.15,0,0,1-.48,1.47l-54.27,30.95a1.89,1.89,0,0,1-1.88,0l-50.17-28.94a1.15,1.15,0,0,1-.48-1.46L595,403.5" fill="none" stroke="#000" stroke-miterlimit="10" stroke-width="4"/>
          <line x1="640.4" y1="473.16" x2="640.4" y2="430.16" fill="none" stroke="#000" stroke-miterlimit="10" stroke-width="4"/>
        </g>
      </g>
      <g>
        <polyline id="color-39" data-name="color" points="531.03 476.78 583.08 505.73 637.83 473.31 631.13 435.1 586.54 409.22 538.61 435.55 530.55 475.32" fill="#fff"/>
        <g>
          <path d="M579.83,462.78l-41.62-24c-1.42-.82-1.24-2.25.4-3.2L582.9,410a6.16,6.16,0,0,1,5.54-.23l41.62,24c1.42.82,1.24,2.25-.4,3.2l-44.29,25.57A6.16,6.16,0,0,1,579.83,462.78Z" fill="none" stroke="#000" stroke-miterlimit="10" stroke-width="4"/>
          <path d="M631.13,435.1l6.7,38.22a1.15,1.15,0,0,1-.48,1.47l-54.27,30.95a1.89,1.89,0,0,1-1.88,0L531,476.78a1.15,1.15,0,0,1-.48-1.46l6.7-38.22" fill="none" stroke="#000" stroke-miterlimit="10" stroke-width="4"/>
          <line x1="582.63" y1="506.76" x2="582.63" y2="463.76" fill="none" stroke="#000" stroke-miterlimit="10" stroke-width="4"/>
        </g>
      </g>
      <g>
        <polyline id="color-40" data-name="color" points="471.83 510.38 523.87 539.33 578.63 506.91 571.93 468.7 527.34 442.82 479.4 469.15 471.35 508.92" fill="#fff"/>
        <g>
          <path d="M520.63,496.38l-41.62-24c-1.42-.82-1.24-2.25.4-3.2l44.29-25.57a6.16,6.16,0,0,1,5.54-.23l41.62,24c1.42.82,1.24,2.25-.4,3.2l-44.29,25.57A6.16,6.16,0,0,1,520.63,496.38Z" fill="none" stroke="#000" stroke-miterlimit="10" stroke-width="4"/>
          <path d="M571.93,468.7l6.7,38.22a1.15,1.15,0,0,1-.48,1.47l-54.27,30.95a1.89,1.89,0,0,1-1.88,0l-50.17-28.94a1.15,1.15,0,0,1-.48-1.46L478,470.7" fill="none" stroke="#000" stroke-miterlimit="10" stroke-width="4"/>
          <line x1="523.43" y1="540.36" x2="523.43" y2="497.36" fill="none" stroke="#000" stroke-miterlimit="10" stroke-width="4"/>
        </g>
      </g>
      <g>
        <polyline id="color-41" data-name="color" points="414.06 543.98 466.11 572.93 520.86 540.51 514.17 502.3 469.58 476.42 421.64 502.75 413.58 542.52" fill="#fff"/>
        <g>
          <path d="M462.86,530l-41.62-24c-1.42-.82-1.24-2.25.4-3.2l44.29-25.57a6.16,6.16,0,0,1,5.54-.23l41.62,24c1.42.82,1.24,2.25-.4,3.2L468.4,529.75A6.16,6.16,0,0,1,462.86,530Z" fill="none" stroke="#000" stroke-miterlimit="10" stroke-width="4"/>
          <path d="M514.17,502.3l6.7,38.22a1.15,1.15,0,0,1-.48,1.47l-54.27,30.95a1.89,1.89,0,0,1-1.88,0L414.06,544a1.15,1.15,0,0,1-.48-1.46l6.7-38.22" fill="none" stroke="#000" stroke-miterlimit="10" stroke-width="4"/>
          <line x1="465.67" y1="573.96" x2="465.67" y2="530.96" fill="none" stroke="#000" stroke-miterlimit="10" stroke-width="4"/>
        </g>
      </g>
      <g>
        <polyline id="color-42" data-name="color" points="354.61 576.85 406.25 606.51 461.44 574.85 455.27 536.54 411.05 510.05 362.75 535.72 354.15 575.38" fill="#fff"/>
        <g>
          <path d="M403.6,563.52l-41.29-24.6c-1.41-.84-1.21-2.27.44-3.19l44.64-25a6.16,6.16,0,0,1,5.54-.15l41.29,24.6c1.41.84,1.21,2.27-.44,3.19l-44.64,25A6.16,6.16,0,0,1,403.6,563.52Z" fill="none" stroke="#000" stroke-miterlimit="10" stroke-width="4"/>
          <path d="M455.28,536.54l6.17,38.3a1.15,1.15,0,0,1-.5,1.46l-54.69,30.2a1.89,1.89,0,0,1-1.88,0l-49.76-29.63a1.15,1.15,0,0,1-.46-1.47l7.22-38.12" fill="none" stroke="#000" stroke-miterlimit="10" stroke-width="4"/>
          <line x1="405.79" y1="607.54" x2="406.39" y2="564.54" fill="none" stroke="#000" stroke-miterlimit="10" stroke-width="4"/>
        </g>
      </g>
      <g>
        <polyline id="color-43" data-name="color" points="297.1 611.18 349.14 640.13 403.9 607.71 397.2 569.5 352.61 543.62 304.67 569.95 296.62 609.72" fill="#fff"/>
        <g>
          <path d="M345.9,597.18l-41.62-24c-1.42-.82-1.24-2.25.4-3.2L349,544.38a6.16,6.16,0,0,1,5.54-.23l41.62,24c1.42.82,1.24,2.25-.4,3.2l-44.29,25.57A6.16,6.16,0,0,1,345.9,597.18Z" fill="none" stroke="#000" stroke-miterlimit="10" stroke-width="4"/>
          <path d="M397.2,569.5l6.7,38.22a1.15,1.15,0,0,1-.48,1.47l-54.27,30.95a1.89,1.89,0,0,1-1.88,0L297.1,611.18a1.15,1.15,0,0,1-.48-1.46l6.7-38.22" fill="none" stroke="#000" stroke-miterlimit="10" stroke-width="4"/>
          <line x1="348.7" y1="641.16" x2="348.7" y2="598.16" fill="none" stroke="#000" stroke-miterlimit="10" stroke-width="4"/>
        </g>
      </g>
      <g>
        <polyline id="color-44" data-name="color" points="123.66 642.67 175.7 671.62 251.12 627.08 244.42 588.86 199.83 562.98 131.23 601.44 123.18 641.21" fill="#fff"/>
        <g>
          <path d="M172.46,628.67l-41.62-24c-1.42-.82-1.24-2.25.4-3.2l65-37.7a6.16,6.16,0,0,1,5.54-.23l41.62,24c1.42.82,1.24,2.25-.4,3.2l-65,37.7A6.16,6.16,0,0,1,172.46,628.67Z" fill="none" stroke="#000" stroke-miterlimit="10" stroke-width="4"/>
          <path d="M244.42,588.86l6.7,38.22a1.15,1.15,0,0,1-.48,1.47L175.7,671.62a1.89,1.89,0,0,1-1.88,0l-50.17-28.94a1.15,1.15,0,0,1-.48-1.46l6.7-38.22" fill="none" stroke="#000" stroke-miterlimit="10" stroke-width="4"/>
          <line x1="175.26" y1="672.65" x2="175.26" y2="629.65" fill="none" stroke="#000" stroke-miterlimit="10" stroke-width="4"/>
        </g>
      </g>
      <g>
        <polyline id="color-45" data-name="color" points="181.63 676.18 233.68 705.13 343.26 641.31 336.56 603.1 291.97 577.22 189.21 634.95 181.16 674.72" fill="#fff"/>
        <g>
          <path d="M230.43,662.18l-41.62-24c-1.42-.82-1.24-2.25.4-3.2l99.11-57a6.16,6.16,0,0,1,5.54-.23l41.62,24c1.42.82,1.24,2.25-.4,3.2L236,662A6.16,6.16,0,0,1,230.43,662.18Z" fill="none" stroke="#000" stroke-miterlimit="10" stroke-width="4"/>
          <path d="M336.56,603.1l6.7,38.22a1.15,1.15,0,0,1-.48,1.47L233.68,705.13a1.89,1.89,0,0,1-1.88,0l-50.17-28.94a1.15,1.15,0,0,1-.48-1.46l6.7-38.22" fill="none" stroke="#000" stroke-miterlimit="10" stroke-width="4"/>
          <line x1="233.24" y1="706.16" x2="233.24" y2="663.16" fill="none" stroke="#000" stroke-miterlimit="10" stroke-width="4"/>
        </g>
      </g>
      <g>
        <polyline id="color-46" data-name="color" points="1066.15 231.44 1118.19 260.39 1172.95 227.97 1166.25 189.76 1121.66 163.88 1073.72 190.21 1065.67 229.98" fill="#fff"/>
        <g>
          <path d="M1114.95,217.44l-41.62-24c-1.42-.82-1.24-2.25.4-3.2L1118,164.64a6.16,6.16,0,0,1,5.54-.23l41.62,24c1.42.82,1.24,2.25-.4,3.2l-44.29,25.57A6.16,6.16,0,0,1,1114.95,217.44Z" fill="none" stroke="#000" stroke-miterlimit="10" stroke-width="4"/>
          <path d="M1166.25,189.76l6.7,38.22a1.15,1.15,0,0,1-.48,1.47l-54.27,30.95a1.89,1.89,0,0,1-1.88,0l-50.17-28.94a1.15,1.15,0,0,1-.48-1.46l6.7-38.22" fill="none" stroke="#000" stroke-miterlimit="10" stroke-width="4"/>
          <line x1="1117.75" y1="261.42" x2="1117.75" y2="218.42" fill="none" stroke="#000" stroke-miterlimit="10" stroke-width="4"/>
        </g>
      </g>
      <g>
        <polyline id="color-47" data-name="color" points="1119.83 263.59 1171.87 292.54 1226.63 260.12 1219.93 221.91 1175.34 196.03 1127.4 222.36 1119.35 262.13" fill="#fff"/>
        <g>
          <path d="M1168.63,249.59l-41.62-24c-1.42-.82-1.24-2.25.4-3.2l44.29-25.57a6.16,6.16,0,0,1,5.54-.23l41.62,24c1.42.82,1.24,2.25-.4,3.2l-44.29,25.57A6.16,6.16,0,0,1,1168.63,249.59Z" fill="none" stroke="#000" stroke-miterlimit="10" stroke-width="4"/>
          <path d="M1219.93,221.91l6.7,38.22a1.15,1.15,0,0,1-.48,1.47l-54.27,30.95a1.89,1.89,0,0,1-1.88,0l-50.17-28.94a1.15,1.15,0,0,1-.48-1.46l6.7-38.22" fill="none" stroke="#000" stroke-miterlimit="10" stroke-width="4"/>
          <line x1="1171.43" y1="293.57" x2="1171.43" y2="250.57" fill="none" stroke="#000" stroke-miterlimit="10" stroke-width="4"/>
        </g>
      </g>
      <g>
        <polyline id="color-48" data-name="color" points="950.69 297.81 1002.74 326.76 1114.33 262.67 1107.64 224.46 1063.05 198.58 958.27 256.58 950.21 296.35" fill="#fff"/>
        <g>
          <path d="M999.49,283.81l-41.62-24c-1.42-.82-1.24-2.25.4-3.2l101.13-57.24a6.16,6.16,0,0,1,5.54-.23l41.62,24c1.42.82,1.24,2.25-.4,3.2L1005,283.58A6.16,6.16,0,0,1,999.49,283.81Z" fill="none" stroke="#000" stroke-miterlimit="10" stroke-width="4"/>
          <path d="M1107.64,224.46l6.7,38.22a1.15,1.15,0,0,1-.48,1.47l-111.11,62.62a1.89,1.89,0,0,1-1.88,0l-50.17-28.94a1.15,1.15,0,0,1-.48-1.46l6.7-38.22" fill="none" stroke="#000" stroke-miterlimit="10" stroke-width="4"/>
          <line x1="1002.3" y1="327.8" x2="1002.3" y2="284.8" fill="none" stroke="#000" stroke-miterlimit="10" stroke-width="4"/>
        </g>
      </g>
      <g>
        <polyline id="color-49" data-name="color" points="1061.33 297.13 1113.37 326.07 1168.13 293.66 1161.43 255.44 1116.84 229.56 1068.9 255.9 1060.85 295.66" fill="#fff"/>
        <g>
          <path d="M1110.13,283.13l-41.62-24c-1.42-.82-1.24-2.25.4-3.2l44.29-25.57a6.16,6.16,0,0,1,5.54-.23l41.62,24c1.42.82,1.24,2.25-.4,3.2l-44.29,25.57A6.16,6.16,0,0,1,1110.13,283.13Z" fill="none" stroke="#000" stroke-miterlimit="10" stroke-width="4"/>
          <path d="M1161.43,255.44l6.7,38.22a1.15,1.15,0,0,1-.48,1.47l-54.27,30.95a1.89,1.89,0,0,1-1.88,0l-50.17-28.94a1.15,1.15,0,0,1-.48-1.46l6.7-38.22" fill="none" stroke="#000" stroke-miterlimit="10" stroke-width="4"/>
          <line x1="1112.93" y1="327.11" x2="1112.93" y2="284.11" fill="none" stroke="#000" stroke-miterlimit="10" stroke-width="4"/>
        </g>
      </g>
      <g>
        <polyline id="color-50" data-name="color" points="892.43 331.54 944.48 360.49 999.23 328.07 992.54 289.86 947.95 263.98 900.01 290.31 891.95 330.08" fill="#fff"/>
        <g>
          <path d="M941.23,317.54l-41.62-24c-1.42-.82-1.24-2.25.4-3.2l44.29-25.57a6.16,6.16,0,0,1,5.54-.23l41.62,24c1.42.82,1.24,2.25-.4,3.2l-44.29,25.57A6.16,6.16,0,0,1,941.23,317.54Z" fill="none" stroke="#000" stroke-miterlimit="10" stroke-width="4"/>
          <path d="M992.54,289.86l6.7,38.22a1.15,1.15,0,0,1-.48,1.47l-54.27,30.95a1.89,1.89,0,0,1-1.88,0l-50.17-28.94a1.15,1.15,0,0,1-.48-1.46l6.7-38.22" fill="none" stroke="#000" stroke-miterlimit="10" stroke-width="4"/>
          <line x1="944.04" y1="361.52" x2="944.04" y2="318.52" fill="none" stroke="#000" stroke-miterlimit="10" stroke-width="4"/>
        </g>
      </g>
      <g>
        <polyline id="color-51" data-name="color" points="981.71 342.99 1033.76 371.94 1109.78 327.19 1103.08 288.97 1058.49 263.09 989.29 301.76 981.23 341.52" fill="#fff"/>
        <g>
          <path d="M1030.51,329l-41.62-24c-1.42-.82-1.24-2.25.4-3.2l65.56-37.9a6.16,6.16,0,0,1,5.54-.23l41.62,24c1.42.82,1.24,2.25-.4,3.2l-65.56,37.9A6.16,6.16,0,0,1,1030.51,329Z" fill="none" stroke="#000" stroke-miterlimit="10" stroke-width="4"/>
          <path d="M1103.08,289l6.7,38.22a1.15,1.15,0,0,1-.48,1.47l-75.54,43.28a1.89,1.89,0,0,1-1.88,0L981.71,343a1.15,1.15,0,0,1-.48-1.46l6.7-38.22" fill="none" stroke="#000" stroke-miterlimit="10" stroke-width="4"/>
          <line x1="1033.31" y1="372.97" x2="1033.31" y2="329.97" fill="none" stroke="#000" stroke-miterlimit="10" stroke-width="4"/>
        </g>
      </g>
      <g>
        <polyline id="color-52" data-name="color" points="836.46 364.55 888.5 393.5 943.26 361.08 936.56 322.87 891.97 296.99 844.03 323.32 835.98 363.09" fill="#fff"/>
        <g>
          <path d="M885.26,350.55l-41.62-24c-1.42-.82-1.24-2.25.4-3.2l44.29-25.57a6.16,6.16,0,0,1,5.54-.23l41.62,24c1.42.82,1.24,2.25-.4,3.2L890.8,350.32A6.16,6.16,0,0,1,885.26,350.55Z" fill="none" stroke="#000" stroke-miterlimit="10" stroke-width="4"/>
          <path d="M936.56,322.87l6.7,38.22a1.15,1.15,0,0,1-.48,1.47L888.5,393.5a1.89,1.89,0,0,1-1.88,0l-50.17-28.94a1.15,1.15,0,0,1-.48-1.46l6.7-38.22" fill="none" stroke="#000" stroke-miterlimit="10" stroke-width="4"/>
          <line x1="888.06" y1="394.54" x2="888.06" y2="351.54" fill="none" stroke="#000" stroke-miterlimit="10" stroke-width="4"/>
        </g>
      </g>
      <g>
        <polyline id="color-53" data-name="color" points="903.21 388.26 955.25 417.21 1031.28 372.46 1024.58 334.24 979.99 308.36 910.79 347.03 902.73 386.8" fill="#fff"/>
        <g>
          <path d="M952,374.26l-41.62-24c-1.42-.82-1.24-2.25.4-3.2l65.56-37.9a6.16,6.16,0,0,1,5.54-.23l41.62,24c1.42.82,1.24,2.25-.4,3.2L957.55,374A6.16,6.16,0,0,1,952,374.26Z" fill="none" stroke="#000" stroke-miterlimit="10" stroke-width="4"/>
          <path d="M1024.58,334.24l6.7,38.22a1.15,1.15,0,0,1-.48,1.47l-75.54,43.28a1.89,1.89,0,0,1-1.88,0l-50.17-28.94a1.15,1.15,0,0,1-.48-1.46l6.7-38.22" fill="none" stroke="#000" stroke-miterlimit="10" stroke-width="4"/>
          <line x1="954.81" y1="418.24" x2="954.81" y2="375.24" fill="none" stroke="#000" stroke-miterlimit="10" stroke-width="4"/>
        </g>
      </g>
      <g>
        <polyline id="color-54" data-name="color" points="778.7 398.15 830.74 427.1 885.5 394.69 878.8 356.47 834.21 330.59 786.27 356.92 778.22 396.69" fill="#fff"/>
        <g>
          <path d="M827.5,384.15l-41.62-24c-1.42-.82-1.24-2.25.4-3.2l44.29-25.57a6.16,6.16,0,0,1,5.54-.23l41.62,24c1.42.82,1.24,2.25-.4,3.2L833,383.92A6.16,6.16,0,0,1,827.5,384.15Z" fill="none" stroke="#000" stroke-miterlimit="10" stroke-width="4"/>
          <path d="M878.8,356.47l6.7,38.22a1.15,1.15,0,0,1-.48,1.47L830.74,427.1a1.89,1.89,0,0,1-1.88,0L778.7,398.15a1.15,1.15,0,0,1-.48-1.46l6.7-38.22" fill="none" stroke="#000" stroke-miterlimit="10" stroke-width="4"/>
          <line x1="830.3" y1="428.14" x2="830.3" y2="385.14" fill="none" stroke="#000" stroke-miterlimit="10" stroke-width="4"/>
        </g>
      </g>
      <g>
        <polyline id="color-55" data-name="color" points="720.93 430.31 772.98 459.26 827.73 426.84 821.04 388.63 776.45 362.75 728.51 389.08 720.45 428.85" fill="#fff"/>
        <g>
          <path d="M769.73,416.31l-41.62-24c-1.42-.82-1.24-2.25.4-3.2l44.29-25.57a6.16,6.16,0,0,1,5.54-.23l41.62,24c1.42.82,1.24,2.25-.4,3.2l-44.29,25.57A6.16,6.16,0,0,1,769.73,416.31Z" fill="none" stroke="#000" stroke-miterlimit="10" stroke-width="4"/>
          <path d="M821,388.63l6.7,38.22a1.15,1.15,0,0,1-.48,1.47L773,459.26a1.89,1.89,0,0,1-1.88,0l-50.17-28.94a1.15,1.15,0,0,1-.48-1.46l6.7-38.22" fill="none" stroke="#000" stroke-miterlimit="10" stroke-width="4"/>
          <line x1="772.54" y1="460.3" x2="772.54" y2="417.3" fill="none" stroke="#000" stroke-miterlimit="10" stroke-width="4"/>
        </g>
      </g>
      <g>
        <polyline id="color-56" data-name="color" points="661.73 463.91 713.78 492.86 768.53 460.44 761.84 422.23 717.25 396.35 669.31 422.68 661.25 462.45" fill="#fff"/>
        <g>
          <path d="M710.53,449.91l-41.62-24c-1.42-.82-1.24-2.25.4-3.2l44.29-25.57a6.16,6.16,0,0,1,5.54-.23l41.62,24c1.42.82,1.24,2.25-.4,3.2l-44.29,25.57A6.16,6.16,0,0,1,710.53,449.91Z" fill="none" stroke="#000" stroke-miterlimit="10" stroke-width="4"/>
          <path d="M761.83,422.23l6.7,38.22a1.15,1.15,0,0,1-.48,1.47l-54.27,30.95a1.89,1.89,0,0,1-1.88,0l-50.17-28.94a1.15,1.15,0,0,1-.48-1.46l6.7-38.22" fill="none" stroke="#000" stroke-miterlimit="10" stroke-width="4"/>
          <line x1="713.33" y1="493.9" x2="713.33" y2="450.9" fill="none" stroke="#000" stroke-miterlimit="10" stroke-width="4"/>
        </g>
      </g>
      <g>
        <polyline id="color-57" data-name="color" points="603.97 497.51 656.01 526.46 710.77 494.04 704.07 455.83 659.48 429.95 611.54 456.28 603.49 496.05" fill="#fff"/>
        <g>
          <path d="M652.77,483.51l-41.62-24c-1.42-.82-1.24-2.25.4-3.2l44.29-25.57a6.16,6.16,0,0,1,5.54-.23l41.62,24c1.42.82,1.24,2.25-.4,3.2l-44.29,25.57A6.16,6.16,0,0,1,652.77,483.51Z" fill="none" stroke="#000" stroke-miterlimit="10" stroke-width="4"/>
          <path d="M704.07,455.83l6.7,38.22a1.15,1.15,0,0,1-.48,1.47L656,526.46a1.89,1.89,0,0,1-1.88,0L604,497.51a1.15,1.15,0,0,1-.48-1.46l6.7-38.22" fill="none" stroke="#000" stroke-miterlimit="10" stroke-width="4"/>
          <line x1="655.57" y1="527.49" x2="655.57" y2="484.49" fill="none" stroke="#000" stroke-miterlimit="10" stroke-width="4"/>
        </g>
      </g>
      <g>
        <polyline id="color-58" data-name="color" points="546.21 531.11 598.25 560.06 653.01 527.64 646.31 489.43 601.72 463.55 553.78 489.88 545.73 529.65" fill="#fff"/>
        <g>
          <path d="M595,517.11l-41.62-24c-1.42-.82-1.24-2.25.4-3.2l44.29-25.57a6.16,6.16,0,0,1,5.54-.23l41.62,24c1.42.82,1.24,2.25-.4,3.2l-44.29,25.57A6.16,6.16,0,0,1,595,517.11Z" fill="none" stroke="#000" stroke-miterlimit="10" stroke-width="4"/>
          <path d="M646.31,489.43l6.7,38.22a1.15,1.15,0,0,1-.48,1.47l-54.27,30.95a1.89,1.89,0,0,1-1.88,0l-50.17-28.94a1.15,1.15,0,0,1-.48-1.46l6.7-38.22" fill="none" stroke="#000" stroke-miterlimit="10" stroke-width="4"/>
          <line x1="597.81" y1="561.09" x2="597.81" y2="518.09" fill="none" stroke="#000" stroke-miterlimit="10" stroke-width="4"/>
        </g>
      </g>
      <g>
        <polyline id="color-59" data-name="color" points="488.44 564.71 540.49 593.66 595.24 561.24 588.55 523.03 543.96 497.15 496.02 523.48 487.96 563.25" fill="#fff"/>
        <g>
          <path d="M537.24,550.71l-41.62-24c-1.42-.82-1.24-2.25.4-3.2l44.29-25.57a6.16,6.16,0,0,1,5.54-.23l41.62,24c1.42.82,1.24,2.25-.4,3.2l-44.29,25.57A6.16,6.16,0,0,1,537.24,550.71Z" fill="none" stroke="#000" stroke-miterlimit="10" stroke-width="4"/>
          <path d="M588.55,523l6.7,38.22a1.15,1.15,0,0,1-.48,1.47l-54.27,30.95a1.89,1.89,0,0,1-1.88,0l-50.17-28.94a1.15,1.15,0,0,1-.48-1.46l6.7-38.22" fill="none" stroke="#000" stroke-miterlimit="10" stroke-width="4"/>
          <line x1="540.05" y1="594.69" x2="540.05" y2="551.69" fill="none" stroke="#000" stroke-miterlimit="10" stroke-width="4"/>
        </g>
      </g>
      <g>
        <polyline id="color-60" data-name="color" points="430.68 598.31 482.73 627.26 537.48 594.84 530.78 556.63 486.19 530.75 438.26 557.08 430.2 596.85" fill="#fff"/>
        <g>
          <path d="M479.48,584.31l-41.62-24c-1.42-.82-1.24-2.25.4-3.2l44.29-25.57a6.16,6.16,0,0,1,5.54-.23l41.62,24c1.42.82,1.24,2.25-.4,3.2L485,584.08A6.16,6.16,0,0,1,479.48,584.31Z" fill="none" stroke="#000" stroke-miterlimit="10" stroke-width="4"/>
          <path d="M530.78,556.63l6.7,38.22a1.15,1.15,0,0,1-.48,1.47l-54.27,30.95a1.89,1.89,0,0,1-1.88,0l-50.17-28.94a1.15,1.15,0,0,1-.48-1.46l6.7-38.22" fill="none" stroke="#000" stroke-miterlimit="10" stroke-width="4"/>
          <line x1="482.28" y1="628.29" x2="482.28" y2="585.29" fill="none" stroke="#000" stroke-miterlimit="10" stroke-width="4"/>
        </g>
      </g>
      <g>
        <polyline id="color-61" data-name="color" points="372.82 631.93 424.86 660.88 479.62 628.46 472.92 590.25 428.33 564.37 380.39 590.7 372.34 630.47" fill="#fff"/>
        <g>
          <path d="M421.62,617.93,380,593.9c-1.42-.82-1.24-2.25.4-3.2l44.29-25.57a6.16,6.16,0,0,1,5.54-.23l41.62,24c1.42.82,1.24,2.25-.4,3.2L427.16,617.7A6.16,6.16,0,0,1,421.62,617.93Z" fill="none" stroke="#000" stroke-miterlimit="10" stroke-width="4"/>
          <path d="M472.92,590.25l6.7,38.22a1.15,1.15,0,0,1-.48,1.47l-54.27,30.95a1.89,1.89,0,0,1-1.88,0l-50.17-28.94a1.15,1.15,0,0,1-.48-1.46l6.7-38.22" fill="none" stroke="#000" stroke-miterlimit="10" stroke-width="4"/>
          <line x1="424.42" y1="661.91" x2="424.42" y2="618.91" fill="none" stroke="#000" stroke-miterlimit="10" stroke-width="4"/>
        </g>
      </g>
      <g>
        <polyline id="color-62" data-name="color" points="452.83 652.24 504.88 681.18 952.79 417.95 946.1 379.73 901.51 353.85 460.41 611.01 452.36 650.77" fill="#fff"/>
        <g>
          <path d="M501.64,638.24,460,614.2c-1.42-.82-1.24-2.25.4-3.2L897.86,354.61a6.16,6.16,0,0,1,5.54-.23l41.62,24c1.42.82,1.24,2.25-.4,3.2L507.18,638A6.16,6.16,0,0,1,501.64,638.24Z" fill="none" stroke="#000" stroke-miterlimit="10" stroke-width="4"/>
          <path d="M946.1,379.73l6.7,38.22a1.15,1.15,0,0,1-.48,1.47L504.88,681.18a1.89,1.89,0,0,1-1.88,0l-50.17-28.94a1.15,1.15,0,0,1-.48-1.46l6.7-38.22" fill="none" stroke="#000" stroke-miterlimit="10" stroke-width="4"/>
          <line x1="504.44" y1="682.22" x2="504.44" y2="639.22" fill="none" stroke="#000" stroke-miterlimit="10" stroke-width="4"/>
        </g>
      </g>
      <g>
        <polyline id="color-63" data-name="color" points="238.16 708.91 290.21 737.86 421.8 662.11 415.1 623.89 370.51 598.01 245.74 667.68 237.69 707.45" fill="#fff"/>
        <g>
          <path d="M287,694.91l-41.62-24c-1.42-.82-1.24-2.25.4-3.2l121.12-68.91a6.16,6.16,0,0,1,5.54-.23l41.62,24c1.42.82,1.24,2.25-.4,3.2L292.51,694.68A6.16,6.16,0,0,1,287,694.91Z" fill="none" stroke="#000" stroke-miterlimit="10" stroke-width="4"/>
          <path d="M415.1,623.89l6.7,38.22a1.15,1.15,0,0,1-.48,1.47l-131.1,74.28a1.89,1.89,0,0,1-1.88,0l-50.17-28.94a1.15,1.15,0,0,1-.48-1.46l6.7-38.22" fill="none" stroke="#000" stroke-miterlimit="10" stroke-width="4"/>
          <line x1="289.77" y1="738.89" x2="289.77" y2="695.89" fill="none" stroke="#000" stroke-miterlimit="10" stroke-width="4"/>
        </g>
      </g>
      <g>
        <polyline id="color-64" data-name="color" points="372.54 697.9 424.58 726.85 500.6 682.1 493.9 643.88 449.31 618 380.11 656.67 372.06 696.44" fill="#fff"/>
        <g>
          <path d="M421.34,683.9l-41.62-24c-1.42-.82-1.24-2.25.4-3.2l65.56-37.9a6.16,6.16,0,0,1,5.54-.23l41.62,24c1.42.82,1.24,2.25-.4,3.2l-65.56,37.9A6.16,6.16,0,0,1,421.34,683.9Z" fill="none" stroke="#000" stroke-miterlimit="10" stroke-width="4"/>
          <path d="M493.9,643.88l6.7,38.22a1.15,1.15,0,0,1-.48,1.47l-75.54,43.28a1.89,1.89,0,0,1-1.88,0L372.53,697.9a1.15,1.15,0,0,1-.48-1.46l6.7-38.22" fill="none" stroke="#000" stroke-miterlimit="10" stroke-width="4"/>
          <line x1="424.14" y1="727.88" x2="424.14" y2="684.88" fill="none" stroke="#000" stroke-miterlimit="10" stroke-width="4"/>
        </g>
      </g>
      <g>
        <polyline id="color-65" data-name="color" points="294.05 743.39 346.1 772.34 422.12 727.59 415.42 689.37 370.83 663.49 301.63 702.16 293.57 741.92" fill="#fff"/>
        <g>
          <path d="M342.85,729.39l-41.62-24c-1.42-.82-1.24-2.25.4-3.2l65.56-37.9a6.16,6.16,0,0,1,5.54-.23l41.62,24c1.42.82,1.24,2.25-.4,3.2l-65.56,37.9A6.16,6.16,0,0,1,342.85,729.39Z" fill="none" stroke="#000" stroke-miterlimit="10" stroke-width="4"/>
          <path d="M415.42,689.37l6.7,38.22a1.15,1.15,0,0,1-.48,1.47L346.1,772.34a1.89,1.89,0,0,1-1.88,0l-50.17-28.94a1.15,1.15,0,0,1-.48-1.46l6.7-38.22" fill="none" stroke="#000" stroke-miterlimit="10" stroke-width="4"/>
          <line x1="345.65" y1="773.37" x2="345.65" y2="730.37" fill="none" stroke="#000" stroke-miterlimit="10" stroke-width="4"/>
        </g>
      </g>
    </g>
  </g>
</svg>
