<svg xmlns="http://www.w3.org/2000/svg" width="832.91" height="834.03" viewBox="0 0 832.91 834.03">
  <title>rama</title>
  <g id="Layer_2" data-name="Layer 2">
    <g id="Layer_1-2" data-name="Layer 1">
      <g id="YQCRjo.tif">
        <g>
          <path d="M406.84,0h19a45.61,45.61,0,0,0,5.78.8c35.65.49,71.32.23,106.93,1.54q82.35,3,164.63,7.88c43.23,2.59,77,22.74,100.76,59,13.6,20.75,19.2,43.89,20.24,68.54,2.23,53.23,5.61,106.42,7.31,159.67,1.41,43.95,1.4,88,1.43,131.93,0,36.31-.25,72.64-1.38,108.94-1.39,44.6-3.56,89.17-5.89,133.73-.93,17.76-1.72,35.73-5.12,53.11-10.29,52.54-57.68,94.31-110.82,98.89-16.75,1.45-33.55,2.48-50.34,3.24-43.74,2-87.49,4-131.25,5.44q-43.44,1.43-86.93,1.29c-46.81-.1-93.64-.19-140.43-1.38-44.77-1.15-89.51-3.46-134.24-5.75-18.93-1-38.07-1.7-56.63-5.14-53.26-9.88-95.55-57.3-100.07-111.3-2.32-27.7-4-55.48-4.95-83.26C2.78,563.94.12,500.67,0,437.42-.12,368.14,1.95,298.86,3.89,229.6q1.47-52.41,6-104.71A124.84,124.84,0,0,1,105.52,14.13c15.24-3.61,31.27-4.4,47-5.24,47.88-2.56,95.77-5,143.69-6.57,35.46-1.19,71-1,106.43-1.51A23.85,23.85,0,0,0,406.84,0Zm17.43,781.19v-.69c4.16,0,8.32.07,12.48,0,40.62-.76,81.26-1,121.86-2.47,48.24-1.77,96.46-4.32,144.65-7.14,34-2,64.17-32.42,66.6-66.33,1.59-22.25,3.28-44.51,4-66.8,2.18-69.06,4.81-138.12,5.54-207.2.56-53.26-.88-106.58-2.56-159.83-1.47-46.58-4.18-93.13-7-139.65-2.08-34.78-32.11-64.73-66.82-67.14-28.73-2-57.48-4-86.26-4.9-59.9-2-119.82-4.45-179.74-4.54-66.43-.11-132.87,1.77-199.29,3.64-36.26,1-72.51,3.43-108.71,5.92-33.89,2.32-63.78,32.43-66.12,66.25-2.08,30.06-3.72,60.15-5.15,90.24-3.63,76.2-5.25,152.44-4.37,228.72.42,36.79,1,73.6,2.39,110.36,1.87,48.24,4.35,96.46,7.14,144.65,2,34.05,32.71,64.7,66.83,66.63,52.52,3,105,5.89,157.61,7.76C333,780.28,378.64,780.4,424.26,781.19Z"/>
          <path d="M123.33,258q0-47.74,0-95.48c0-22.33,16.08-38.34,38.5-38.36q58.73,0,117.47,0c55.28.06,103.37,43.22,109.7,98.26,3.43,29.83-3.79,56.78-21.41,81-4,5.45-3.8,8.25.91,13.06,3.26,3.33,6.6,6.6,9.89,9.91,15.07,15.19,15.39,38.44.75,53.43-14.49,14.83-38.15,14.82-53.42-.14Q312,366.23,298.53,352.46a13.15,13.15,0,0,0-10.13-4.35c-26.66.11-53.32,0-80,.07-7.35,0-9.83,2.3-10.6,9.6-2.06,19.47-19.31,34.07-39.09,33.08A37,37,0,0,1,123.35,354C123.28,322,123.33,290,123.33,258Zm120.75,15.49c10.16,0,20.32.09,30.48,0a55.42,55.42,0,0,0,11.4-1c18.68-4.22,30.75-21.3,28.83-40.45C313,213.69,297,199.21,278,199c-23.15-.2-46.31-.06-69.46,0-7.75,0-10.55,2.79-10.56,10.5q0,26.48,0,53c0,8.37,2.59,11,11.09,11C220.76,273.53,232.42,273.49,244.08,273.49Z"/>
          <path d="M443.67,622.22c0-19.48-1.38-39.07.26-58.4,4.9-57.66,48.19-105.34,104.73-117,71.89-14.82,141.64,29.74,157.57,101a145.47,145.47,0,0,1,3.29,29.68c.41,31.81.21,63.64.13,95.46a37.47,37.47,0,0,1-74.78,3.72c-.68-6.34-3.25-8.69-9.76-8.7q-49,0-98,0c-6.14,0-8.71,2.39-9.47,8.48-2.62,21-19.07,35.09-39.73,34-19.91-1.06-35-17.41-35.1-38.29-.1-16.66,0-33.32,0-50ZM575.86,593c16.65,0,33.29,0,49.94,0,5.9,0,8.85-2.92,9-8.86.09-3.49.07-7-.16-10.48-2.74-42-47.75-67.86-84.82-48.4-23.1,12.13-33.06,32.19-32,58,.28,7,2.68,9.7,9.62,9.71Q551.64,593,575.86,593Z"/>
          <path d="M709.67,303.06q0,24.24,0,48.48c0,21.61-14.7,38-35.14,39.31s-37-13.08-39.69-34.59c-.71-5.63-3.6-8.06-10-8.08-15.49,0-31,0-46.48,0q-25,0-50,0c-7.5,0-9.81,2.05-10.77,9.34C515,377.7,498.06,392,478.22,390.86a37.13,37.13,0,0,1-35.3-37.1c-.23-33.82-.58-67.65.21-101.45,1.46-62.86,49.95-117.08,112.15-126.42,72.45-10.87,138,35.35,152.06,107.37a138.4,138.4,0,0,1,2.24,23.32C709.91,272.06,709.67,287.56,709.67,303.06ZM576.08,273.49c16.15,0,32.3.05,48.45,0,7.49,0,10.25-2.88,10.3-10.28,0-3,0-6-.16-9-2.61-43.28-49.73-69-87.23-47.35-20.5,11.85-30,30.3-29.63,54,.17,10.94,1.78,12.68,12.82,12.69Z"/>
          <path d="M389.84,577.43q0,47.49,0,95c0,21.58-16.08,38-37.19,38.1-21.35.07-37.62-16.44-37.64-38.23q0-39.74,0-79.48c0-3.75-.65-7-4.2-8.93-4-2.17-7.36-.65-10.32,2.31-5.89,5.89-11.75,11.81-17.68,17.66a37,37,0,0,1-51.11,1.39c-6.68-6-12.89-12.55-19.19-19-2.68-2.73-5.61-4.33-9.36-2.83s-5.2,4.79-5.2,8.83c0,27.16.12,54.32,0,81.48A36.84,36.84,0,0,1,171.34,709a37.46,37.46,0,0,1-42-15.34,35.68,35.68,0,0,1-6-19.78q0-96.72,0-193.44a36.13,36.13,0,0,1,23.14-33.75c14.87-5.69,28.73-3.35,40.19,7.85,20.85,20.38,41.3,41.17,61.92,61.78,6.45,6.45,9.27,6.42,15.79-.1q30-30,60.1-60.07c15.59-15.49,37.4-16.58,53-2.64A35.4,35.4,0,0,1,389.82,481Q389.88,529.19,389.84,577.43Z"/>
        </g>
      </g>
    </g>
  </g>
</svg>
